<?xml version="1.0" standalone="no"?>
<!DOCTYPE svg PUBLIC "-//W3C//DTD SVG 1.1//EN" "http://www.w3.org/Graphics/SVG/1.1/DTD/svg11.dtd" >
<svg xmlns="http://www.w3.org/2000/svg" xmlns:xlink="http://www.w3.org/1999/xlink" version="1.1">
<metadata>
Created by FontForge 20161013 at Tue May 13 23:42:09 2014
 By ,,,
Copyright 2014 Dalton Maag Ltd. Modification of this file requires prior written permission from Dalton Maag Ltd.
</metadata>
<defs>
<font id="AmazonEmber-Light" horiz-adv-x="586" >
  <font-face 
    font-family="Amazon Ember Light"
    font-weight="300"
    font-stretch="normal"
    units-per-em="1000"
    panose-1="2 11 4 3 2 2 4 2 2 4"
    ascent="800"
    descent="-200"
    x-height="503"
    cap-height="693"
    bbox="-196 -274 1278 968"
    underline-thickness="80"
    underline-position="-229"
    unicode-range="U+0008-FFFD"
  />
<missing-glyph horiz-adv-x="500" 
d="M50 0v750h400v-750h-400zM400 700h-300v-650h300v650z" />
    <glyph glyph-name="ff" unicode="ff" horiz-adv-x="678" 
d="M446 0v453h-269v-453h-57v453h-98v40l98 9v115q0 67 35 102t100 35q24 0 49.5 -4.5t43.5 -11.5v-47q-50 11 -86 11q-45 0 -65 -18.5t-20 -60.5v-120h269v114q0 67 35 102t100 35q24 0 49.5 -4.5t43.5 -11.5v-47q-50 11 -86 11q-45 0 -65 -18.5t-20 -60.5v-120h166v-50
h-166v-453h-57z" />
    <glyph glyph-name="fi" unicode="fi" horiz-adv-x="585" 
d="M120 0v453h-98v40l98 9v115q0 67 35 102t100 35q24 0 49.5 -4.5t43.5 -11.5v-47q-50 11 -86 11q-45 0 -65 -18.5t-20 -60.5v-120h326v-503h-57v453h-269v-453h-57zM475 611q-20 0 -31.5 12t-11.5 32t11.5 32t31.5 12t31.5 -12t11.5 -32t-11.5 -32t-31.5 -12z" />
    <glyph glyph-name="fl" unicode="fl" horiz-adv-x="614" 
d="M120 0v453h-98v40l98 9v115q0 67 35 102t100 35q24 0 49.5 -4.5t43.5 -11.5v-47q-50 11 -86 11q-45 0 -65 -18.5t-20 -60.5v-120h171v-50h-171v-453h-57zM578 4q-26 -7 -51 -7q-40 0 -62.5 23.5t-22.5 65.5v654h57v-653q0 -22 8.5 -31t30.5 -9q16 0 40 3v-46z" />
    <glyph glyph-name="ffi" unicode="ffi" horiz-adv-x="911" 
d="M446 0v453h-269v-453h-57v453h-98v40l98 9v115q0 67 35 102t100 35q24 0 49.5 -4.5t43.5 -11.5v-47q-50 11 -86 11q-45 0 -65 -18.5t-20 -60.5v-120h269v114q0 67 35 102t100 35q24 0 49.5 -4.5t43.5 -11.5v-47q-50 11 -86 11q-45 0 -65 -18.5t-20 -60.5v-120h326v-503
h-57v453h-269v-453h-57zM801 611q-20 0 -31.5 12t-11.5 32t11.5 32t31.5 12t31.5 -12t11.5 -32t-11.5 -32t-31.5 -12z" />
    <glyph glyph-name="ffl" unicode="ffl" horiz-adv-x="940" 
d="M446 0v453h-269v-453h-57v453h-98v40l98 9v115q0 67 35 102t100 35q24 0 49.5 -4.5t43.5 -11.5v-47q-50 11 -86 11q-45 0 -65 -18.5t-20 -60.5v-120h269v114q0 67 35 102t100 35q24 0 49.5 -4.5t43.5 -11.5v-47q-50 11 -86 11q-45 0 -65 -18.5t-20 -60.5v-120h171v-50
h-171v-453h-57zM904 4q-26 -7 -51 -7q-40 0 -62.5 23.5t-22.5 65.5v654h57v-653q0 -22 8.5 -31t30.5 -9q16 0 40 3v-46z" />
    <glyph glyph-name=".notdef" horiz-adv-x="500" 
d="M50 0v750h400v-750h-400zM400 700h-300v-650h300v650z" />
    <glyph glyph-name=".null" horiz-adv-x="0" 
 />
    <glyph glyph-name=".null" horiz-adv-x="0" 
 />
    <glyph glyph-name=".null" horiz-adv-x="0" 
 />
    <glyph glyph-name="nonmarkingreturn" unicode="&#x9;" horiz-adv-x="262" 
 />
    <glyph glyph-name="nonmarkingreturn" unicode="&#xd;" horiz-adv-x="262" 
 />
    <glyph glyph-name="space" unicode=" " horiz-adv-x="262" 
 />
    <glyph glyph-name="exclam" unicode="!" horiz-adv-x="222" 
d="M86 191l-7 502q14 8 32 8t32 -8l-7 -502h-50zM111 -6q-20 0 -32.5 13t-12.5 33q0 21 12.5 34t32.5 13t32.5 -13t12.5 -34q0 -20 -12.5 -33t-32.5 -13z" />
    <glyph glyph-name="quotedbl" unicode="&#x22;" horiz-adv-x="302" 
d="M68 464l-10 229q14 8 31 8t31 -8l-10 -229h-42zM192 464l-10 229q14 8 31 8t31 -8l-10 -229h-42z" />
    <glyph glyph-name="numbersign" unicode="#" 
d="M98 0l30 194h-100v48h108l33 213h-111v48h119l30 190h51l-30 -190h179l30 190h51l-30 -190h100v-48h-108l-33 -213h111v-48h-119l-30 -194h-51l30 194h-179l-30 -194h-51zM187 242h179l33 213h-179z" />
    <glyph glyph-name="dollar" unicode="$" 
d="M267 -130v122q-98 4 -187 58v52q97 -53 187 -59v284l-45 17q-74 28 -109 69.5t-35 98.5q0 81 51.5 131t137.5 53v121h48v-122q86 -8 158 -55v-52q-86 50 -158 56v-277l53 -20q71 -26 105.5 -66t34.5 -96q0 -81 -52 -133t-141 -60v-122h-48zM451 186q0 44 -30 73t-106 55
v-271q66 9 101 46t35 97zM134 510q0 -45 30 -74t103 -55v264q-66 -4 -99.5 -38t-33.5 -97z" />
    <glyph glyph-name="percent" unicode="%" horiz-adv-x="940" 
d="M274 0l335 693h57l-335 -693h-57zM735 38q103 0 103 153q0 79 -25.5 117t-77.5 38q-103 0 -103 -153q0 -79 25.5 -117t77.5 -38zM735 -8q-76 0 -116.5 51.5t-40.5 148.5t40.5 148.5t116.5 51.5t116.5 -51.5t40.5 -148.5t-40.5 -148.5t-116.5 -51.5zM205 347
q103 0 103 153q0 79 -25.5 117t-77.5 38q-103 0 -103 -153q0 -79 25.5 -117t77.5 -38zM205 301q-76 0 -116.5 51.5t-40.5 148.5t40.5 148.5t116.5 51.5t116.5 -51.5t40.5 -148.5t-40.5 -148.5t-116.5 -51.5z" />
    <glyph glyph-name="ampersand" unicode="&#x26;" horiz-adv-x="725" 
d="M41 170q0 67 39.5 120.5t109.5 82.5l7 3q-39 45 -58 73.5t-26 51.5t-7 51q0 69 50.5 112t131.5 43q79 0 128 -39t49 -102q0 -110 -154 -185l-32 -16l201 -233q64 83 64 215v33h58v-38q0 -151 -87 -251q25 -26 49.5 -36.5t59.5 -10.5q27 0 54 5v-46q-38 -10 -73 -10
q-67 0 -129 61q-88 -69 -211 -69q-103 0 -163.5 50t-60.5 135zM269 37q103 0 172 55l-215 250q-65 -29 -96 -69.5t-31 -95.5q0 -67 44.5 -103.5t125.5 -36.5zM162 551q0 -31 15.5 -59t72.5 -94l50 26q53 28 81 63.5t28 75.5q0 43 -32.5 68.5t-86.5 25.5q-60 0 -94 -28
t-34 -78z" />
    <glyph glyph-name="quotesingle" unicode="'" horiz-adv-x="178" 
d="M68 464l-10 229q14 8 31 8t31 -8l-10 -229h-42z" />
    <glyph glyph-name="parenleft" unicode="(" horiz-adv-x="277" 
d="M196 -144q-64 97 -98 213t-34 236q0 119 34 235t98 214h57q-61 -94 -94 -210.5t-33 -238.5t33 -238.5t94 -210.5h-57z" />
    <glyph glyph-name="parenright" unicode=")" horiz-adv-x="277" 
d="M81 754q64 -97 98 -213t34 -236q0 -119 -34 -235t-98 -214h-57q61 94 94 210.5t33 238.5t-33 238.5t-94 210.5h57z" />
    <glyph glyph-name="asterisk" unicode="*" horiz-adv-x="390" 
d="M332 603q19 -19 19 -42q0 -7 -2 -13l-118 -32l89 -112q-16 -30 -47 -35l-78 127l-78 -127q-31 5 -47 35l89 112l-118 32q-2 6 -2 13q0 23 19 42l115 -47l-9 132q18 7 31 7q14 0 31 -7l-9 -132z" />
    <glyph glyph-name="plus" unicode="+" 
d="M266 125v200h-192v50h192v200h54v-200h192v-50h-192v-200h-54z" />
    <glyph glyph-name="comma" unicode="," horiz-adv-x="214" 
d="M33 -147l44 230h24q20 0 29 -5.5t9 -17.5q0 -10 -11 -47l-51 -160h-44z" />
    <glyph glyph-name="hyphen" unicode="-" horiz-adv-x="379" 
d="M50 233v53h279v-53h-279z" />
    <glyph glyph-name="period" unicode="." horiz-adv-x="214" 
d="M107 -6q-20 0 -32.5 13t-12.5 33q0 21 12.5 34t32.5 13t32.5 -13t12.5 -34q0 -20 -12.5 -33t-32.5 -13z" />
    <glyph glyph-name="slash" unicode="/" horiz-adv-x="433" 
d="M18 -144l339 898h58l-339 -898h-58z" />
    <glyph glyph-name="zero" unicode="0" 
d="M293 39q94 0 139.5 75t45.5 231t-45.5 232t-139.5 76t-139.5 -76t-45.5 -232t45.5 -231t139.5 -75zM293 -15q-120 0 -182.5 91.5t-62.5 268.5t62.5 269.5t182.5 92.5t182.5 -92.5t62.5 -269.5t-62.5 -268.5t-182.5 -91.5z" />
    <glyph glyph-name="one" unicode="1" 
d="M328 0v631l-205 -87v50l205 99h58v-693h-58z" />
    <glyph glyph-name="two" unicode="2" 
d="M97 634q89 73 195 73q88 0 141 -49.5t53 -130.5q0 -60 -30.5 -118t-101.5 -139.5t-206 -216.5h368v-53h-438v51q155 160 225.5 242.5t96 133t25.5 96.5q0 60 -37 94.5t-100 34.5q-88 0 -191 -74v56z" />
    <glyph glyph-name="three" unicode="3" 
d="M235 386q24 3 52 3q95 0 152.5 -54t57.5 -143q0 -94 -67.5 -150.5t-180.5 -56.5q-93 0 -184 40v50q63 -20 104 -28t83 -8q88 0 136.5 40t48.5 113q0 147 -179 147q-52 0 -96 -4v44l238 261h-325v53h394v-52z" />
    <glyph glyph-name="four" unicode="4" 
d="M381 0v159h-343v51l341 483h60v-484h105v-50h-105v-159h-58zM381 209v402l-283 -402h283z" />
    <glyph glyph-name="five" unicode="5" 
d="M78 74q106 -35 183 -35q89 0 137.5 41t48.5 115q0 88 -44.5 125.5t-147.5 37.5q-50 0 -147 -10v45l20 300h341v-53h-289l-15 -238q58 10 109 10q112 0 172.5 -56.5t60.5 -160.5q0 -61 -30.5 -108.5t-87 -74.5t-132.5 -27q-98 0 -179 39v50z" />
    <glyph glyph-name="six" unicode="6" 
d="M341 653q-108 0 -163.5 -77t-57.5 -228q40 30 91.5 47.5t101.5 17.5q96 0 155 -57.5t59 -149.5q0 -101 -59 -161t-159 -60q-247 0 -247 342q0 181 71 280.5t201 99.5q80 0 146 -30v-51q-78 27 -139 27zM307 359q-47 0 -97 -16t-90 -44q1 -126 50 -193t139 -67
q75 0 117.5 44t42.5 124q0 72 -42.5 112t-119.5 40z" />
    <glyph glyph-name="seven" unicode="7" 
d="M160 0l292 640h-388v53h448v-52l-292 -641h-60z" />
    <glyph glyph-name="eight" unicode="8" 
d="M500 524q0 -58 -32 -104.5t-91 -76.5q79 -34 115 -74.5t36 -96.5q0 -84 -66 -135.5t-173 -51.5q-106 0 -168.5 50.5t-62.5 135.5q0 125 144 192q-117 53 -117 159q0 83 57.5 134t150.5 51q60 0 106.5 -22.5t73.5 -64t27 -96.5zM249 343q-133 -66 -133 -165
q0 -67 46.5 -104t130.5 -37q83 0 130 36t47 100q0 45 -31 75t-114 64zM142 525q0 -46 30 -78.5t95 -58.5l65 -26q111 62 111 158q0 64 -39.5 100.5t-110.5 36.5t-111 -35t-40 -97z" />
    <glyph glyph-name="nine" unicode="9" 
d="M89 75q37 -17 77.5 -26.5t75.5 -9.5q108 0 162 68.5t58 212.5q-37 -28 -88 -45t-100 -17q-99 0 -155.5 59t-56.5 163q0 65 26.5 116.5t76 81t114.5 29.5q118 0 180 -85.5t62 -247.5q0 -193 -67.5 -291t-200.5 -98q-46 0 -90.5 10.5t-73.5 28.5v51zM280 312q46 0 95.5 15
t87.5 40v23q-2 130 -49 196.5t-136 66.5q-72 0 -115 -46.5t-43 -126.5q0 -82 41 -125t119 -43z" />
    <glyph glyph-name="colon" unicode=":" horiz-adv-x="214" 
d="M107 -6q-20 0 -32.5 13t-12.5 33q0 21 12.5 34t32.5 13t32.5 -13t12.5 -34q0 -20 -12.5 -33t-32.5 -13zM107 416q-20 0 -32.5 13t-12.5 33q0 21 12.5 34t32.5 13t32.5 -13t12.5 -34q0 -20 -12.5 -33t-32.5 -13z" />
    <glyph glyph-name="semicolon" unicode=";" horiz-adv-x="214" 
d="M33 -147l44 230h24q20 0 29 -5.5t9 -17.5q0 -10 -11 -47l-51 -160h-44zM107 416q-20 0 -32.5 13t-12.5 33q0 21 12.5 34t32.5 13t32.5 -13t12.5 -34q0 -20 -12.5 -33t-32.5 -13z" />
    <glyph glyph-name="less" unicode="&#x3c;" 
d="M82 324v50l422 195v-55l-365 -164l365 -164v-57z" />
    <glyph glyph-name="equal" unicode="=" 
d="M74 215v50h438v-50h-438zM74 435v50h438v-50h-438z" />
    <glyph glyph-name="greater" unicode="&#x3e;" 
d="M504 374v-50l-422 -195v55l365 164l-365 164v57z" />
    <glyph glyph-name="question" unicode="?" horiz-adv-x="416" 
d="M324 545q0 53 -32.5 80.5t-94.5 27.5q-37 0 -74 -10.5t-86 -35.5v51q37 23 80.5 36t86.5 13q83 0 131 -42.5t48 -115.5q0 -136 -182 -215v-143h-50l-10 163l42 21q74 37 107.5 77.5t33.5 92.5zM177 -6q-20 0 -32.5 13t-12.5 33q0 21 12.5 34t32.5 13t32.5 -13t12.5 -34
q0 -20 -12.5 -33t-32.5 -13z" />
    <glyph glyph-name="at" unicode="@" horiz-adv-x="941" 
d="M417 -166q84 0 166 27v-47q-85 -32 -168 -32q-111 0 -192.5 45.5t-126 132.5t-44.5 207q0 141 59 256.5t167.5 184.5t245.5 69q106 0 188.5 -42.5t129.5 -124t47 -190.5q0 -87 -28.5 -161.5t-80 -120.5t-114.5 -46q-79 0 -94 68q-70 -70 -158 -70q-68 0 -108.5 48
t-40.5 128q0 78 30 146t84 111t118 43q38 0 69.5 -16t52.5 -45l17 46h40l-51 -311q-4 -30 -4 -41q0 -32 11.5 -45.5t37.5 -13.5q44 0 81.5 35.5t60.5 100.5t23 145q0 90 -37 159t-107.5 107t-166.5 38q-116 0 -210.5 -56.5t-150 -161t-55.5 -239.5q0 -159 80.5 -246.5
t228.5 -87.5zM421 42q39 0 74 15.5t74 50.5q0 11 3 32l35 217q-40 57 -109 57q-47 0 -87.5 -31t-65 -86.5t-24.5 -124.5q0 -62 26 -96t74 -34z" />
    <glyph glyph-name="A" unicode="A" horiz-adv-x="623" 
d="M548 0l-78 208h-320l-78 -208h-58l266 693h63l266 -693h-61zM169 257h283l-142 374z" />
    <glyph glyph-name="B" unicode="B" horiz-adv-x="596" 
d="M88 0v693h211q94 0 151 -49.5t57 -132.5q0 -107 -92 -149q63 -18 97 -62t34 -109q0 -88 -57.5 -139.5t-152.5 -51.5h-248zM145 328v-275h189q74 0 112 35t38 103t-37.5 102.5t-110.5 34.5h-191zM145 640v-259h152q148 0 148 130q0 129 -148 129h-152z" />
    <glyph glyph-name="C" unicode="C" horiz-adv-x="597" 
d="M561 19q-77 -30 -169 -30q-160 0 -242 90t-82 265q0 174 85 265.5t244 91.5q86 0 154 -27v-52q-85 22 -147 22q-137 0 -204.5 -71.5t-67.5 -215.5v-25q0 -286 265 -286q68 0 164 25v-52z" />
    <glyph glyph-name="D" unicode="D" horiz-adv-x="672" 
d="M88 0v693h209q151 0 229 -88.5t78 -258.5q0 -169 -81 -257.5t-234 -88.5h-201zM147 644v-595h135q129 0 194.5 71.5t65.5 213.5v25q0 285 -259 285h-136z" />
    <glyph glyph-name="E" unicode="E" horiz-adv-x="547" 
d="M88 0v693h409v-53h-350v-255h300v-53h-300v-279h350v-53h-409z" />
    <glyph glyph-name="F" unicode="F" horiz-adv-x="509" 
d="M88 0v693h389v-53h-330v-265h279v-53h-279v-322h-59z" />
    <glyph glyph-name="G" unicode="G" horiz-adv-x="676" 
d="M409 44q76 0 134 18v232h-178v53h237v-315q-88 -43 -203 -43q-331 0 -331 355q0 174 84 265.5t243 91.5q95 0 184 -39v-51q-56 19 -96.5 27t-82.5 8q-138 0 -204 -70t-66 -219v-25q0 -147 68.5 -217.5t210.5 -70.5z" />
    <glyph glyph-name="H" unicode="H" horiz-adv-x="702" 
d="M555 0v328h-408v-328h-59v693h59v-312h408v312h59v-693h-59z" />
    <glyph glyph-name="I" unicode="I" horiz-adv-x="243" 
d="M92 0v693h59v-693h-59z" />
    <glyph glyph-name="J" unicode="J" horiz-adv-x="421" 
d="M30 61q61 -23 117 -23q69 0 100 35.5t31 114.5v505h59v-504q0 -102 -48 -154t-142 -52q-62 0 -117 29v49z" />
    <glyph glyph-name="K" unicode="K" horiz-adv-x="569" 
d="M88 0v693h59v-321l318 321h76l-336 -338l364 -355h-81l-341 332v-332h-59z" />
    <glyph glyph-name="L" unicode="L" horiz-adv-x="508" 
d="M88 0v693h59v-640h348v-53h-407z" />
    <glyph glyph-name="M" unicode="M" horiz-adv-x="820" 
d="M676 0v604l-238 -419h-56l-238 416v-601h-56v693h70l254 -446l252 446h68v-693h-56z" />
    <glyph glyph-name="N" unicode="N" horiz-adv-x="696" 
d="M145 606v-606h-57v693h68l395 -608v608h57v-693h-68z" />
    <glyph glyph-name="O" unicode="O" horiz-adv-x="772" 
d="M130 345q0 -151 65 -229t191 -78t191 78t65 229t-65 229t-191 78t-191 -78t-65 -229zM68 345q0 171 84 266.5t234 95.5t234 -95.5t84 -266.5t-84 -266.5t-234 -95.5t-234 95.5t-84 266.5z" />
    <glyph glyph-name="P" unicode="P" horiz-adv-x="583" 
d="M145 282v-282h-57v693h239q95 0 151.5 -56t56.5 -150q0 -93 -56.5 -149t-151.5 -56h-182zM145 335h180q148 0 148 152q0 153 -148 153h-180v-305z" />
    <glyph glyph-name="Q" unicode="Q" horiz-adv-x="772" 
d="M68 345q0 171 84 266.5t234 95.5t234 -95.5t84 -266.5q0 -152 -67 -245t-190 -112q63 -37 123.5 -56t129.5 -24v-59q-87 8 -167.5 40.5t-166.5 94.5q-141 6 -219.5 100.5t-78.5 260.5zM130 345q0 -151 65 -229t191 -78t191 78t65 229t-65 229t-191 78t-191 -78t-65 -229z
" />
    <glyph glyph-name="R" unicode="R" horiz-adv-x="591" 
d="M88 0v693h241q94 0 151 -54t57 -145q0 -76 -42 -126.5t-119 -67.5l199 -300h-69l-190 293h-171v-293h-57zM145 344h175q77 0 116 38.5t39 111.5q0 72 -37.5 109t-110.5 37h-182v-296z" />
    <glyph glyph-name="S" unicode="S" horiz-adv-x="556" 
d="M211 350q-77 30 -113 71.5t-36 102.5q0 83 59.5 134.5t156.5 51.5q44 0 92.5 -10.5t91.5 -29.5v-51q-102 36 -181 36q-77 0 -118 -33.5t-41 -95.5q0 -35 12.5 -56.5t41 -39t81.5 -37.5l107 -41q72 -28 105 -68.5t33 -101.5q0 -89 -65.5 -144t-172.5 -55q-111 0 -198 42
v51q105 -38 193 -38q83 0 132.5 39t49.5 106q0 41 -27 70t-87 52z" />
    <glyph glyph-name="T" unicode="T" horiz-adv-x="555" 
d="M248 0v640h-230v53h519v-53h-230v-640h-59z" />
    <glyph glyph-name="U" unicode="U" horiz-adv-x="690" 
d="M547 693h59v-441q0 -131 -67 -200t-194 -69t-194 69t-67 200v441h59v-452q0 -98 52 -150.5t150 -52.5t150 52.5t52 150.5v452z" />
    <glyph glyph-name="V" unicode="V" horiz-adv-x="620" 
d="M276 0l-262 693h65l231 -632l233 632h63l-262 -693h-68z" />
    <glyph glyph-name="W" unicode="W" horiz-adv-x="907" 
d="M603 0l-152 593l-151 -593h-70l-210 693h64l182 -626l151 603h72l150 -605l186 628h62l-214 -693h-70z" />
    <glyph glyph-name="X" unicode="X" horiz-adv-x="582" 
d="M499 0l-211 313l-209 -313h-67l245 358l-229 335h70l195 -290l195 290h66l-229 -333l245 -360h-71z" />
    <glyph glyph-name="Y" unicode="Y" horiz-adv-x="581" 
d="M259 0v251l-241 442h67l205 -386l209 386h64l-245 -444v-249h-59z" />
    <glyph glyph-name="Z" unicode="Z" horiz-adv-x="565" 
d="M46 0v53l406 587h-381v53h448v-52l-409 -588h406v-53h-470z" />
    <glyph glyph-name="bracketleft" unicode="[" horiz-adv-x="334" 
d="M88 -144v898h222v-53h-163v-792h163v-53h-222z" />
    <glyph glyph-name="backslash" unicode="\" horiz-adv-x="433" 
d="M357 -144l-339 898h58l339 -898h-58z" />
    <glyph glyph-name="bracketright" unicode="]" horiz-adv-x="334" 
d="M24 -144v53h163v792h-163v53h222v-898h-222z" />
    <glyph glyph-name="asciicircum" unicode="^" 
d="M462 319l-170 322l-170 -322h-58l203 374h52l203 -374h-60z" />
    <glyph glyph-name="underscore" unicode="_" horiz-adv-x="500" 
d="M0 -133v50h500v-50h-500z" />
    <glyph glyph-name="grave" unicode="`" horiz-adv-x="568" 
d="M320 602l-120 152h81l87 -152h-48z" />
    <glyph glyph-name="a" unicode="a" horiz-adv-x="508" 
d="M381 0l-5 58q-86 -69 -180 -69q-69 0 -109.5 39.5t-40.5 105.5q0 73 50 115t136 42q67 0 143 -23v84q0 61 -29 87.5t-96 26.5q-80 0 -171 -32v47q38 17 86 27t94 10q88 0 130.5 -37t42.5 -112v-369h-51zM204 41q38 0 82 15.5t89 43.5v125q-67 18 -130 18
q-140 0 -140 -108q0 -46 25 -70t74 -24z" />
    <glyph glyph-name="b" unicode="b" horiz-adv-x="573" 
d="M78 0v740h57v-291q44 35 87.5 52t89.5 17q97 0 153 -69.5t56 -190.5q0 -124 -59 -196.5t-159 -72.5q-92 0 -169 69l-6 -58h-50zM301 466q-43 0 -83 -15.5t-83 -48.5v-293q41 -36 80 -52t82 -16q82 0 123.5 53.5t41.5 159.5q0 212 -161 212z" />
    <glyph glyph-name="c" unicode="c" horiz-adv-x="451" 
d="M413 17q-62 -28 -125 -28q-116 0 -176 66.5t-60 195.5q0 128 61 195.5t177 67.5q62 0 117 -24v-47q-55 18 -114 18q-95 0 -137.5 -48.5t-42.5 -155.5v-12q0 -104 43 -153.5t135 -49.5q55 0 122 22v-47z" />
    <glyph glyph-name="d" unicode="d" horiz-adv-x="571" 
d="M442 0l-6 56q-37 -31 -82.5 -49t-87.5 -18q-99 0 -156.5 69.5t-57.5 190.5q0 124 58 196.5t158 72.5q93 0 168 -66v288h57v-740h-51zM279 41q75 0 157 64v296q-42 34 -80.5 49.5t-81.5 15.5q-80 0 -121.5 -54t-41.5 -160q0 -211 168 -211z" />
    <glyph glyph-name="e" unicode="e" horiz-adv-x="518" 
d="M110 242q1 -105 46 -155t139 -50q86 0 165 35v-47q-71 -40 -169 -40q-119 0 -179 67.5t-60 200.5q0 126 60.5 195.5t169.5 69.5q91 0 139.5 -52t48.5 -149q0 -45 -6 -75h-354zM277 467q-158 0 -167 -179h304q1 14 1 33q0 72 -35 109t-103 37z" />
    <glyph glyph-name="f" unicode="f" horiz-adv-x="352" 
d="M120 0v453h-98v40l98 9v115q0 67 35 102t100 35q24 0 49.5 -4.5t43.5 -11.5v-47q-50 11 -86 11q-45 0 -65 -18.5t-20 -60.5v-120h166v-50h-166v-453h-57z" />
    <glyph glyph-name="g" unicode="g" horiz-adv-x="567" 
d="M432 74q-37 -31 -82 -49t-86 -18q-96 0 -154 68.5t-58 181.5q0 121 57.5 191t156.5 70q94 0 167 -67l6 52h50v-480q0 -118 -60 -179.5t-174 -61.5q-95 0 -163 38v47q84 -33 160 -33q93 0 136.5 46t43.5 145v49zM277 59q75 0 155 64v278q-41 34 -79 49.5t-81 15.5
q-80 0 -120.5 -52t-40.5 -154q0 -98 42.5 -149.5t123.5 -51.5z" />
    <glyph glyph-name="h" unicode="h" horiz-adv-x="568" 
d="M435 0v342q0 65 -25 94.5t-80 29.5q-100 0 -195 -64v-402h-57v740h57v-294q49 34 102.5 53t104.5 19q73 0 111.5 -38.5t38.5 -113.5v-366h-57z" />
    <glyph glyph-name="i" unicode="i" horiz-adv-x="221" 
d="M82 0v503h57v-503h-57zM111 611q-20 0 -31.5 12t-11.5 32t11.5 32t31.5 12t31.5 -12t11.5 -32t-11.5 -32t-31.5 -12z" />
    <glyph glyph-name="j" unicode="j" horiz-adv-x="221" 
d="M82 503h57v-615q0 -52 -26.5 -79t-75.5 -27q-36 0 -70 11v46q31 -6 61 -6q29 0 41.5 11.5t12.5 36.5v622zM111 611q-20 0 -31.5 12t-11.5 32t11.5 32t31.5 12t31.5 -12t11.5 -32t-11.5 -32t-31.5 -12z" />
    <glyph glyph-name="k" unicode="k" horiz-adv-x="481" 
d="M78 0v740h57v-461l249 224h78l-267 -238l284 -265h-82l-262 246v-246h-57z" />
    <glyph glyph-name="l" unicode="l" horiz-adv-x="250" 
d="M214 4q-26 -7 -51 -7q-40 0 -62.5 23.5t-22.5 65.5v654h57v-653q0 -22 8.5 -31t30.5 -9q16 0 40 3v-46z" />
    <glyph glyph-name="m" unicode="m" horiz-adv-x="873" 
d="M740 0v342q0 65 -23 94.5t-73 29.5q-95 0 -181 -63q3 -24 3 -47v-356h-57v342q0 65 -23 94.5t-73 29.5q-93 0 -178 -61v-405h-57v503h50l6 -55q45 34 94.5 52t96.5 18q94 0 126 -77q47 37 100 57t105 20q69 0 105 -39t36 -113v-366h-57z" />
    <glyph glyph-name="n" unicode="n" horiz-adv-x="568" 
d="M435 0v342q0 65 -25 94.5t-80 29.5q-100 0 -195 -64v-402h-57v503h50l6 -58q49 35 103 54t105 19q73 0 111.5 -38.5t38.5 -113.5v-366h-57z" />
    <glyph glyph-name="o" unicode="o" horiz-adv-x="568" 
d="M284 -15q-110 0 -171 70.5t-61 196.5t61 196t171 70t171 -70t61 -196t-61 -196.5t-171 -70.5zM284 37q173 0 173 215q0 214 -173 214t-173 -214q0 -215 173 -215z" />
    <glyph glyph-name="p" unicode="p" horiz-adv-x="573" 
d="M78 -206v709h50l5 -56q46 37 89.5 54t89.5 17q97 0 153 -69.5t56 -190.5q0 -123 -59 -196t-159 -73q-92 0 -168 68v-263h-57zM301 466q-83 0 -166 -64v-293q41 -35 80 -51.5t82 -16.5q82 0 123.5 53.5t41.5 159.5q0 212 -161 212z" />
    <glyph glyph-name="q" unicode="q" horiz-adv-x="571" 
d="M436 -206v262q-37 -31 -82.5 -49t-87.5 -18q-99 0 -156.5 69.5t-57.5 190.5q0 124 58 196.5t158 72.5q95 0 169 -68l6 53h50v-709h-57zM279 41q75 0 157 64v296q-42 34 -80.5 49.5t-81.5 15.5q-80 0 -121.5 -54t-41.5 -160q0 -211 168 -211z" />
    <glyph glyph-name="r" unicode="r" horiz-adv-x="344" 
d="M78 0v503h50l6 -73q38 42 74.5 59.5t82.5 17.5q17 0 41 -3v-51q-26 2 -47 2q-46 0 -81.5 -17t-68.5 -55v-383h-57z" />
    <glyph glyph-name="s" unicode="s" horiz-adv-x="421" 
d="M334 132q0 27 -19.5 46t-65.5 36l-91 34q-107 40 -107 131q0 62 46.5 100.5t121.5 38.5q35 0 73 -8t70 -22v-47q-81 26 -146 26q-54 0 -82 -21.5t-28 -63.5q0 -34 19.5 -52.5t76.5 -40.5l80 -30q56 -21 81.5 -51.5t25.5 -75.5q0 -68 -49.5 -107.5t-134.5 -39.5
q-91 0 -163 36v47q89 -32 167 -32q61 0 93 24.5t32 71.5z" />
    <glyph glyph-name="t" unicode="t" horiz-adv-x="362" 
d="M334 11q-42 -17 -101 -17t-90 31.5t-31 91.5v336h-94v40l96 9l8 147h47v-146h160v-50h-160v-333q0 -41 17.5 -58t58.5 -17t89 12v-46z" />
    <glyph glyph-name="u" unicode="u" horiz-adv-x="554" 
d="M426 0l-6 55q-95 -70 -197 -70q-72 0 -110.5 39t-38.5 114v365h57v-341q0 -66 25 -95.5t79 -29.5q49 0 92 15t92 49v402h57v-503h-50z" />
    <glyph glyph-name="v" unicode="v" horiz-adv-x="486" 
d="M213 0l-203 503h62l172 -444l172 444h60l-203 -503h-60z" />
    <glyph glyph-name="w" unicode="w" horiz-adv-x="743" 
d="M494 0l-125 439l-124 -439h-62l-171 503h61l140 -437l125 437h67l124 -440l143 440h59l-175 -503h-62z" />
    <glyph glyph-name="x" unicode="x" horiz-adv-x="459" 
d="M381 0l-155 222l-152 -222h-64l187 262l-171 241h67l138 -197l138 197h63l-170 -237l187 -266h-68z" />
    <glyph glyph-name="y" unicode="y" horiz-adv-x="486" 
d="M216 -5l-206 508h62l171 -443l173 443h60l-245 -609q-24 -61 -55 -86.5t-80 -25.5q-34 0 -61 12v45q26 -6 57 -6q33 0 52.5 17t37.5 61z" />
    <glyph glyph-name="z" unicode="z" horiz-adv-x="462" 
d="M40 0v51l316 402h-306v50h370v-51l-318 -402h320v-50h-382z" />
    <glyph glyph-name="braceleft" unicode="{" horiz-adv-x="369" 
d="M345 -139q-31 -13 -75 -13q-66 0 -102 39t-36 110v206q0 43 -18 60.5t-62 17.5h-20v48h20q44 0 62 17.5t18 60.5v206q0 71 36 110t102 39q44 0 75 -13v-47q-40 8 -69 8q-44 0 -64.5 -22t-20.5 -71v-201q0 -47 -17.5 -72.5t-58.5 -38.5q41 -13 58.5 -38.5t17.5 -72.5v-201
q0 -49 20.5 -71t64.5 -22q29 0 69 8v-47z" />
    <glyph glyph-name="bar" unicode="|" horiz-adv-x="246" 
d="M94 -206v960h58v-960h-58z" />
    <glyph glyph-name="braceright" unicode="}" horiz-adv-x="369" 
d="M24 749q31 13 75 13q66 0 102 -39t36 -110v-206q0 -43 18 -60.5t62 -17.5h20v-48h-20q-44 0 -62 -17.5t-18 -60.5v-206q0 -71 -36 -110t-102 -39q-44 0 -75 13v47q40 -8 69 -8q44 0 64.5 22t20.5 71v201q0 48 17.5 73.5t57.5 37.5q-40 12 -57.5 37.5t-17.5 73.5v201
q0 49 -20.5 71t-64.5 22q-29 0 -69 -8v47z" />
    <glyph glyph-name="asciitilde" unicode="~" 
d="M63 275q-2 20 -2 35q0 56 30 87t84 31q55 0 124 -52q46 -35 66.5 -45t45.5 -10q31 0 45.5 17t18.5 57l2 28h46q2 -20 2 -35q0 -56 -30 -87t-84 -31q-55 0 -124 52q-46 35 -66.5 45t-45.5 10q-31 0 -45.5 -17t-18.5 -57l-2 -28h-46z" />
    <glyph glyph-name="uni00A0" unicode="&#xa0;" horiz-adv-x="262" 
 />
    <glyph glyph-name="exclamdown" unicode="&#xa1;" horiz-adv-x="222" 
d="M136 312l7 -502q-14 -8 -32 -8t-32 8l7 502h50zM156 463q0 -21 -12.5 -34t-32.5 -13t-32.5 13t-12.5 34q0 20 12.5 33t32.5 13t32.5 -13t12.5 -33z" />
    <glyph glyph-name="cent" unicode="&#xa2;" 
d="M300 -130v152q-198 26 -198 259q0 115 50.5 180.5t147.5 78.5v153h50v-149h4q71 0 128 -25v-47q-60 20 -125 20h-7v-421h4q61 0 134 24v-47q-64 -29 -136 -29h-2v-149h-50zM163 275q0 -89 33.5 -138t103.5 -62v413q-72 -13 -104.5 -61.5t-32.5 -139.5v-12z" />
    <glyph glyph-name="sterling" unicode="&#xa3;" 
d="M531 53v-53h-427v51q82 74 82 192q0 44 -7 82h-99v51h89q-9 37 -16.5 71.5t-7.5 66.5q0 56 25.5 99.5t73 68.5t111.5 25q44 0 87 -11.5t78 -33.5v-52q-47 23 -85 33t-77 10q-76 0 -115 -36.5t-39 -107.5q0 -30 6.5 -63.5t15.5 -69.5h219v-51h-209q9 -50 9 -85
q0 -108 -72 -187h358z" />
    <glyph glyph-name="currency" unicode="&#xa4;" 
d="M293 168q157 0 157 172t-157 172t-157 -172t157 -172zM293 118q-75 0 -130 38l-79 -83l-38 35l81 82q-47 60 -47 150t46 150l-80 82l38 35l79 -83q53 38 130 38q75 0 130 -38l79 83l38 -35l-81 -82q47 -60 47 -150t-46 -150l80 -82l-38 -35l-79 83q-53 -38 -130 -38z" />
    <glyph glyph-name="yen" unicode="&#xa5;" 
d="M265 0v167h-184v48h184v38l-33 61h-151v48h125l-178 331h65l203 -387l200 387h62l-178 -331h128v-48h-153l-33 -62v-37h185v-48h-185v-167h-57z" />
    <glyph glyph-name="brokenbar" unicode="&#xa6;" horiz-adv-x="246" 
d="M94 -206v357h58v-357h-58zM94 397v357h58v-357h-58z" />
    <glyph glyph-name="section" unicode="&#xa7;" horiz-adv-x="468" 
d="M40 324q0 31 12 56t34.5 42t55.5 24q-87 40 -87 120q0 65 47.5 103t129.5 38q73 0 148 -31v-47q-89 27 -151 27q-119 0 -119 -89q0 -32 19 -50.5t72 -38.5l90 -34q73 -28 105 -64.5t32 -91.5q0 -45 -22.5 -78t-65.5 -50q69 -39 69 -109q0 -67 -53 -107t-140 -40
q-94 0 -170 38v47q49 -17 90 -25t84 -8q65 0 99 24t34 70q0 32 -19.5 51.5t-72.5 39.5l-90 34q-71 27 -101 61t-30 88zM95 324q0 -36 25.5 -61.5t83.5 -47.5l82 -31q87 18 87 104q0 37 -27.5 64t-87.5 50l-50 18q-113 -6 -113 -96z" />
    <glyph glyph-name="dieresis" unicode="&#xa8;" horiz-adv-x="568" 
d="M183 607q-19 0 -30.5 11.5t-11.5 31.5q0 21 11.5 32.5t30.5 11.5t30.5 -11.5t11.5 -31.5q0 -21 -11.5 -32.5t-30.5 -11.5zM385 607q-19 0 -30.5 11.5t-11.5 31.5q0 21 11.5 32.5t30.5 11.5t30.5 -11.5t11.5 -31.5q0 -21 -11.5 -32.5t-30.5 -11.5z" />
    <glyph glyph-name="copyright" unicode="&#xa9;" horiz-adv-x="770" 
d="M385 -17q-100 0 -180.5 44.5t-127.5 127t-47 190.5q0 102 44 184t125 130t186 48q100 0 180.5 -44.5t127.5 -127t47 -190.5q0 -102 -44 -184t-125 -130t-186 -48zM385 31q87 0 155.5 38.5t107.5 110t39 165.5q0 91 -36.5 162t-105.5 111.5t-160 40.5q-87 0 -155.5 -38.5
t-107.5 -110t-39 -165.5q0 -91 36.5 -162t105.5 -111.5t160 -40.5zM495 165q-43 -18 -92 -18q-84 0 -129.5 52.5t-45.5 147.5t46.5 147.5t129.5 52.5q48 0 87 -17v-43q-37 11 -85 11q-61 0 -90 -34.5t-29 -108.5v-14q0 -74 30 -109.5t93 -35.5q41 0 85 13v-44z" />
    <glyph glyph-name="ordfeminine" unicode="&#xaa;" horiz-adv-x="389" 
d="M275 346l-5 38q-60 -46 -125 -46q-50 0 -78.5 26t-28.5 72q0 50 37 80t99 30q46 0 94 -14v44q0 44 -19 63t-61 19q-57 0 -125 -26v40q58 29 133 29q64 0 94.5 -27.5t30.5 -84.5v-243h-46zM155 381q57 0 113 37v77q-40 10 -86 10q-92 0 -92 -66q0 -27 17 -42.5t48 -15.5z
M321 276v-45h-277v45h277z" />
    <glyph glyph-name="guillemotleft" unicode="&#xab;" horiz-adv-x="454" 
d="M186 51l-136 208l136 208h58l-130 -208l130 -208h-58zM340 51l-136 208l136 208h58l-130 -208l130 -208h-58z" />
    <glyph glyph-name="logicalnot" unicode="&#xac;" 
d="M458 239v175h-384v50h438v-225h-54z" />
    <glyph glyph-name="uni00AD" unicode="&#xad;" horiz-adv-x="379" 
d="M50 233v53h279v-53h-279z" />
    <glyph glyph-name="registered" unicode="&#xae;" horiz-adv-x="534" 
d="M267 279q-67 0 -120.5 29t-85 83.5t-31.5 124.5q0 67 29 121t83.5 85.5t124.5 31.5q67 0 120.5 -29t85 -83.5t31.5 -124.5q0 -67 -29 -121t-83.5 -85.5t-124.5 -31.5zM267 315q88 0 141.5 55t53.5 147t-53 146.5t-142 54.5q-88 0 -141.5 -55t-53.5 -147t53 -146.5
t142 -54.5zM185 388v262h93q40 0 63.5 -22t23.5 -59q0 -27 -14 -45.5t-40 -26.5l71 -109h-47l-62 104h-46v-104h-42zM227 523h43q51 0 51 45q0 23 -11.5 36t-31.5 13h-51v-94z" />
    <glyph glyph-name="macron" unicode="&#xaf;" horiz-adv-x="568" 
d="M131 646v47h306v-47h-306z" />
    <glyph glyph-name="degree" unicode="&#xb0;" horiz-adv-x="368" 
d="M184 431q-58 0 -94.5 37t-36.5 98t36.5 98t94.5 37t94.5 -37t36.5 -98t-36.5 -98t-94.5 -37zM184 473q38 0 59.5 24.5t21.5 68.5t-21.5 68.5t-59.5 24.5t-59.5 -24.5t-21.5 -68.5t21.5 -68.5t59.5 -24.5z" />
    <glyph glyph-name="plusminus" unicode="&#xb1;" 
d="M266 193v200h-192v50h192v200h54v-200h192v-50h-192v-200h-54zM74 49v50h438v-50h-438z" />
    <glyph glyph-name="uni00B2" unicode="&#xb2;" horiz-adv-x="410" 
d="M83 739q55 43 120 43q53 0 85.5 -29.5t32.5 -77.5q0 -32 -17.5 -62.5t-57 -71.5t-112.5 -105h204v-46h-266v43q84 78 123.5 120t54.5 68.5t15 51.5q0 29 -17.5 45t-49.5 16q-51 0 -115 -42v47z" />
    <glyph glyph-name="uni00B3" unicode="&#xb3;" horiz-adv-x="410" 
d="M190 382q-66 0 -115 25v42q59 -22 117 -22q47 0 72 19t25 54q0 69 -92 69q-39 0 -68 -3v34l130 129h-182v45h242v-42l-119 -120h17q59 0 92.5 -30t33.5 -82q0 -54 -41.5 -86t-111.5 -32z" />
    <glyph glyph-name="acute" unicode="&#xb4;" horiz-adv-x="568" 
d="M200 602l87 152h81l-120 -152h-48z" />
    <glyph glyph-name="mu" unicode="&#xb5;" 
d="M89 503h57v-341q0 -125 115 -125q46 0 86 15.5t87 52.5v398h57v-418q0 -21 9 -29.5t31 -8.5q16 0 34 3v-46q-28 -7 -49 -7q-31 0 -51.5 16t-27.5 47q-40 -36 -87 -55.5t-93 -19.5q-78 0 -111 41v-232h-57v709z" />
    <glyph glyph-name="paragraph" unicode="&#xb6;" horiz-adv-x="587" 
d="M436 -104v747h-136v-849h-59v465q-97 11 -150 65t-53 142q0 107 69 167t192 60h196v-797h-59z" />
    <glyph glyph-name="periodcentered" unicode="&#xb7;" horiz-adv-x="214" 
d="M107 213q-20 0 -32.5 13t-12.5 33q0 21 12.5 34t32.5 13t32.5 -13t12.5 -34q0 -20 -12.5 -33t-32.5 -13z" />
    <glyph glyph-name="cedilla" unicode="&#xb8;" horiz-adv-x="568" 
d="M269 -66q39 0 62.5 -18.5t23.5 -49.5q0 -37 -29 -74t-83 -66l-31 26q43 28 66 56.5t23 50.5q0 30 -44 30q-20 0 -41 -3v40q27 8 53 8z" />
    <glyph glyph-name="uni00B9" unicode="&#xb9;" horiz-adv-x="410" 
d="M212 390v329l-119 -48v46l123 57h49v-384h-53z" />
    <glyph glyph-name="ordmasculine" unicode="&#xba;" horiz-adv-x="410" 
d="M358 276v-45h-306v45h306zM205 338q-76 0 -118.5 48t-42.5 134q0 85 42.5 133t118.5 48t118.5 -48t42.5 -134q0 -85 -42.5 -133t-118.5 -48zM205 384q52 0 79.5 35t27.5 100q0 67 -27 101.5t-80 34.5q-52 0 -79.5 -35t-27.5 -100q0 -67 27 -101.5t80 -34.5z" />
    <glyph glyph-name="guillemotright" unicode="&#xbb;" horiz-adv-x="454" 
d="M114 467l136 -208l-136 -208h-58l130 208l-130 208h58zM268 467l136 -208l-136 -208h-58l130 208l-130 208h58z" />
    <glyph glyph-name="onequarter" unicode="&#xbc;" horiz-adv-x="940" 
d="M290 0l335 693h57l-335 -693h-57zM780 0v82h-198v42l197 266h52v-264h61v-44h-61v-82h-51zM636 126h144v195zM212 309v329l-119 -48v46l123 57h49v-384h-53z" />
    <glyph glyph-name="onehalf" unicode="&#xbd;" horiz-adv-x="940" 
d="M255 0l335 693h57l-335 -693h-57zM613 349q55 43 120 43q53 0 85.5 -29.5t32.5 -77.5q0 -32 -17.5 -62.5t-57 -71.5t-112.5 -105h204v-46h-266v43q84 78 123.5 120t54.5 68.5t15 51.5q0 29 -17.5 45t-49.5 16q-51 0 -115 -42v47zM212 309v329l-119 -48v46l123 57h49v-384
h-53z" />
    <glyph glyph-name="threequarters" unicode="&#xbe;" horiz-adv-x="940" 
d="M291 0l335 693h57l-335 -693h-57zM780 0v82h-198v42l197 266h52v-264h61v-44h-61v-82h-51zM636 126h144v195zM190 301q-66 0 -115 25v42q59 -22 117 -22q47 0 72 19t25 54q0 69 -92 69q-39 0 -68 -3v34l130 129h-182v45h242v-42l-119 -120h17q59 0 92.5 -30t33.5 -82
q0 -54 -41.5 -86t-111.5 -32z" />
    <glyph glyph-name="questiondown" unicode="&#xbf;" horiz-adv-x="416" 
d="M92 -42q0 -53 32.5 -80.5t94.5 -27.5q37 0 74 10.5t86 35.5v-51q-37 -23 -80.5 -36t-86.5 -13q-83 0 -131 42.5t-48 115.5q0 136 182 215v143h50l10 -163l-42 -21q-74 -37 -107.5 -77.5t-33.5 -92.5zM239 509q20 0 32.5 -13t12.5 -33q0 -21 -12.5 -34t-32.5 -13t-32.5 13
t-12.5 34q0 20 12.5 33t32.5 13z" />
    <glyph glyph-name="Agrave" unicode="&#xc0;" horiz-adv-x="623" 
d="M548 0l-78 208h-320l-78 -208h-58l266 693h63l266 -693h-61zM169 257h283l-142 374zM281 769l-122 117h88l92 -117h-58z" />
    <glyph glyph-name="Aacute" unicode="&#xc1;" horiz-adv-x="623" 
d="M548 0l-78 208h-320l-78 -208h-58l266 693h63l266 -693h-61zM169 257h283l-142 374zM281 769l92 117h88l-122 -117h-58z" />
    <glyph glyph-name="Acircumflex" unicode="&#xc2;" horiz-adv-x="623" 
d="M548 0l-78 208h-320l-78 -208h-58l266 693h63l266 -693h-61zM169 257h283l-142 374zM406 769l-96 87l-96 -87h-71l136 129h62l136 -129h-71z" />
    <glyph glyph-name="Atilde" unicode="&#xc3;" horiz-adv-x="623" 
d="M548 0l-78 208h-320l-78 -208h-58l266 693h63l266 -693h-61zM169 257h283l-142 374zM382 820q17 0 26 10.5t11 35.5l1 19h43q3 -10 3 -24q0 -42 -23 -65t-63 -23q-43 0 -79 35q-19 18 -33 25.5t-29 7.5q-17 0 -26 -10.5t-11 -35.5l-1 -19h-43q-3 11 -3 24q0 42 23 65
t63 23q43 0 79 -35q19 -18 33 -25.5t29 -7.5z" />
    <glyph glyph-name="Adieresis" unicode="&#xc4;" horiz-adv-x="623" 
d="M548 0l-78 208h-320l-78 -208h-58l266 693h63l266 -693h-61zM169 257h283l-142 374zM211 785q-20 0 -32 12.5t-12 32.5t12 32.5t32 12.5t32 -12.5t12 -32.5t-12 -32.5t-32 -12.5zM409 785q-20 0 -32 12.5t-12 32.5t12 32.5t32 12.5t32 -12.5t12 -32.5t-12 -32.5
t-32 -12.5z" />
    <glyph glyph-name="Aring" unicode="&#xc5;" horiz-adv-x="623" 
d="M548 0l-78 208h-320l-78 -208h-58l266 693h63l266 -693h-61zM169 257h283l-142 374zM310 740q-45 0 -73 25t-28 66t28 66t73 25t73 -25t28 -66t-28 -66t-73 -25zM310 780q25 0 39 13.5t14 37.5t-14 37.5t-39 13.5t-39 -13.5t-14 -37.5t14 -37.5t39 -13.5z" />
    <glyph glyph-name="AE" unicode="&#xc6;" horiz-adv-x="932" 
d="M473 0v237h-254l-141 -237h-64l416 693h452v-53h-350v-255h300v-53h-300v-279h350v-53h-409zM247 285h226v355h-14z" />
    <glyph glyph-name="Ccedilla" unicode="&#xc7;" horiz-adv-x="597" 
d="M561 19q-77 -30 -169 -30q-160 0 -242 90t-82 265q0 174 85 265.5t244 91.5q86 0 154 -27v-52q-85 22 -147 22q-137 0 -204.5 -71.5t-67.5 -215.5v-25q0 -286 265 -286q68 0 164 25v-52zM364 -66q39 0 62.5 -18.5t23.5 -49.5q0 -37 -29 -74t-83 -66l-32 27q42 29 64.5 56
t22.5 48q0 30 -42 30q-19 0 -40 -3v42q27 8 53 8z" />
    <glyph glyph-name="Egrave" unicode="&#xc8;" horiz-adv-x="547" 
d="M88 0v693h409v-53h-350v-255h300v-53h-300v-279h350v-53h-409zM263 769l-122 117h88l92 -117h-58z" />
    <glyph glyph-name="Eacute" unicode="&#xc9;" horiz-adv-x="547" 
d="M88 0v693h409v-53h-350v-255h300v-53h-300v-279h350v-53h-409zM263 769l92 117h88l-122 -117h-58z" />
    <glyph glyph-name="Ecircumflex" unicode="&#xca;" horiz-adv-x="547" 
d="M88 0v693h409v-53h-350v-255h300v-53h-300v-279h350v-53h-409zM388 769l-96 87l-96 -87h-71l136 129h62l136 -129h-71z" />
    <glyph glyph-name="Edieresis" unicode="&#xcb;" horiz-adv-x="547" 
d="M88 0v693h409v-53h-350v-255h300v-53h-300v-279h350v-53h-409zM193 785q-20 0 -32 12.5t-12 32.5t12 32.5t32 12.5t32 -12.5t12 -32.5t-12 -32.5t-32 -12.5zM391 785q-20 0 -32 12.5t-12 32.5t12 32.5t32 12.5t32 -12.5t12 -32.5t-12 -32.5t-32 -12.5z" />
    <glyph glyph-name="Igrave" unicode="&#xcc;" horiz-adv-x="243" 
d="M92 0v693h59v-693h-59zM92 769l-122 117h88l92 -117h-58z" />
    <glyph glyph-name="Iacute" unicode="&#xcd;" horiz-adv-x="243" 
d="M92 0v693h59v-693h-59zM92 769l92 117h88l-122 -117h-58z" />
    <glyph glyph-name="Icircumflex" unicode="&#xce;" horiz-adv-x="243" 
d="M92 0v693h59v-693h-59zM217 769l-96 87l-96 -87h-71l136 129h62l136 -129h-71z" />
    <glyph glyph-name="Idieresis" unicode="&#xcf;" horiz-adv-x="243" 
d="M92 0v693h59v-693h-59zM22 785q-20 0 -32 12.5t-12 32.5t12 32.5t32 12.5t32 -12.5t12 -32.5t-12 -32.5t-32 -12.5zM220 785q-20 0 -32 12.5t-12 32.5t12 32.5t32 12.5t32 -12.5t12 -32.5t-12 -32.5t-32 -12.5z" />
    <glyph glyph-name="Eth" unicode="&#xd0;" horiz-adv-x="682" 
d="M98 0v331h-80v51h80v311h209q151 0 229 -88.5t78 -258.5q0 -169 -81 -257.5t-234 -88.5h-201zM157 331v-282h135q129 0 194.5 71.5t65.5 213.5v25q0 285 -259 285h-136v-262h173v-51h-173z" />
    <glyph glyph-name="Ntilde" unicode="&#xd1;" horiz-adv-x="696" 
d="M145 606v-606h-57v693h68l395 -608v608h57v-693h-68zM425 820q17 0 26 10.5t11 35.5l1 19h43q3 -10 3 -24q0 -42 -23 -65t-63 -23q-43 0 -79 35q-19 18 -33 25.5t-29 7.5q-17 0 -26 -10.5t-11 -35.5l-1 -19h-43q-3 11 -3 24q0 42 23 65t63 23q43 0 79 -35
q19 -18 33 -25.5t29 -7.5z" />
    <glyph glyph-name="Ograve" unicode="&#xd2;" horiz-adv-x="772" 
d="M130 345q0 -151 65 -229t191 -78t191 78t65 229t-65 229t-191 78t-191 -78t-65 -229zM68 345q0 171 84 266.5t234 95.5t234 -95.5t84 -266.5t-84 -266.5t-234 -95.5t-234 95.5t-84 266.5zM357 769l-122 117h88l92 -117h-58z" />
    <glyph glyph-name="Oacute" unicode="&#xd3;" horiz-adv-x="772" 
d="M130 345q0 -151 65 -229t191 -78t191 78t65 229t-65 229t-191 78t-191 -78t-65 -229zM68 345q0 171 84 266.5t234 95.5t234 -95.5t84 -266.5t-84 -266.5t-234 -95.5t-234 95.5t-84 266.5zM357 769l92 117h88l-122 -117h-58z" />
    <glyph glyph-name="Ocircumflex" unicode="&#xd4;" horiz-adv-x="772" 
d="M130 345q0 -151 65 -229t191 -78t191 78t65 229t-65 229t-191 78t-191 -78t-65 -229zM68 345q0 171 84 266.5t234 95.5t234 -95.5t84 -266.5t-84 -266.5t-234 -95.5t-234 95.5t-84 266.5zM482 769l-96 87l-96 -87h-71l136 129h62l136 -129h-71z" />
    <glyph glyph-name="Otilde" unicode="&#xd5;" horiz-adv-x="772" 
d="M130 345q0 -151 65 -229t191 -78t191 78t65 229t-65 229t-191 78t-191 -78t-65 -229zM68 345q0 171 84 266.5t234 95.5t234 -95.5t84 -266.5t-84 -266.5t-234 -95.5t-234 95.5t-84 266.5zM458 820q17 0 26 10.5t11 35.5l1 19h43q3 -10 3 -24q0 -42 -23 -65t-63 -23
q-43 0 -79 35q-19 18 -33 25.5t-29 7.5q-17 0 -26 -10.5t-11 -35.5l-1 -19h-43q-3 11 -3 24q0 42 23 65t63 23q43 0 79 -35q19 -18 33 -25.5t29 -7.5z" />
    <glyph glyph-name="Odieresis" unicode="&#xd6;" horiz-adv-x="772" 
d="M130 345q0 -151 65 -229t191 -78t191 78t65 229t-65 229t-191 78t-191 -78t-65 -229zM68 345q0 171 84 266.5t234 95.5t234 -95.5t84 -266.5t-84 -266.5t-234 -95.5t-234 95.5t-84 266.5zM287 785q-20 0 -32 12.5t-12 32.5t12 32.5t32 12.5t32 -12.5t12 -32.5t-12 -32.5
t-32 -12.5zM485 785q-20 0 -32 12.5t-12 32.5t12 32.5t32 12.5t32 -12.5t12 -32.5t-12 -32.5t-32 -12.5z" />
    <glyph glyph-name="multiply" unicode="&#xd7;" 
d="M448 545l39 -39l-159 -164l161 -166l-38 -38l-158 170l-158 -170l-38 38l161 166l-159 164l39 39l155 -167z" />
    <glyph glyph-name="Oslash" unicode="&#xd8;" horiz-adv-x="772" 
d="M68 345q0 171 84 266.5t234 95.5q123 0 204 -67l67 84l40 -32l-71 -88q78 -95 78 -259q0 -171 -84 -266.5t-234 -95.5q-124 0 -204 66l-64 -81l-40 32l68 85q-78 95 -78 260zM130 345q0 -136 53 -213l372 464q-64 56 -169 56q-126 0 -191 -78t-65 -229zM642 345
q0 135 -53 212l-372 -464q62 -55 169 -55q126 0 191 78t65 229z" />
    <glyph glyph-name="Ugrave" unicode="&#xd9;" horiz-adv-x="690" 
d="M547 693h59v-441q0 -131 -67 -200t-194 -69t-194 69t-67 200v441h59v-452q0 -98 52 -150.5t150 -52.5t150 52.5t52 150.5v452zM316 769l-122 117h88l92 -117h-58z" />
    <glyph glyph-name="Uacute" unicode="&#xda;" horiz-adv-x="690" 
d="M547 693h59v-441q0 -131 -67 -200t-194 -69t-194 69t-67 200v441h59v-452q0 -98 52 -150.5t150 -52.5t150 52.5t52 150.5v452zM316 769l92 117h88l-122 -117h-58z" />
    <glyph glyph-name="Ucircumflex" unicode="&#xdb;" horiz-adv-x="690" 
d="M547 693h59v-441q0 -131 -67 -200t-194 -69t-194 69t-67 200v441h59v-452q0 -98 52 -150.5t150 -52.5t150 52.5t52 150.5v452zM441 769l-96 87l-96 -87h-71l136 129h62l136 -129h-71z" />
    <glyph glyph-name="Udieresis" unicode="&#xdc;" horiz-adv-x="690" 
d="M547 693h59v-441q0 -131 -67 -200t-194 -69t-194 69t-67 200v441h59v-452q0 -98 52 -150.5t150 -52.5t150 52.5t52 150.5v452zM246 785q-20 0 -32 12.5t-12 32.5t12 32.5t32 12.5t32 -12.5t12 -32.5t-12 -32.5t-32 -12.5zM444 785q-20 0 -32 12.5t-12 32.5t12 32.5
t32 12.5t32 -12.5t12 -32.5t-12 -32.5t-32 -12.5z" />
    <glyph glyph-name="Yacute" unicode="&#xdd;" horiz-adv-x="581" 
d="M259 0v251l-241 442h67l205 -386l209 386h64l-245 -444v-249h-59zM263 769l92 117h88l-122 -117h-58z" />
    <glyph glyph-name="Thorn" unicode="&#xde;" horiz-adv-x="579" 
d="M145 152v-152h-57v693h57v-134h178q95 0 151.5 -55t56.5 -149q0 -93 -56.5 -148t-151.5 -55h-178zM145 205h176q148 0 148 150q0 151 -148 151h-176v-301z" />
    <glyph glyph-name="germandbls" unicode="&#xdf;" horiz-adv-x="580" 
d="M297 754q81 0 130.5 -42t49.5 -111q0 -41 -18 -72.5t-62 -66.5q-34 -27 -47 -46t-13 -42q0 -15 7.5 -25t24.5 -22t51 -31l29 -16q56 -31 80.5 -64t24.5 -79q0 -69 -50 -110.5t-133 -41.5q-69 0 -124 28v47q73 -24 125 -24q61 0 94 25.5t33 71.5q0 33 -18 55.5t-63 46.5
l-37 20q-56 31 -77.5 56t-21.5 61q0 33 16.5 59t61.5 65q34 30 48 53.5t14 51.5q0 47 -34.5 74.5t-93.5 27.5q-78 0 -118.5 -50.5t-40.5 -147.5v-505h-57v503q0 119 58 185t161 66z" />
    <glyph glyph-name="agrave" unicode="&#xe0;" horiz-adv-x="508" 
d="M381 0l-5 58q-86 -69 -180 -69q-69 0 -109.5 39.5t-40.5 105.5q0 73 50 115t136 42q67 0 143 -23v84q0 61 -29 87.5t-96 26.5q-80 0 -171 -32v47q38 17 86 27t94 10q88 0 130.5 -37t42.5 -112v-369h-51zM204 41q38 0 82 15.5t89 43.5v125q-67 18 -130 18
q-140 0 -140 -108q0 -46 25 -70t74 -24zM223 602l-120 152h81l87 -152h-48z" />
    <glyph glyph-name="aacute" unicode="&#xe1;" horiz-adv-x="508" 
d="M381 0l-5 58q-86 -69 -180 -69q-69 0 -109.5 39.5t-40.5 105.5q0 73 50 115t136 42q67 0 143 -23v84q0 61 -29 87.5t-96 26.5q-80 0 -171 -32v47q38 17 86 27t94 10q88 0 130.5 -37t42.5 -112v-369h-51zM204 41q38 0 82 15.5t89 43.5v125q-67 18 -130 18
q-140 0 -140 -108q0 -46 25 -70t74 -24zM223 602l87 152h81l-120 -152h-48z" />
    <glyph glyph-name="acircumflex" unicode="&#xe2;" horiz-adv-x="508" 
d="M381 0l-5 58q-86 -69 -180 -69q-69 0 -109.5 39.5t-40.5 105.5q0 73 50 115t136 42q67 0 143 -23v84q0 61 -29 87.5t-96 26.5q-80 0 -171 -32v47q38 17 86 27t94 10q88 0 130.5 -37t42.5 -112v-369h-51zM204 41q38 0 82 15.5t89 43.5v125q-67 18 -130 18
q-140 0 -140 -108q0 -46 25 -70t74 -24zM351 602l-104 109l-104 -109h-59l132 152h62l132 -152h-59z" />
    <glyph glyph-name="atilde" unicode="&#xe3;" horiz-adv-x="508" 
d="M381 0l-5 58q-86 -69 -180 -69q-69 0 -109.5 39.5t-40.5 105.5q0 73 50 115t136 42q67 0 143 -23v84q0 61 -29 87.5t-96 26.5q-80 0 -171 -32v47q38 17 86 27t94 10q88 0 130.5 -37t42.5 -112v-369h-51zM204 41q38 0 82 15.5t89 43.5v125q-67 18 -130 18
q-140 0 -140 -108q0 -46 25 -70t74 -24zM319 656q34 0 37 48l1 19h43q3 -10 3 -24q0 -42 -23 -65t-63 -23q-43 0 -79 35q-20 19 -34 27t-28 8q-34 0 -37 -48l-1 -19h-43q-3 11 -3 24q0 42 23 65t63 23q43 0 79 -35q20 -19 34 -27t28 -8z" />
    <glyph glyph-name="adieresis" unicode="&#xe4;" horiz-adv-x="508" 
d="M381 0l-5 58q-86 -69 -180 -69q-69 0 -109.5 39.5t-40.5 105.5q0 73 50 115t136 42q67 0 143 -23v84q0 61 -29 87.5t-96 26.5q-80 0 -171 -32v47q38 17 86 27t94 10q88 0 130.5 -37t42.5 -112v-369h-51zM204 41q38 0 82 15.5t89 43.5v125q-67 18 -130 18
q-140 0 -140 -108q0 -46 25 -70t74 -24zM146 607q-19 0 -30.5 11.5t-11.5 31.5q0 21 11.5 32.5t30.5 11.5t30.5 -11.5t11.5 -31.5q0 -21 -11.5 -32.5t-30.5 -11.5zM348 607q-19 0 -30.5 11.5t-11.5 31.5q0 21 11.5 32.5t30.5 11.5t30.5 -11.5t11.5 -31.5q0 -21 -11.5 -32.5
t-30.5 -11.5z" />
    <glyph glyph-name="aring" unicode="&#xe5;" horiz-adv-x="508" 
d="M381 0l-5 58q-86 -69 -180 -69q-69 0 -109.5 39.5t-40.5 105.5q0 73 50 115t136 42q67 0 143 -23v84q0 61 -29 87.5t-96 26.5q-80 0 -171 -32v47q38 17 86 27t94 10q88 0 130.5 -37t42.5 -112v-369h-51zM204 41q38 0 82 15.5t89 43.5v125q-67 18 -130 18
q-140 0 -140 -108q0 -46 25 -70t74 -24zM247 584q-47 0 -76.5 27t-29.5 72t29.5 72t76.5 27t76.5 -27t29.5 -72t-29.5 -72t-76.5 -27zM247 624q28 0 43 15.5t15 43.5t-15 43.5t-43 15.5t-43 -15.5t-15 -43.5t15 -43.5t43 -15.5z" />
    <glyph glyph-name="ae" unicode="&#xe6;" horiz-adv-x="838" 
d="M255 518q137 0 163 -98q58 98 186 98q90 0 138 -52.5t48 -149.5q0 -42 -7 -77h-348q1 -105 44.5 -153.5t137.5 -48.5q86 0 163 35v-47q-69 -40 -167 -40q-144 0 -200 98q-101 -94 -214 -94q-70 0 -111.5 40t-41.5 107q0 75 51.5 117.5t143.5 42.5q57 0 136 -7v59
q0 62 -31 90t-98 28q-76 0 -169 -32v47q82 37 176 37zM207 41q88 0 188 79q-19 54 -19 122q-64 6 -122 6q-76 0 -112.5 -27.5t-36.5 -83.5q0 -47 26 -71.5t76 -24.5zM599 467q-77 0 -118.5 -46t-45.5 -136h298q2 19 2 35q0 72 -34.5 109.5t-101.5 37.5z" />
    <glyph glyph-name="ccedilla" unicode="&#xe7;" horiz-adv-x="451" 
d="M413 17q-62 -28 -125 -28q-116 0 -176 66.5t-60 195.5q0 128 61 195.5t177 67.5q62 0 117 -24v-47q-55 18 -114 18q-95 0 -137.5 -48.5t-42.5 -155.5v-12q0 -104 43 -153.5t135 -49.5q55 0 122 22v-47zM266 -66q39 0 62.5 -18.5t23.5 -49.5q0 -37 -29 -74t-83 -66l-31 26
q43 28 66 56.5t23 50.5q0 30 -44 30q-20 0 -41 -3v40q27 8 53 8z" />
    <glyph glyph-name="egrave" unicode="&#xe8;" horiz-adv-x="518" 
d="M110 242q1 -105 46 -155t139 -50q86 0 165 35v-47q-71 -40 -169 -40q-119 0 -179 67.5t-60 200.5q0 126 60.5 195.5t169.5 69.5q91 0 139.5 -52t48.5 -149q0 -45 -6 -75h-354zM277 467q-158 0 -167 -179h304q1 14 1 33q0 72 -35 109t-103 37zM252 602l-120 152h81
l87 -152h-48z" />
    <glyph glyph-name="eacute" unicode="&#xe9;" horiz-adv-x="518" 
d="M110 242q1 -105 46 -155t139 -50q86 0 165 35v-47q-71 -40 -169 -40q-119 0 -179 67.5t-60 200.5q0 126 60.5 195.5t169.5 69.5q91 0 139.5 -52t48.5 -149q0 -45 -6 -75h-354zM277 467q-158 0 -167 -179h304q1 14 1 33q0 72 -35 109t-103 37zM252 602l87 152h81
l-120 -152h-48z" />
    <glyph glyph-name="ecircumflex" unicode="&#xea;" horiz-adv-x="518" 
d="M110 242q1 -105 46 -155t139 -50q86 0 165 35v-47q-71 -40 -169 -40q-119 0 -179 67.5t-60 200.5q0 126 60.5 195.5t169.5 69.5q91 0 139.5 -52t48.5 -149q0 -45 -6 -75h-354zM277 467q-158 0 -167 -179h304q1 14 1 33q0 72 -35 109t-103 37zM380 602l-104 109l-104 -109
h-59l132 152h62l132 -152h-59z" />
    <glyph glyph-name="edieresis" unicode="&#xeb;" horiz-adv-x="518" 
d="M110 242q1 -105 46 -155t139 -50q86 0 165 35v-47q-71 -40 -169 -40q-119 0 -179 67.5t-60 200.5q0 126 60.5 195.5t169.5 69.5q91 0 139.5 -52t48.5 -149q0 -45 -6 -75h-354zM277 467q-158 0 -167 -179h304q1 14 1 33q0 72 -35 109t-103 37zM175 607q-19 0 -30.5 11.5
t-11.5 31.5q0 21 11.5 32.5t30.5 11.5t30.5 -11.5t11.5 -31.5q0 -21 -11.5 -32.5t-30.5 -11.5zM377 607q-19 0 -30.5 11.5t-11.5 31.5q0 21 11.5 32.5t30.5 11.5t30.5 -11.5t11.5 -31.5q0 -21 -11.5 -32.5t-30.5 -11.5z" />
    <glyph glyph-name="igrave" unicode="&#xec;" horiz-adv-x="221" 
d="M82 0v503h57v-503h-57zM86 602l-120 152h81l87 -152h-48z" />
    <glyph glyph-name="iacute" unicode="&#xed;" horiz-adv-x="221" 
d="M82 0v503h57v-503h-57zM86 602l87 152h81l-120 -152h-48z" />
    <glyph glyph-name="icircumflex" unicode="&#xee;" horiz-adv-x="221" 
d="M82 0v503h57v-503h-57zM214 602l-104 109l-104 -109h-59l132 152h62l132 -152h-59z" />
    <glyph glyph-name="idieresis" unicode="&#xef;" horiz-adv-x="221" 
d="M82 0v503h57v-503h-57zM9 607q-19 0 -30.5 11.5t-11.5 31.5q0 21 11.5 32.5t30.5 11.5t30.5 -11.5t11.5 -31.5q0 -21 -11.5 -32.5t-30.5 -11.5zM211 607q-19 0 -30.5 11.5t-11.5 31.5q0 21 11.5 32.5t30.5 11.5t30.5 -11.5t11.5 -31.5q0 -21 -11.5 -32.5t-30.5 -11.5z
" />
    <glyph glyph-name="eth" unicode="&#xf0;" horiz-adv-x="554" 
d="M175 568l89 82q-62 33 -127 45v51q91 -16 165 -61l95 88l29 -34l-87 -80q80 -63 121.5 -160.5t41.5 -224.5q0 -143 -56.5 -216t-166.5 -73q-107 0 -167 66t-60 182q0 115 58.5 180.5t160.5 65.5q121 0 175 -93q-36 166 -142 241l-100 -92zM275 35q83 0 127.5 51.5
t44.5 146.5t-45.5 146.5t-127.5 51.5q-81 0 -122.5 -49.5t-41.5 -147.5t41.5 -148.5t123.5 -50.5z" />
    <glyph glyph-name="ntilde" unicode="&#xf1;" horiz-adv-x="568" 
d="M435 0v342q0 65 -25 94.5t-80 29.5q-100 0 -195 -64v-402h-57v503h50l6 -58q49 35 103 54t105 19q73 0 111.5 -38.5t38.5 -113.5v-366h-57zM369 656q34 0 37 48l1 19h43q3 -10 3 -24q0 -42 -23 -65t-63 -23q-43 0 -79 35q-20 19 -34 27t-28 8q-34 0 -37 -48l-1 -19h-43
q-3 11 -3 24q0 42 23 65t63 23q43 0 79 -35q20 -19 34 -27t28 -8z" />
    <glyph glyph-name="ograve" unicode="&#xf2;" horiz-adv-x="568" 
d="M284 -15q-110 0 -171 70.5t-61 196.5t61 196t171 70t171 -70t61 -196t-61 -196.5t-171 -70.5zM284 37q173 0 173 215q0 214 -173 214t-173 -214q0 -215 173 -215zM260 602l-120 152h81l87 -152h-48z" />
    <glyph glyph-name="oacute" unicode="&#xf3;" horiz-adv-x="568" 
d="M284 -15q-110 0 -171 70.5t-61 196.5t61 196t171 70t171 -70t61 -196t-61 -196.5t-171 -70.5zM284 37q173 0 173 215q0 214 -173 214t-173 -214q0 -215 173 -215zM260 602l87 152h81l-120 -152h-48z" />
    <glyph glyph-name="ocircumflex" unicode="&#xf4;" horiz-adv-x="568" 
d="M284 -15q-110 0 -171 70.5t-61 196.5t61 196t171 70t171 -70t61 -196t-61 -196.5t-171 -70.5zM284 37q173 0 173 215q0 214 -173 214t-173 -214q0 -215 173 -215zM388 602l-104 109l-104 -109h-59l132 152h62l132 -152h-59z" />
    <glyph glyph-name="otilde" unicode="&#xf5;" horiz-adv-x="568" 
d="M284 -15q-110 0 -171 70.5t-61 196.5t61 196t171 70t171 -70t61 -196t-61 -196.5t-171 -70.5zM284 37q173 0 173 215q0 214 -173 214t-173 -214q0 -215 173 -215zM356 656q34 0 37 48l1 19h43q3 -10 3 -24q0 -42 -23 -65t-63 -23q-43 0 -79 35q-20 19 -34 27t-28 8
q-34 0 -37 -48l-1 -19h-43q-3 11 -3 24q0 42 23 65t63 23q43 0 79 -35q20 -19 34 -27t28 -8z" />
    <glyph glyph-name="odieresis" unicode="&#xf6;" horiz-adv-x="568" 
d="M284 -15q-110 0 -171 70.5t-61 196.5t61 196t171 70t171 -70t61 -196t-61 -196.5t-171 -70.5zM284 37q173 0 173 215q0 214 -173 214t-173 -214q0 -215 173 -215zM183 607q-19 0 -30.5 11.5t-11.5 31.5q0 21 11.5 32.5t30.5 11.5t30.5 -11.5t11.5 -31.5
q0 -21 -11.5 -32.5t-30.5 -11.5zM385 607q-19 0 -30.5 11.5t-11.5 31.5q0 21 11.5 32.5t30.5 11.5t30.5 -11.5t11.5 -31.5q0 -21 -11.5 -32.5t-30.5 -11.5z" />
    <glyph glyph-name="divide" unicode="&#xf7;" 
d="M293 134q-19 0 -30.5 12t-11.5 31q0 20 12 32t30 12q19 0 30.5 -12t11.5 -32q0 -19 -11.5 -31t-30.5 -12zM74 325v50h438v-50h-438zM293 479q-19 0 -30.5 12t-11.5 31q0 20 12 32t30 12q19 0 30.5 -12t11.5 -32q0 -19 -11.5 -31t-30.5 -12z" />
    <glyph glyph-name="oslash" unicode="&#xf8;" horiz-adv-x="568" 
d="M55 3l50 62q-53 68 -53 187q0 126 61 196t171 70q88 0 145 -46l47 58l37 -30l-50 -63q53 -70 53 -185q0 -126 -61 -196.5t-171 -70.5q-88 0 -146 46l-46 -58zM284 37q173 0 173 215q0 89 -30 140l-256 -319q42 -36 113 -36zM111 252q0 -89 30 -142l255 320
q-42 36 -112 36q-173 0 -173 -214z" />
    <glyph glyph-name="ugrave" unicode="&#xf9;" horiz-adv-x="554" 
d="M426 0l-6 55q-95 -70 -197 -70q-72 0 -110.5 39t-38.5 114v365h57v-341q0 -66 25 -95.5t79 -29.5q49 0 92 15t92 49v402h57v-503h-50zM251 602l-120 152h81l87 -152h-48z" />
    <glyph glyph-name="uacute" unicode="&#xfa;" horiz-adv-x="554" 
d="M426 0l-6 55q-95 -70 -197 -70q-72 0 -110.5 39t-38.5 114v365h57v-341q0 -66 25 -95.5t79 -29.5q49 0 92 15t92 49v402h57v-503h-50zM251 602l87 152h81l-120 -152h-48z" />
    <glyph glyph-name="ucircumflex" unicode="&#xfb;" horiz-adv-x="554" 
d="M426 0l-6 55q-95 -70 -197 -70q-72 0 -110.5 39t-38.5 114v365h57v-341q0 -66 25 -95.5t79 -29.5q49 0 92 15t92 49v402h57v-503h-50zM379 602l-104 109l-104 -109h-59l132 152h62l132 -152h-59z" />
    <glyph glyph-name="udieresis" unicode="&#xfc;" horiz-adv-x="554" 
d="M426 0l-6 55q-95 -70 -197 -70q-72 0 -110.5 39t-38.5 114v365h57v-341q0 -66 25 -95.5t79 -29.5q49 0 92 15t92 49v402h57v-503h-50zM174 607q-19 0 -30.5 11.5t-11.5 31.5q0 21 11.5 32.5t30.5 11.5t30.5 -11.5t11.5 -31.5q0 -21 -11.5 -32.5t-30.5 -11.5zM376 607
q-19 0 -30.5 11.5t-11.5 31.5q0 21 11.5 32.5t30.5 11.5t30.5 -11.5t11.5 -31.5q0 -21 -11.5 -32.5t-30.5 -11.5z" />
    <glyph glyph-name="yacute" unicode="&#xfd;" horiz-adv-x="486" 
d="M216 -5l-206 508h62l171 -443l173 443h60l-245 -609q-24 -61 -55 -86.5t-80 -25.5q-34 0 -61 12v45q26 -6 57 -6q33 0 52.5 17t37.5 61zM220 602l87 152h81l-120 -152h-48z" />
    <glyph glyph-name="thorn" unicode="&#xfe;" horiz-adv-x="573" 
d="M303 -11q-92 0 -168 68v-263h-57v946h57v-292q45 36 88 53t89 17q97 0 153 -69.5t56 -190.5q0 -123 -59 -196t-159 -73zM301 466q-83 0 -166 -64v-293q41 -35 80 -51.5t82 -16.5q82 0 123.5 53.5t41.5 159.5q0 212 -161 212z" />
    <glyph glyph-name="ydieresis" unicode="&#xff;" horiz-adv-x="486" 
d="M216 -5l-206 508h62l171 -443l173 443h60l-245 -609q-24 -61 -55 -86.5t-80 -25.5q-34 0 -61 12v45q26 -6 57 -6q33 0 52.5 17t37.5 61zM143 607q-19 0 -30.5 11.5t-11.5 31.5q0 21 11.5 32.5t30.5 11.5t30.5 -11.5t11.5 -31.5q0 -21 -11.5 -32.5t-30.5 -11.5zM345 607
q-19 0 -30.5 11.5t-11.5 31.5q0 21 11.5 32.5t30.5 11.5t30.5 -11.5t11.5 -31.5q0 -21 -11.5 -32.5t-30.5 -11.5z" />
    <glyph glyph-name="Amacron" unicode="&#x100;" horiz-adv-x="623" 
d="M548 0l-78 208h-320l-78 -208h-58l266 693h63l266 -693h-61zM169 257h283l-142 374zM157 805v51h306v-51h-306z" />
    <glyph glyph-name="amacron" unicode="&#x101;" horiz-adv-x="508" 
d="M381 0l-5 58q-86 -69 -180 -69q-69 0 -109.5 39.5t-40.5 105.5q0 73 50 115t136 42q67 0 143 -23v84q0 61 -29 87.5t-96 26.5q-80 0 -171 -32v47q38 17 86 27t94 10q88 0 130.5 -37t42.5 -112v-369h-51zM204 41q38 0 82 15.5t89 43.5v125q-67 18 -130 18
q-140 0 -140 -108q0 -46 25 -70t74 -24zM94 646v47h306v-47h-306z" />
    <glyph glyph-name="Abreve" unicode="&#x102;" horiz-adv-x="623" 
d="M548 0l-78 208h-320l-78 -208h-58l266 693h63l266 -693h-61zM169 257h283l-142 374zM310 767q-61 0 -97.5 29.5t-36.5 75.5q0 5 0.5 9.5t2.5 8.5h47l1 -9q6 -64 83 -64t83 64l1 9h47q2 -4 2.5 -8.5t0.5 -9.5q0 -46 -36.5 -75.5t-97.5 -29.5z" />
    <glyph glyph-name="abreve" unicode="&#x103;" horiz-adv-x="508" 
d="M381 0l-5 58q-86 -69 -180 -69q-69 0 -109.5 39.5t-40.5 105.5q0 73 50 115t136 42q67 0 143 -23v84q0 61 -29 87.5t-96 26.5q-80 0 -171 -32v47q38 17 86 27t94 10q88 0 130.5 -37t42.5 -112v-369h-51zM204 41q38 0 82 15.5t89 43.5v125q-67 18 -130 18
q-140 0 -140 -108q0 -46 25 -70t74 -24zM247 600q-62 0 -98 31t-36 83q0 16 3 26h46l2 -23q6 -69 83 -69t83 69l2 23h46q3 -10 3 -26q0 -52 -36 -83t-98 -31z" />
    <glyph glyph-name="Aogonek" unicode="&#x104;" horiz-adv-x="623" 
d="M609 0q-42 -32 -64.5 -66t-22.5 -64q0 -21 13.5 -31t43.5 -10q20 0 42 5v-42q-26 -10 -57 -10q-47 0 -72.5 21t-25.5 60q0 36 22 72t62 65h-2l-78 208h-320l-78 -208h-58l266 693h63zM169 257h283l-142 374z" />
    <glyph glyph-name="aogonek" unicode="&#x105;" horiz-adv-x="508" 
d="M432 0q-42 -32 -64.5 -66t-22.5 -64q0 -43 59 -43q20 0 42 5v-40q-26 -10 -57 -10q-47 0 -72.5 21t-25.5 60q0 38 23.5 75.5t65.5 65.5l-4 54q-86 -69 -180 -69q-69 0 -109.5 39.5t-40.5 105.5q0 73 50 115t136 42q67 0 143 -23v84q0 61 -29 87.5t-96 26.5
q-80 0 -171 -32v47q38 17 86 27t94 10q88 0 130.5 -37t42.5 -112v-369zM204 41q38 0 82 15.5t89 43.5v125q-67 18 -130 18q-140 0 -140 -108q0 -46 25 -70t74 -24z" />
    <glyph glyph-name="Cacute" unicode="&#x106;" horiz-adv-x="597" 
d="M561 19q-77 -30 -169 -30q-160 0 -242 90t-82 265q0 174 85 265.5t244 91.5q86 0 154 -27v-52q-85 22 -147 22q-137 0 -204.5 -71.5t-67.5 -215.5v-25q0 -286 265 -286q68 0 164 25v-52zM349 769l92 117h88l-122 -117h-58z" />
    <glyph glyph-name="cacute" unicode="&#x107;" horiz-adv-x="451" 
d="M413 17q-62 -28 -125 -28q-116 0 -176 66.5t-60 195.5q0 128 61 195.5t177 67.5q62 0 117 -24v-47q-55 18 -114 18q-95 0 -137.5 -48.5t-42.5 -155.5v-12q0 -104 43 -153.5t135 -49.5q55 0 122 22v-47zM244 602l87 152h81l-120 -152h-48z" />
    <glyph glyph-name="Ccircumflex" unicode="&#x108;" horiz-adv-x="597" 
d="M561 19q-77 -30 -169 -30q-160 0 -242 90t-82 265q0 174 85 265.5t244 91.5q86 0 154 -27v-52q-85 22 -147 22q-137 0 -204.5 -71.5t-67.5 -215.5v-25q0 -286 265 -286q68 0 164 25v-52zM474 769l-96 87l-96 -87h-71l136 129h62l136 -129h-71z" />
    <glyph glyph-name="ccircumflex" unicode="&#x109;" horiz-adv-x="451" 
d="M413 17q-62 -28 -125 -28q-116 0 -176 66.5t-60 195.5q0 128 61 195.5t177 67.5q62 0 117 -24v-47q-55 18 -114 18q-95 0 -137.5 -48.5t-42.5 -155.5v-12q0 -104 43 -153.5t135 -49.5q55 0 122 22v-47zM372 602l-104 109l-104 -109h-59l132 152h62l132 -152h-59z" />
    <glyph glyph-name="Cdotaccent" unicode="&#x10a;" horiz-adv-x="597" 
d="M561 19q-77 -30 -169 -30q-160 0 -242 90t-82 265q0 174 85 265.5t244 91.5q86 0 154 -27v-52q-85 22 -147 22q-137 0 -204.5 -71.5t-67.5 -215.5v-25q0 -286 265 -286q68 0 164 25v-52zM378 785q-20 0 -32 12t-12 33t12 33t32 12t32 -12t12 -33t-12 -33t-32 -12z" />
    <glyph glyph-name="cdotaccent" unicode="&#x10b;" horiz-adv-x="451" 
d="M413 17q-62 -28 -125 -28q-116 0 -176 66.5t-60 195.5q0 128 61 195.5t177 67.5q62 0 117 -24v-47q-55 18 -114 18q-95 0 -137.5 -48.5t-42.5 -155.5v-12q0 -104 43 -153.5t135 -49.5q55 0 122 22v-47zM268 611q-20 0 -31.5 12t-11.5 32t11.5 32t31.5 12t31.5 -12
t11.5 -32t-11.5 -32t-31.5 -12z" />
    <glyph glyph-name="Ccaron" unicode="&#x10c;" horiz-adv-x="597" 
d="M561 19q-77 -30 -169 -30q-160 0 -242 90t-82 265q0 174 85 265.5t244 91.5q86 0 154 -27v-52q-85 22 -147 22q-137 0 -204.5 -71.5t-67.5 -215.5v-25q0 -286 265 -286q68 0 164 25v-52zM348 769l-137 129h78l89 -96l89 96h78l-137 -129h-60z" />
    <glyph glyph-name="ccaron" unicode="&#x10d;" horiz-adv-x="451" 
d="M413 17q-62 -28 -125 -28q-116 0 -176 66.5t-60 195.5q0 128 61 195.5t177 67.5q62 0 117 -24v-47q-55 18 -114 18q-95 0 -137.5 -48.5t-42.5 -155.5v-12q0 -104 43 -153.5t135 -49.5q55 0 122 22v-47zM238 602l-133 152h70l93 -118l93 118h70l-133 -152h-60z" />
    <glyph glyph-name="Dcaron" unicode="&#x10e;" horiz-adv-x="672" 
d="M88 0v693h209q151 0 229 -88.5t78 -258.5q0 -169 -81 -257.5t-234 -88.5h-201zM147 644v-595h135q129 0 194.5 71.5t65.5 213.5v25q0 285 -259 285h-136zM275 769l-137 129h78l89 -96l89 96h78l-137 -129h-60z" />
    <glyph glyph-name="dcaron" unicode="&#x10f;" horiz-adv-x="631" 
d="M442 0l-6 56q-37 -31 -82.5 -49t-87.5 -18q-99 0 -156.5 69.5t-57.5 190.5q0 124 58 196.5t158 72.5q93 0 168 -66v288h57v-740h-51zM279 41q75 0 157 64v296q-42 34 -80.5 49.5t-81.5 15.5q-80 0 -121.5 -54t-41.5 -160q0 -211 168 -211zM574 553v192q16 7 32 7
q20 0 33 -10l-25 -189h-40z" />
    <glyph glyph-name="Dcroat" unicode="&#x110;" horiz-adv-x="682" 
d="M98 0v331h-80v51h80v311h209q151 0 229 -88.5t78 -258.5q0 -169 -81 -257.5t-234 -88.5h-201zM157 331v-282h135q129 0 194.5 71.5t65.5 213.5v25q0 285 -259 285h-136v-262h173v-51h-173z" />
    <glyph glyph-name="dcroat" unicode="&#x111;" horiz-adv-x="571" 
d="M442 0l-6 56q-37 -31 -82.5 -49t-87.5 -18q-99 0 -156.5 69.5t-57.5 190.5q0 124 58 196.5t158 72.5q93 0 168 -66v151h-190v48h190v89h57v-89h74v-48h-74v-603h-51zM279 41q75 0 157 64v296q-42 34 -80.5 49.5t-81.5 15.5q-80 0 -121.5 -54t-41.5 -160q0 -211 168 -211z
" />
    <glyph glyph-name="Emacron" unicode="&#x112;" horiz-adv-x="547" 
d="M88 0v693h409v-53h-350v-255h300v-53h-300v-279h350v-53h-409zM139 805v51h306v-51h-306z" />
    <glyph glyph-name="emacron" unicode="&#x113;" horiz-adv-x="518" 
d="M110 242q1 -105 46 -155t139 -50q86 0 165 35v-47q-71 -40 -169 -40q-119 0 -179 67.5t-60 200.5q0 126 60.5 195.5t169.5 69.5q91 0 139.5 -52t48.5 -149q0 -45 -6 -75h-354zM277 467q-158 0 -167 -179h304q1 14 1 33q0 72 -35 109t-103 37zM123 646v47h306v-47h-306z
" />
    <glyph glyph-name="Ebreve" unicode="&#x114;" horiz-adv-x="547" 
d="M88 0v693h409v-53h-350v-255h300v-53h-300v-279h350v-53h-409zM292 767q-61 0 -97.5 29.5t-36.5 75.5q0 5 0.5 9.5t2.5 8.5h47l1 -9q6 -64 83 -64t83 64l1 9h47q2 -4 2.5 -8.5t0.5 -9.5q0 -46 -36.5 -75.5t-97.5 -29.5z" />
    <glyph glyph-name="ebreve" unicode="&#x115;" horiz-adv-x="518" 
d="M110 242q1 -105 46 -155t139 -50q86 0 165 35v-47q-71 -40 -169 -40q-119 0 -179 67.5t-60 200.5q0 126 60.5 195.5t169.5 69.5q91 0 139.5 -52t48.5 -149q0 -45 -6 -75h-354zM277 467q-158 0 -167 -179h304q1 14 1 33q0 72 -35 109t-103 37zM276 600q-62 0 -98 31
t-36 83q0 16 3 26h46l2 -23q6 -69 83 -69t83 69l2 23h46q3 -10 3 -26q0 -52 -36 -83t-98 -31z" />
    <glyph glyph-name="Edotaccent" unicode="&#x116;" horiz-adv-x="547" 
d="M88 0v693h409v-53h-350v-255h300v-53h-300v-279h350v-53h-409zM292 785q-20 0 -32 12t-12 33t12 33t32 12t32 -12t12 -33t-12 -33t-32 -12z" />
    <glyph glyph-name="edotaccent" unicode="&#x117;" horiz-adv-x="518" 
d="M110 242q1 -105 46 -155t139 -50q86 0 165 35v-47q-71 -40 -169 -40q-119 0 -179 67.5t-60 200.5q0 126 60.5 195.5t169.5 69.5q91 0 139.5 -52t48.5 -149q0 -45 -6 -75h-354zM277 467q-158 0 -167 -179h304q1 14 1 33q0 72 -35 109t-103 37zM276 611q-20 0 -31.5 12
t-11.5 32t11.5 32t31.5 12t31.5 -12t11.5 -32t-11.5 -32t-31.5 -12z" />
    <glyph glyph-name="Eogonek" unicode="&#x118;" horiz-adv-x="547" 
d="M497 0q-42 -32 -64.5 -66t-22.5 -64q0 -21 13.5 -31t43.5 -10q20 0 42 5v-42q-26 -10 -57 -10q-47 0 -72.5 21t-25.5 60q0 36 22 72t62 65h-350v693h409v-53h-350v-255h300v-53h-300v-279h350v-53z" />
    <glyph glyph-name="eogonek" unicode="&#x119;" horiz-adv-x="518" 
d="M418 -208q-26 -10 -57 -10q-48 0 -73 22t-25 63q0 32 21.5 64.5t59.5 57.5q-24 -4 -53 -4q-119 0 -179 67.5t-60 200.5q0 126 60.5 195.5t169.5 69.5q91 0 139.5 -52t48.5 -149q0 -45 -6 -75h-354q1 -105 46 -155t139 -50q86 0 165 35v-47q-69 -32 -106 -71t-37 -78
q0 -26 14 -37.5t45 -11.5q20 0 42 5v-40zM277 467q-158 0 -167 -179h304q1 14 1 33q0 72 -35 109t-103 37z" />
    <glyph glyph-name="Ecaron" unicode="&#x11a;" horiz-adv-x="547" 
d="M88 0v693h409v-53h-350v-255h300v-53h-300v-279h350v-53h-409zM262 769l-137 129h78l89 -96l89 96h78l-137 -129h-60z" />
    <glyph glyph-name="ecaron" unicode="&#x11b;" horiz-adv-x="518" 
d="M110 242q1 -105 46 -155t139 -50q86 0 165 35v-47q-71 -40 -169 -40q-119 0 -179 67.5t-60 200.5q0 126 60.5 195.5t169.5 69.5q91 0 139.5 -52t48.5 -149q0 -45 -6 -75h-354zM277 467q-158 0 -167 -179h304q1 14 1 33q0 72 -35 109t-103 37zM246 602l-133 152h70
l93 -118l93 118h70l-133 -152h-60z" />
    <glyph glyph-name="Gcircumflex" unicode="&#x11c;" horiz-adv-x="676" 
d="M409 44q76 0 134 18v232h-178v53h237v-315q-88 -43 -203 -43q-331 0 -331 355q0 174 84 265.5t243 91.5q95 0 184 -39v-51q-56 19 -96.5 27t-82.5 8q-138 0 -204 -70t-66 -219v-25q0 -147 68.5 -217.5t210.5 -70.5zM476 769l-96 87l-96 -87h-71l136 129h62l136 -129h-71z
" />
    <glyph glyph-name="gcircumflex" unicode="&#x11d;" horiz-adv-x="567" 
d="M432 74q-37 -31 -82 -49t-86 -18q-96 0 -154 68.5t-58 181.5q0 121 57.5 191t156.5 70q94 0 167 -67l6 52h50v-480q0 -118 -60 -179.5t-174 -61.5q-95 0 -163 38v47q84 -33 160 -33q93 0 136.5 46t43.5 145v49zM277 59q75 0 155 64v278q-41 34 -79 49.5t-81 15.5
q-80 0 -120.5 -52t-40.5 -154q0 -98 42.5 -149.5t123.5 -51.5zM384 602l-104 109l-104 -109h-59l132 152h62l132 -152h-59z" />
    <glyph glyph-name="Gbreve" unicode="&#x11e;" horiz-adv-x="676" 
d="M409 44q76 0 134 18v232h-178v53h237v-315q-88 -43 -203 -43q-331 0 -331 355q0 174 84 265.5t243 91.5q95 0 184 -39v-51q-56 19 -96.5 27t-82.5 8q-138 0 -204 -70t-66 -219v-25q0 -147 68.5 -217.5t210.5 -70.5zM380 767q-61 0 -97.5 29.5t-36.5 75.5q0 5 0.5 9.5
t2.5 8.5h47l1 -9q6 -64 83 -64t83 64l1 9h47q2 -4 2.5 -8.5t0.5 -9.5q0 -46 -36.5 -75.5t-97.5 -29.5z" />
    <glyph glyph-name="gbreve" unicode="&#x11f;" horiz-adv-x="567" 
d="M432 74q-37 -31 -82 -49t-86 -18q-96 0 -154 68.5t-58 181.5q0 121 57.5 191t156.5 70q94 0 167 -67l6 52h50v-480q0 -118 -60 -179.5t-174 -61.5q-95 0 -163 38v47q84 -33 160 -33q93 0 136.5 46t43.5 145v49zM277 59q75 0 155 64v278q-41 34 -79 49.5t-81 15.5
q-80 0 -120.5 -52t-40.5 -154q0 -98 42.5 -149.5t123.5 -51.5zM280 600q-62 0 -98 31t-36 83q0 16 3 26h46l2 -23q6 -69 83 -69t83 69l2 23h46q3 -10 3 -26q0 -52 -36 -83t-98 -31z" />
    <glyph glyph-name="Gdotaccent" unicode="&#x120;" horiz-adv-x="676" 
d="M409 44q76 0 134 18v232h-178v53h237v-315q-88 -43 -203 -43q-331 0 -331 355q0 174 84 265.5t243 91.5q95 0 184 -39v-51q-56 19 -96.5 27t-82.5 8q-138 0 -204 -70t-66 -219v-25q0 -147 68.5 -217.5t210.5 -70.5zM380 785q-20 0 -32 12t-12 33t12 33t32 12t32 -12
t12 -33t-12 -33t-32 -12z" />
    <glyph glyph-name="gdotaccent" unicode="&#x121;" horiz-adv-x="567" 
d="M432 74q-37 -31 -82 -49t-86 -18q-96 0 -154 68.5t-58 181.5q0 121 57.5 191t156.5 70q94 0 167 -67l6 52h50v-480q0 -118 -60 -179.5t-174 -61.5q-95 0 -163 38v47q84 -33 160 -33q93 0 136.5 46t43.5 145v49zM277 59q75 0 155 64v278q-41 34 -79 49.5t-81 15.5
q-80 0 -120.5 -52t-40.5 -154q0 -98 42.5 -149.5t123.5 -51.5zM280 611q-20 0 -31.5 12t-11.5 32t11.5 32t31.5 12t31.5 -12t11.5 -32t-11.5 -32t-31.5 -12z" />
    <glyph glyph-name="uni0122" unicode="&#x122;" horiz-adv-x="676" 
d="M409 44q76 0 134 18v232h-178v53h237v-315q-88 -43 -203 -43q-331 0 -331 355q0 174 84 265.5t243 91.5q95 0 184 -39v-51q-56 19 -96.5 27t-82.5 8q-138 0 -204 -70t-66 -219v-25q0 -147 68.5 -217.5t210.5 -70.5zM335 -270l34 202h23q20 0 29 -5.5t9 -17.5
q0 -9 -12 -47l-42 -132h-41z" />
    <glyph glyph-name="uni0123" unicode="&#x123;" horiz-adv-x="567" 
d="M432 74q-37 -31 -82 -49t-86 -18q-96 0 -154 68.5t-58 181.5q0 121 57.5 191t156.5 70q94 0 167 -67l6 52h50v-480q0 -118 -60 -179.5t-174 -61.5q-95 0 -163 38v47q84 -33 160 -33q93 0 136.5 46t43.5 145v49zM277 59q75 0 155 64v278q-41 34 -79 49.5t-81 15.5
q-80 0 -120.5 -52t-40.5 -154q0 -98 42.5 -149.5t123.5 -51.5zM339 798l-35 -210h-20q-20 0 -29 5.5t-9 17.5q0 9 12 47l40 140h41z" />
    <glyph glyph-name="Hcircumflex" unicode="&#x124;" horiz-adv-x="702" 
d="M555 0v328h-408v-328h-59v693h59v-312h408v312h59v-693h-59zM447 769l-96 87l-96 -87h-71l136 129h62l136 -129h-71z" />
    <glyph glyph-name="hcircumflex" unicode="&#x125;" horiz-adv-x="568" 
d="M435 0v342q0 65 -25 94.5t-80 29.5q-100 0 -195 -64v-402h-57v740h57v-294q49 34 102.5 53t104.5 19q73 0 111.5 -38.5t38.5 -113.5v-366h-57zM202 789l-96 87l-96 -87h-71l136 129h62l136 -129h-71z" />
    <glyph glyph-name="Hbar" unicode="&#x126;" horiz-adv-x="722" 
d="M565 0v328h-408v-328h-59v503h-80v51h80v139h59v-139h408v139h59v-139h80v-51h-80v-503h-59zM565 381v122h-408v-122h408z" />
    <glyph glyph-name="hbar" unicode="&#x127;" horiz-adv-x="568" 
d="M435 0v342q0 65 -25 94.5t-80 29.5q-100 0 -195 -64v-402h-57v603h-74v48h74v89h57v-89h200v-48h-200v-157q49 34 102.5 53t104.5 19q73 0 111.5 -38.5t38.5 -113.5v-366h-57z" />
    <glyph glyph-name="Itilde" unicode="&#x128;" horiz-adv-x="243" 
d="M92 0v693h59v-693h-59zM193 820q17 0 26 10.5t11 35.5l1 19h43q3 -10 3 -24q0 -42 -23 -65t-63 -23q-43 0 -79 35q-19 18 -33 25.5t-29 7.5q-17 0 -26 -10.5t-11 -35.5l-1 -19h-43q-3 11 -3 24q0 42 23 65t63 23q43 0 79 -35q19 -18 33 -25.5t29 -7.5z" />
    <glyph glyph-name="itilde" unicode="&#x129;" horiz-adv-x="221" 
d="M82 0v503h57v-503h-57zM182 656q34 0 37 48l1 19h43q3 -10 3 -24q0 -42 -23 -65t-63 -23q-43 0 -79 35q-20 19 -34 27t-28 8q-34 0 -37 -48l-1 -19h-43q-3 11 -3 24q0 42 23 65t63 23q43 0 79 -35q20 -19 34 -27t28 -8z" />
    <glyph glyph-name="Imacron" unicode="&#x12a;" horiz-adv-x="243" 
d="M92 0v693h59v-693h-59zM-32 805v51h306v-51h-306z" />
    <glyph glyph-name="imacron" unicode="&#x12b;" horiz-adv-x="221" 
d="M82 0v503h57v-503h-57zM-43 646v47h306v-47h-306z" />
    <glyph glyph-name="Ibreve" unicode="&#x12c;" horiz-adv-x="243" 
d="M92 0v693h59v-693h-59zM121 767q-61 0 -97.5 29.5t-36.5 75.5q0 5 0.5 9.5t2.5 8.5h47l1 -9q6 -64 83 -64t83 64l1 9h47q2 -4 2.5 -8.5t0.5 -9.5q0 -46 -36.5 -75.5t-97.5 -29.5z" />
    <glyph glyph-name="ibreve" unicode="&#x12d;" horiz-adv-x="221" 
d="M82 0v503h57v-503h-57zM110 600q-62 0 -98 31t-36 83q0 16 3 26h46l2 -23q6 -69 83 -69t83 69l2 23h46q3 -10 3 -26q0 -52 -36 -83t-98 -31z" />
    <glyph glyph-name="Iogonek" unicode="&#x12e;" horiz-adv-x="243" 
d="M163 -208q-26 -10 -57 -10q-47 0 -72.5 21t-25.5 60q0 36 22 72t62 65v693h59v-693q-42 -32 -64.5 -66t-22.5 -64q0 -21 13.5 -31t43.5 -10q20 0 42 5v-42z" />
    <glyph glyph-name="iogonek" unicode="&#x12f;" horiz-adv-x="221" 
d="M139 0q-42 -32 -64.5 -66t-22.5 -64q0 -43 59 -43q20 0 42 5v-40q-26 -10 -57 -10q-47 0 -72.5 21t-25.5 60q0 36 22 72t62 65v503h57v-503zM111 611q-20 0 -31.5 12t-11.5 32t11.5 32t31.5 12t31.5 -12t11.5 -32t-11.5 -32t-31.5 -12z" />
    <glyph glyph-name="Idotaccent" unicode="&#x130;" horiz-adv-x="243" 
d="M92 0v693h59v-693h-59zM121 785q-20 0 -32 12t-12 33t12 33t32 12t32 -12t12 -33t-12 -33t-32 -12z" />
    <glyph glyph-name="dotlessi" unicode="&#x131;" horiz-adv-x="221" 
d="M82 0v503h57v-503h-57z" />
    <glyph glyph-name="IJ" unicode="&#x132;" horiz-adv-x="634" 
d="M243 61q61 -23 117 -23q69 0 100 35.5t31 114.5v505h59v-504q0 -102 -48 -154t-142 -52q-62 0 -117 29v49zM92 0v693h59v-693h-59z" />
    <glyph glyph-name="ij" unicode="&#x133;" horiz-adv-x="442" 
d="M303 503h57v-615q0 -52 -26.5 -79t-75.5 -27q-36 0 -70 11v46q31 -6 61 -6q29 0 41.5 11.5t12.5 36.5v622zM332 611q-20 0 -31.5 12t-11.5 32t11.5 32t31.5 12t31.5 -12t11.5 -32t-11.5 -32t-31.5 -12zM82 0v503h57v-503h-57zM111 611q-20 0 -31.5 12t-11.5 32t11.5 32
t31.5 12t31.5 -12t11.5 -32t-11.5 -32t-31.5 -12z" />
    <glyph glyph-name="Jcircumflex" unicode="&#x134;" horiz-adv-x="421" 
d="M30 61q61 -23 117 -23q69 0 100 35.5t31 114.5v505h59v-504q0 -102 -48 -154t-142 -52q-62 0 -117 29v49zM403 769l-96 87l-96 -87h-71l136 129h62l136 -129h-71z" />
    <glyph glyph-name="jcircumflex" unicode="&#x135;" horiz-adv-x="221" 
d="M82 503h57v-615q0 -52 -26.5 -79t-75.5 -27q-36 0 -70 11v46q31 -6 61 -6q29 0 41.5 11.5t12.5 36.5v622zM214 602l-104 109l-104 -109h-59l132 152h62l132 -152h-59z" />
    <glyph glyph-name="uni0136" unicode="&#x136;" horiz-adv-x="569" 
d="M88 0v693h59v-321l318 321h76l-336 -338l364 -355h-81l-341 332v-332h-59zM241 -270l34 202h23q20 0 29 -5.5t9 -17.5q0 -9 -12 -47l-42 -132h-41z" />
    <glyph glyph-name="uni0137" unicode="&#x137;" horiz-adv-x="481" 
d="M78 0v740h57v-461l249 224h78l-267 -238l284 -265h-82l-262 246v-246h-57zM195 -270l34 202h20q20 0 29 -5.5t9 -17.5q0 -9 -12 -47l-39 -132h-41z" />
    <glyph glyph-name="kgreenlandic" unicode="&#x138;" horiz-adv-x="481" 
d="M78 0v503h57v-235l249 235h78l-267 -247l284 -256h-82l-262 235v-235h-57z" />
    <glyph glyph-name="Lacute" unicode="&#x139;" horiz-adv-x="508" 
d="M88 0v693h59v-640h348v-53h-407zM88 769l92 117h88l-122 -117h-58z" />
    <glyph glyph-name="lacute" unicode="&#x13a;" horiz-adv-x="250" 
d="M214 4q-26 -7 -51 -7q-40 0 -62.5 23.5t-22.5 65.5v654h57v-653q0 -22 8.5 -31t30.5 -9q16 0 40 3v-46zM77 789l92 117h88l-122 -117h-58z" />
    <glyph glyph-name="uni013B" unicode="&#x13b;" horiz-adv-x="508" 
d="M88 0v693h59v-640h348v-53h-407zM232 -270l34 202h23q20 0 29 -5.5t9 -17.5q0 -9 -12 -47l-42 -132h-41z" />
    <glyph glyph-name="uni013C" unicode="&#x13c;" horiz-adv-x="250" 
d="M214 4q-26 -7 -51 -7q-40 0 -62.5 23.5t-22.5 65.5v654h57v-653q0 -22 8.5 -31t30.5 -9q16 0 40 3v-46zM88 -270l34 202h20q20 0 29 -5.5t9 -17.5q0 -9 -12 -47l-39 -132h-41z" />
    <glyph glyph-name="Lcaron" unicode="&#x13d;" horiz-adv-x="508" 
d="M88 0v693h59v-640h348v-53h-407zM255 533v192q16 7 32 7q20 0 33 -10l-25 -189h-40z" />
    <glyph glyph-name="lcaron" unicode="&#x13e;" horiz-adv-x="273" 
d="M214 4q-26 -7 -51 -7q-40 0 -62.5 23.5t-22.5 65.5v654h57v-653q0 -22 8.5 -31t30.5 -9q16 0 40 3v-46zM216 553v192q16 7 32 7q20 0 33 -10l-25 -189h-40z" />
    <glyph glyph-name="Ldot" unicode="&#x13f;" horiz-adv-x="508" 
d="M88 0v693h59v-640h348v-53h-407zM363 326q-20 0 -31.5 12t-11.5 32t11.5 32t31.5 12t31.5 -12t11.5 -32t-11.5 -32t-31.5 -12z" />
    <glyph glyph-name="ldot" unicode="&#x140;" horiz-adv-x="310" 
d="M214 4q-26 -7 -51 -7q-40 0 -62.5 23.5t-22.5 65.5v654h57v-653q0 -22 8.5 -31t30.5 -9q16 0 40 3v-46zM261 317q-20 0 -31.5 12t-11.5 32t11.5 32t31.5 12t31.5 -12t11.5 -32t-11.5 -32t-31.5 -12z" />
    <glyph glyph-name="Lslash" unicode="&#x141;" horiz-adv-x="543" 
d="M128 0v271l-91 -54v57l91 53v366h59v-332l205 119v-57l-205 -120v-250h348v-53h-407z" />
    <glyph glyph-name="lslash" unicode="&#x142;" horiz-adv-x="290" 
d="M234 4q-26 -7 -51 -7q-40 0 -62.5 23.5t-22.5 65.5v240l-83 -49v55l83 48v360h57v-326l89 52v-55l-89 -53v-271q0 -22 8.5 -31t30.5 -9q16 0 40 3v-46z" />
    <glyph glyph-name="Nacute" unicode="&#x143;" horiz-adv-x="696" 
d="M145 606v-606h-57v693h68l395 -608v608h57v-693h-68zM324 769l92 117h88l-122 -117h-58z" />
    <glyph glyph-name="nacute" unicode="&#x144;" horiz-adv-x="568" 
d="M435 0v342q0 65 -25 94.5t-80 29.5q-100 0 -195 -64v-402h-57v503h50l6 -58q49 35 103 54t105 19q73 0 111.5 -38.5t38.5 -113.5v-366h-57zM273 602l87 152h81l-120 -152h-48z" />
    <glyph glyph-name="uni0145" unicode="&#x145;" horiz-adv-x="696" 
d="M145 606v-606h-57v693h68l395 -608v608h57v-693h-68zM284 -270l34 202h23q20 0 29 -5.5t9 -17.5q0 -9 -12 -47l-42 -132h-41z" />
    <glyph glyph-name="uni0146" unicode="&#x146;" horiz-adv-x="568" 
d="M435 0v342q0 65 -25 94.5t-80 29.5q-100 0 -195 -64v-402h-57v503h50l6 -58q49 35 103 54t105 19q73 0 111.5 -38.5t38.5 -113.5v-366h-57zM227 -270l34 202h20q20 0 29 -5.5t9 -17.5q0 -9 -12 -47l-39 -132h-41z" />
    <glyph glyph-name="Ncaron" unicode="&#x147;" horiz-adv-x="696" 
d="M145 606v-606h-57v693h68l395 -608v608h57v-693h-68zM323 769l-137 129h78l89 -96l89 96h78l-137 -129h-60z" />
    <glyph glyph-name="ncaron" unicode="&#x148;" horiz-adv-x="568" 
d="M435 0v342q0 65 -25 94.5t-80 29.5q-100 0 -195 -64v-402h-57v503h50l6 -58q49 35 103 54t105 19q73 0 111.5 -38.5t38.5 -113.5v-366h-57zM267 602l-133 152h70l93 -118l93 118h70l-133 -152h-60z" />
    <glyph glyph-name="napostrophe" unicode="&#x149;" horiz-adv-x="695" 
d="M562 0v342q0 65 -25 94.5t-80 29.5q-100 0 -195 -64v-402h-57v503h50l6 -58q49 35 103 54t105 19q73 0 111.5 -38.5t38.5 -113.5v-366h-57zM59 474l35 219h22q20 0 29.5 -5t9.5 -18q0 -8 -9 -43l-43 -153h-44z" />
    <glyph glyph-name="Eng" unicode="&#x14a;" horiz-adv-x="696" 
d="M549 -4l-404 611v-607h-57v693h68l395 -602v602h57v-705q0 -102 -48 -154t-142 -52q-62 0 -117 29v49q61 -23 117 -23q69 0 100 35.5t31 114.5v9z" />
    <glyph glyph-name="eng" unicode="&#x14b;" horiz-adv-x="568" 
d="M435 342q0 65 -25 94.5t-80 29.5q-100 0 -195 -64v-402h-57v503h50l6 -58q49 35 103 54t105 19q73 0 111.5 -38.5t38.5 -113.5v-440q0 -144 -129 -144q-44 0 -86 16v46q44 -11 80 -11q42 0 60 21t18 70v418z" />
    <glyph glyph-name="Omacron" unicode="&#x14c;" horiz-adv-x="772" 
d="M130 345q0 -151 65 -229t191 -78t191 78t65 229t-65 229t-191 78t-191 -78t-65 -229zM68 345q0 171 84 266.5t234 95.5t234 -95.5t84 -266.5t-84 -266.5t-234 -95.5t-234 95.5t-84 266.5zM233 805v51h306v-51h-306z" />
    <glyph glyph-name="omacron" unicode="&#x14d;" horiz-adv-x="568" 
d="M284 -15q-110 0 -171 70.5t-61 196.5t61 196t171 70t171 -70t61 -196t-61 -196.5t-171 -70.5zM284 37q173 0 173 215q0 214 -173 214t-173 -214q0 -215 173 -215zM131 646v47h306v-47h-306z" />
    <glyph glyph-name="Obreve" unicode="&#x14e;" horiz-adv-x="772" 
d="M130 345q0 -151 65 -229t191 -78t191 78t65 229t-65 229t-191 78t-191 -78t-65 -229zM68 345q0 171 84 266.5t234 95.5t234 -95.5t84 -266.5t-84 -266.5t-234 -95.5t-234 95.5t-84 266.5zM386 767q-61 0 -97.5 29.5t-36.5 75.5q0 5 0.5 9.5t2.5 8.5h47l1 -9q6 -64 83 -64
t83 64l1 9h47q2 -4 2.5 -8.5t0.5 -9.5q0 -46 -36.5 -75.5t-97.5 -29.5z" />
    <glyph glyph-name="obreve" unicode="&#x14f;" horiz-adv-x="568" 
d="M284 -15q-110 0 -171 70.5t-61 196.5t61 196t171 70t171 -70t61 -196t-61 -196.5t-171 -70.5zM284 37q173 0 173 215q0 214 -173 214t-173 -214q0 -215 173 -215zM284 600q-62 0 -98 31t-36 83q0 16 3 26h46l2 -23q6 -69 83 -69t83 69l2 23h46q3 -10 3 -26q0 -52 -36 -83
t-98 -31z" />
    <glyph glyph-name="Ohungarumlaut" unicode="&#x150;" horiz-adv-x="772" 
d="M130 345q0 -151 65 -229t191 -78t191 78t65 229t-65 229t-191 78t-191 -78t-65 -229zM68 345q0 171 84 266.5t234 95.5t234 -95.5t84 -266.5t-84 -266.5t-234 -95.5t-234 95.5t-84 266.5zM366 886h88l-122 -117h-58zM533 886h88l-122 -117h-58z" />
    <glyph glyph-name="ohungarumlaut" unicode="&#x151;" horiz-adv-x="568" 
d="M284 -15q-110 0 -171 70.5t-61 196.5t61 196t171 70t171 -70t61 -196t-61 -196.5t-171 -70.5zM284 37q173 0 173 215q0 214 -173 214t-173 -214q0 -215 173 -215zM186 601l87 152h81l-120 -152h-48zM348 601l87 152h81l-120 -152h-48z" />
    <glyph glyph-name="OE" unicode="&#x152;" horiz-adv-x="1059" 
d="M612 0v107q-38 -61 -99.5 -92.5t-141.5 -31.5q-143 0 -223 95.5t-80 266.5t80 266.5t223 95.5q80 0 141.5 -31.5t99.5 -92.5v110h397v-53h-340v-255h290v-53h-290v-279h340v-53h-397zM130 345q0 -151 61.5 -229t179.5 -78q116 0 178.5 76.5t62.5 219.5v21
q0 144 -62 220.5t-179 76.5q-118 0 -179.5 -78t-61.5 -229z" />
    <glyph glyph-name="oe" unicode="&#x153;" horiz-adv-x="894" 
d="M670 -15q-78 0 -127 30.5t-73 94.5q-24 -62 -72 -93.5t-117 -31.5q-108 0 -168.5 70.5t-60.5 196.5t60.5 196t168.5 70q69 0 117 -31.5t72 -92.5q50 124 191 124q90 0 137.5 -52.5t47.5 -148.5q0 -45 -6 -75h-342q2 -107 44.5 -156t131.5 -49q85 0 162 35v-47
q-69 -40 -166 -40zM281 37q163 0 163 215q0 214 -163 214q-170 0 -170 -214q0 -215 170 -215zM656 467q-150 0 -158 -179h292q1 14 1 33q0 72 -34 109t-101 37z" />
    <glyph glyph-name="Racute" unicode="&#x154;" horiz-adv-x="591" 
d="M88 0v693h241q94 0 151 -54t57 -145q0 -76 -42 -126.5t-119 -67.5l199 -300h-69l-190 293h-171v-293h-57zM145 344h175q77 0 116 38.5t39 111.5q0 72 -37.5 109t-110.5 37h-182v-296zM269 769l92 117h88l-122 -117h-58z" />
    <glyph glyph-name="racute" unicode="&#x155;" horiz-adv-x="344" 
d="M78 0v503h50l6 -73q38 42 74.5 59.5t82.5 17.5q17 0 41 -3v-51q-26 2 -47 2q-46 0 -81.5 -17t-68.5 -55v-383h-57zM187 602l87 152h81l-120 -152h-48z" />
    <glyph glyph-name="uni0156" unicode="&#x156;" horiz-adv-x="591" 
d="M88 0v693h241q94 0 151 -54t57 -145q0 -76 -42 -126.5t-119 -67.5l199 -300h-69l-190 293h-171v-293h-57zM145 344h175q77 0 116 38.5t39 111.5q0 72 -37.5 109t-110.5 37h-182v-296zM257 -270l34 202h23q20 0 29 -5.5t9 -17.5q0 -9 -12 -47l-42 -132h-41z" />
    <glyph glyph-name="uni0157" unicode="&#x157;" horiz-adv-x="344" 
d="M78 0v503h50l6 -73q38 42 74.5 59.5t82.5 17.5q17 0 41 -3v-51q-26 2 -47 2q-46 0 -81.5 -17t-68.5 -55v-383h-57zM48 -270l34 202h20q20 0 29 -5.5t9 -17.5q0 -9 -12 -47l-39 -132h-41z" />
    <glyph glyph-name="Rcaron" unicode="&#x158;" horiz-adv-x="591" 
d="M88 0v693h241q94 0 151 -54t57 -145q0 -76 -42 -126.5t-119 -67.5l199 -300h-69l-190 293h-171v-293h-57zM145 344h175q77 0 116 38.5t39 111.5q0 72 -37.5 109t-110.5 37h-182v-296zM268 769l-137 129h78l89 -96l89 96h78l-137 -129h-60z" />
    <glyph glyph-name="rcaron" unicode="&#x159;" horiz-adv-x="344" 
d="M78 0v503h50l6 -73q38 42 74.5 59.5t82.5 17.5q17 0 41 -3v-51q-26 2 -47 2q-46 0 -81.5 -17t-68.5 -55v-383h-57zM181 602l-133 152h70l93 -118l93 118h70l-133 -152h-60z" />
    <glyph glyph-name="Sacute" unicode="&#x15a;" horiz-adv-x="556" 
d="M211 350q-77 30 -113 71.5t-36 102.5q0 83 59.5 134.5t156.5 51.5q44 0 92.5 -10.5t91.5 -29.5v-51q-102 36 -181 36q-77 0 -118 -33.5t-41 -95.5q0 -35 12.5 -56.5t41 -39t81.5 -37.5l107 -41q72 -28 105 -68.5t33 -101.5q0 -89 -65.5 -144t-172.5 -55q-111 0 -198 42
v51q105 -38 193 -38q83 0 132.5 39t49.5 106q0 41 -27 70t-87 52zM250 769l92 117h88l-122 -117h-58z" />
    <glyph glyph-name="sacute" unicode="&#x15b;" horiz-adv-x="421" 
d="M334 132q0 27 -19.5 46t-65.5 36l-91 34q-107 40 -107 131q0 62 46.5 100.5t121.5 38.5q35 0 73 -8t70 -22v-47q-81 26 -146 26q-54 0 -82 -21.5t-28 -63.5q0 -34 19.5 -52.5t76.5 -40.5l80 -30q56 -21 81.5 -51.5t25.5 -75.5q0 -68 -49.5 -107.5t-134.5 -39.5
q-91 0 -163 36v47q89 -32 167 -32q61 0 93 24.5t32 71.5zM193 602l87 152h81l-120 -152h-48z" />
    <glyph glyph-name="Scircumflex" unicode="&#x15c;" horiz-adv-x="556" 
d="M211 350q-77 30 -113 71.5t-36 102.5q0 83 59.5 134.5t156.5 51.5q44 0 92.5 -10.5t91.5 -29.5v-51q-102 36 -181 36q-77 0 -118 -33.5t-41 -95.5q0 -35 12.5 -56.5t41 -39t81.5 -37.5l107 -41q72 -28 105 -68.5t33 -101.5q0 -89 -65.5 -144t-172.5 -55q-111 0 -198 42
v51q105 -38 193 -38q83 0 132.5 39t49.5 106q0 41 -27 70t-87 52zM375 769l-96 87l-96 -87h-71l136 129h62l136 -129h-71z" />
    <glyph glyph-name="scircumflex" unicode="&#x15d;" horiz-adv-x="421" 
d="M334 132q0 27 -19.5 46t-65.5 36l-91 34q-107 40 -107 131q0 62 46.5 100.5t121.5 38.5q35 0 73 -8t70 -22v-47q-81 26 -146 26q-54 0 -82 -21.5t-28 -63.5q0 -34 19.5 -52.5t76.5 -40.5l80 -30q56 -21 81.5 -51.5t25.5 -75.5q0 -68 -49.5 -107.5t-134.5 -39.5
q-91 0 -163 36v47q89 -32 167 -32q61 0 93 24.5t32 71.5zM321 602l-104 109l-104 -109h-59l132 152h62l132 -152h-59z" />
    <glyph glyph-name="Scedilla" unicode="&#x15e;" horiz-adv-x="556" 
d="M211 350q-77 30 -113 71.5t-36 102.5q0 83 59.5 134.5t156.5 51.5q44 0 92.5 -10.5t91.5 -29.5v-51q-102 36 -181 36q-77 0 -118 -33.5t-41 -95.5q0 -35 12.5 -56.5t41 -39t81.5 -37.5l107 -41q72 -28 105 -68.5t33 -101.5q0 -89 -65.5 -144t-172.5 -55q-111 0 -198 42
v51q105 -38 193 -38q83 0 132.5 39t49.5 106q0 41 -27 70t-87 52zM255 -66q39 0 62.5 -18.5t23.5 -49.5q0 -37 -29 -74t-83 -66l-32 27q42 29 64.5 56t22.5 48q0 30 -42 30q-19 0 -40 -3v42q27 8 53 8z" />
    <glyph glyph-name="scedilla" unicode="&#x15f;" horiz-adv-x="421" 
d="M334 132q0 27 -19.5 46t-65.5 36l-91 34q-107 40 -107 131q0 62 46.5 100.5t121.5 38.5q35 0 73 -8t70 -22v-47q-81 26 -146 26q-54 0 -82 -21.5t-28 -63.5q0 -34 19.5 -52.5t76.5 -40.5l80 -30q56 -21 81.5 -51.5t25.5 -75.5q0 -68 -49.5 -107.5t-134.5 -39.5
q-91 0 -163 36v47q89 -32 167 -32q61 0 93 24.5t32 71.5zM193 -66q39 0 62.5 -18.5t23.5 -49.5q0 -37 -29 -74t-83 -66l-31 26q43 28 66 56.5t23 50.5q0 30 -44 30q-20 0 -41 -3v40q27 8 53 8z" />
    <glyph glyph-name="Scaron" unicode="&#x160;" horiz-adv-x="556" 
d="M211 350q-77 30 -113 71.5t-36 102.5q0 83 59.5 134.5t156.5 51.5q44 0 92.5 -10.5t91.5 -29.5v-51q-102 36 -181 36q-77 0 -118 -33.5t-41 -95.5q0 -35 12.5 -56.5t41 -39t81.5 -37.5l107 -41q72 -28 105 -68.5t33 -101.5q0 -89 -65.5 -144t-172.5 -55q-111 0 -198 42
v51q105 -38 193 -38q83 0 132.5 39t49.5 106q0 41 -27 70t-87 52zM249 769l-137 129h78l89 -96l89 96h78l-137 -129h-60z" />
    <glyph glyph-name="scaron" unicode="&#x161;" horiz-adv-x="421" 
d="M334 132q0 27 -19.5 46t-65.5 36l-91 34q-107 40 -107 131q0 62 46.5 100.5t121.5 38.5q35 0 73 -8t70 -22v-47q-81 26 -146 26q-54 0 -82 -21.5t-28 -63.5q0 -34 19.5 -52.5t76.5 -40.5l80 -30q56 -21 81.5 -51.5t25.5 -75.5q0 -68 -49.5 -107.5t-134.5 -39.5
q-91 0 -163 36v47q89 -32 167 -32q61 0 93 24.5t32 71.5zM187 602l-133 152h70l93 -118l93 118h70l-133 -152h-60z" />
    <glyph glyph-name="uni0162" unicode="&#x162;" horiz-adv-x="555" 
d="M248 0v640h-230v53h519v-53h-230v-640h-59zM263 -66q39 0 62.5 -18.5t23.5 -49.5q0 -37 -29 -74t-83 -66l-32 27q42 29 64.5 56t22.5 48q0 30 -42 30q-19 0 -40 -3v42q27 8 53 8z" />
    <glyph glyph-name="uni0163" unicode="&#x163;" horiz-adv-x="362" 
d="M334 11q-42 -17 -101 -17t-90 31.5t-31 91.5v336h-94v40l96 9l8 147h47v-146h160v-50h-160v-333q0 -41 17.5 -58t58.5 -17t89 12v-46zM201 -66q39 0 62.5 -18.5t23.5 -49.5q0 -37 -29 -74t-83 -66l-31 26q43 28 66 56.5t23 50.5q0 30 -44 30q-20 0 -41 -3v40q27 8 53 8z
" />
    <glyph glyph-name="Tcaron" unicode="&#x164;" horiz-adv-x="555" 
d="M248 0v640h-230v53h519v-53h-230v-640h-59zM247 769l-137 129h78l89 -96l89 96h78l-137 -129h-60z" />
    <glyph glyph-name="tcaron" unicode="&#x165;" horiz-adv-x="362" 
d="M334 11q-42 -17 -101 -17t-90 31.5t-31 91.5v336h-94v40l96 9l8 147h47v-146h160v-50h-160v-333q0 -41 17.5 -58t58.5 -17t89 12v-46zM258 580v160q16 7 32 7q20 0 33 -10l-25 -157h-40z" />
    <glyph glyph-name="Tbar" unicode="&#x166;" horiz-adv-x="555" 
d="M248 0v324h-148v51h148v265h-230v53h519v-53h-230v-265h148v-51h-148v-324h-59z" />
    <glyph glyph-name="tbar" unicode="&#x167;" horiz-adv-x="402" 
d="M354 11q-42 -17 -101 -17t-90 31.5t-31 91.5v124h-94v47h94v165h-94v40l96 9l8 147h47v-146h160v-50h-160v-165h160v-47h-160v-121q0 -41 17.5 -58t58.5 -17t89 12v-46z" />
    <glyph glyph-name="Utilde" unicode="&#x168;" horiz-adv-x="690" 
d="M547 693h59v-441q0 -131 -67 -200t-194 -69t-194 69t-67 200v441h59v-452q0 -98 52 -150.5t150 -52.5t150 52.5t52 150.5v452zM417 820q17 0 26 10.5t11 35.5l1 19h43q3 -10 3 -24q0 -42 -23 -65t-63 -23q-43 0 -79 35q-19 18 -33 25.5t-29 7.5q-17 0 -26 -10.5
t-11 -35.5l-1 -19h-43q-3 11 -3 24q0 42 23 65t63 23q43 0 79 -35q19 -18 33 -25.5t29 -7.5z" />
    <glyph glyph-name="utilde" unicode="&#x169;" horiz-adv-x="554" 
d="M426 0l-6 55q-95 -70 -197 -70q-72 0 -110.5 39t-38.5 114v365h57v-341q0 -66 25 -95.5t79 -29.5q49 0 92 15t92 49v402h57v-503h-50zM347 656q34 0 37 48l1 19h43q3 -10 3 -24q0 -42 -23 -65t-63 -23q-43 0 -79 35q-20 19 -34 27t-28 8q-34 0 -37 -48l-1 -19h-43
q-3 11 -3 24q0 42 23 65t63 23q43 0 79 -35q20 -19 34 -27t28 -8z" />
    <glyph glyph-name="Umacron" unicode="&#x16a;" horiz-adv-x="690" 
d="M547 693h59v-441q0 -131 -67 -200t-194 -69t-194 69t-67 200v441h59v-452q0 -98 52 -150.5t150 -52.5t150 52.5t52 150.5v452zM192 805v51h306v-51h-306z" />
    <glyph glyph-name="umacron" unicode="&#x16b;" horiz-adv-x="554" 
d="M426 0l-6 55q-95 -70 -197 -70q-72 0 -110.5 39t-38.5 114v365h57v-341q0 -66 25 -95.5t79 -29.5q49 0 92 15t92 49v402h57v-503h-50zM122 646v47h306v-47h-306z" />
    <glyph glyph-name="Ubreve" unicode="&#x16c;" horiz-adv-x="690" 
d="M547 693h59v-441q0 -131 -67 -200t-194 -69t-194 69t-67 200v441h59v-452q0 -98 52 -150.5t150 -52.5t150 52.5t52 150.5v452zM345 767q-61 0 -97.5 29.5t-36.5 75.5q0 5 0.5 9.5t2.5 8.5h47l1 -9q6 -64 83 -64t83 64l1 9h47q2 -4 2.5 -8.5t0.5 -9.5q0 -46 -36.5 -75.5
t-97.5 -29.5z" />
    <glyph glyph-name="ubreve" unicode="&#x16d;" horiz-adv-x="554" 
d="M426 0l-6 55q-95 -70 -197 -70q-72 0 -110.5 39t-38.5 114v365h57v-341q0 -66 25 -95.5t79 -29.5q49 0 92 15t92 49v402h57v-503h-50zM275 600q-62 0 -98 31t-36 83q0 16 3 26h46l2 -23q6 -69 83 -69t83 69l2 23h46q3 -10 3 -26q0 -52 -36 -83t-98 -31z" />
    <glyph glyph-name="Uring" unicode="&#x16e;" horiz-adv-x="690" 
d="M547 693h59v-441q0 -131 -67 -200t-194 -69t-194 69t-67 200v441h59v-452q0 -98 52 -150.5t150 -52.5t150 52.5t52 150.5v452zM345 740q-45 0 -73 25t-28 66t28 66t73 25t73 -25t28 -66t-28 -66t-73 -25zM345 780q25 0 39 13.5t14 37.5t-14 37.5t-39 13.5t-39 -13.5
t-14 -37.5t14 -37.5t39 -13.5z" />
    <glyph glyph-name="uring" unicode="&#x16f;" horiz-adv-x="554" 
d="M426 0l-6 55q-95 -70 -197 -70q-72 0 -110.5 39t-38.5 114v365h57v-341q0 -66 25 -95.5t79 -29.5q49 0 92 15t92 49v402h57v-503h-50zM275 584q-47 0 -76.5 27t-29.5 72t29.5 72t76.5 27t76.5 -27t29.5 -72t-29.5 -72t-76.5 -27zM275 624q28 0 43 15.5t15 43.5t-15 43.5
t-43 15.5t-43 -15.5t-15 -43.5t15 -43.5t43 -15.5z" />
    <glyph glyph-name="Uhungarumlaut" unicode="&#x170;" horiz-adv-x="690" 
d="M547 693h59v-441q0 -131 -67 -200t-194 -69t-194 69t-67 200v441h59v-452q0 -98 52 -150.5t150 -52.5t150 52.5t52 150.5v452zM325 886h88l-122 -117h-58zM492 886h88l-122 -117h-58z" />
    <glyph glyph-name="uhungarumlaut" unicode="&#x171;" horiz-adv-x="554" 
d="M426 0l-6 55q-95 -70 -197 -70q-72 0 -110.5 39t-38.5 114v365h57v-341q0 -66 25 -95.5t79 -29.5q49 0 92 15t92 49v402h57v-503h-50zM177 601l87 152h81l-120 -152h-48zM339 601l87 152h81l-120 -152h-48z" />
    <glyph glyph-name="Uogonek" unicode="&#x172;" horiz-adv-x="690" 
d="M547 693h59v-441q0 -95 -36 -158t-106 -91q-43 -20 -70 -57t-27 -73q0 -24 14 -34t43 -10q20 0 42 5v-42q-26 -10 -57 -10q-47 0 -72.5 21t-25.5 61q0 66 64 120q-7 0 -14.5 -0.5t-15.5 -0.5q-127 0 -194 69t-67 200v441h59v-452q0 -98 52 -150.5t150 -52.5t150 52.5
t52 150.5v452z" />
    <glyph glyph-name="uogonek" unicode="&#x173;" horiz-adv-x="554" 
d="M490 -208q-26 -10 -57 -10q-47 0 -72.5 21t-25.5 60q0 38 23.5 75t66.5 66l-5 51q-95 -70 -197 -70q-72 0 -110.5 39t-38.5 114v365h57v-341q0 -66 25 -95.5t79 -29.5q49 0 92 15t92 49v402h57v-503q-42 -32 -64.5 -66t-22.5 -64q0 -43 59 -43q20 0 42 5v-40z" />
    <glyph glyph-name="Wcircumflex" unicode="&#x174;" horiz-adv-x="907" 
d="M603 0l-152 593l-151 -593h-70l-210 693h64l182 -626l151 603h72l150 -605l186 628h62l-214 -693h-70zM548 769l-96 87l-96 -87h-71l136 129h62l136 -129h-71z" />
    <glyph glyph-name="wcircumflex" unicode="&#x175;" horiz-adv-x="743" 
d="M494 0l-125 439l-124 -439h-62l-171 503h61l140 -437l125 437h67l124 -440l143 440h59l-175 -503h-62zM474 602l-104 109l-104 -109h-59l132 152h62l132 -152h-59z" />
    <glyph glyph-name="Ycircumflex" unicode="&#x176;" horiz-adv-x="581" 
d="M259 0v251l-241 442h67l205 -386l209 386h64l-245 -444v-249h-59zM388 769l-96 87l-96 -87h-71l136 129h62l136 -129h-71z" />
    <glyph glyph-name="ycircumflex" unicode="&#x177;" horiz-adv-x="486" 
d="M216 -5l-206 508h62l171 -443l173 443h60l-245 -609q-24 -61 -55 -86.5t-80 -25.5q-34 0 -61 12v45q26 -6 57 -6q33 0 52.5 17t37.5 61zM348 602l-104 109l-104 -109h-59l132 152h62l132 -152h-59z" />
    <glyph glyph-name="Ydieresis" unicode="&#x178;" horiz-adv-x="581" 
d="M259 0v251l-241 442h67l205 -386l209 386h64l-245 -444v-249h-59zM193 785q-20 0 -32 12.5t-12 32.5t12 32.5t32 12.5t32 -12.5t12 -32.5t-12 -32.5t-32 -12.5zM391 785q-20 0 -32 12.5t-12 32.5t12 32.5t32 12.5t32 -12.5t12 -32.5t-12 -32.5t-32 -12.5z" />
    <glyph glyph-name="Zacute" unicode="&#x179;" horiz-adv-x="565" 
d="M46 0v53l406 587h-381v53h448v-52l-409 -588h406v-53h-470zM266 769l92 117h88l-122 -117h-58z" />
    <glyph glyph-name="zacute" unicode="&#x17a;" horiz-adv-x="462" 
d="M40 0v51l316 402h-306v50h370v-51l-318 -402h320v-50h-382zM210 602l87 152h81l-120 -152h-48z" />
    <glyph glyph-name="Zdotaccent" unicode="&#x17b;" horiz-adv-x="565" 
d="M46 0v53l406 587h-381v53h448v-52l-409 -588h406v-53h-470zM295 785q-20 0 -32 12t-12 33t12 33t32 12t32 -12t12 -33t-12 -33t-32 -12z" />
    <glyph glyph-name="zdotaccent" unicode="&#x17c;" horiz-adv-x="462" 
d="M40 0v51l316 402h-306v50h370v-51l-318 -402h320v-50h-382zM234 611q-20 0 -31.5 12t-11.5 32t11.5 32t31.5 12t31.5 -12t11.5 -32t-11.5 -32t-31.5 -12z" />
    <glyph glyph-name="Zcaron" unicode="&#x17d;" horiz-adv-x="565" 
d="M46 0v53l406 587h-381v53h448v-52l-409 -588h406v-53h-470zM265 769l-137 129h78l89 -96l89 96h78l-137 -129h-60z" />
    <glyph glyph-name="zcaron" unicode="&#x17e;" horiz-adv-x="462" 
d="M40 0v51l316 402h-306v50h370v-51l-318 -402h320v-50h-382zM204 602l-133 152h70l93 -118l93 118h70l-133 -152h-60z" />
    <glyph glyph-name="longs" unicode="&#x17f;" horiz-adv-x="217" 
d="M78 0v617q0 67 35 102t100 35q24 0 49.5 -4.5t43.5 -11.5v-47q-50 11 -86 11q-45 0 -65 -18.5t-20 -60.5v-623h-57z" />
    <glyph glyph-name="florin" unicode="&#x192;" horiz-adv-x="352" 
d="M177 -82q0 -63 -35 -99.5t-96 -36.5q-21 0 -43.5 4t-36.5 10v46q38 -9 71 -9q83 0 83 79v541h-98v40l98 9v115q0 67 35 102t100 35q24 0 49.5 -4.5t43.5 -11.5v-47q-50 11 -86 11q-45 0 -65 -18.5t-20 -60.5v-120h166v-50h-166v-535z" />
    <glyph glyph-name="uni01D3" unicode="&#x1d3;" horiz-adv-x="690" 
d="M547 693h59v-441q0 -131 -67 -200t-194 -69t-194 69t-67 200v441h59v-452q0 -98 52 -150.5t150 -52.5t150 52.5t52 150.5v452zM315 769l-137 129h78l89 -96l89 96h78l-137 -129h-60z" />
    <glyph glyph-name="uni01D4" unicode="&#x1d4;" horiz-adv-x="554" 
d="M426 0l-6 55q-95 -70 -197 -70q-72 0 -110.5 39t-38.5 114v365h57v-341q0 -66 25 -95.5t79 -29.5q49 0 92 15t92 49v402h57v-503h-50zM245 602l-133 152h70l93 -118l93 118h70l-133 -152h-60z" />
    <glyph glyph-name="Aringacute" unicode="&#x1fa;" horiz-adv-x="623" 
d="M548 0l-78 208h-320l-78 -208h-58l249 641q-26 11 -40 32.5t-14 50.5q0 41 28 66t73 25t73 -25t28 -66q0 -28 -13.5 -49.5t-38.5 -32.5l250 -642h-61zM169 257h283l-142 374zM310 673q25 0 39 13.5t14 37.5t-14 37.5t-39 13.5t-39 -13.5t-14 -37.5t14 -37.5t39 -13.5z
M275 851l92 117h88l-122 -117h-58z" />
    <glyph glyph-name="aringacute" unicode="&#x1fb;" horiz-adv-x="508" 
d="M381 0l-5 58q-86 -69 -180 -69q-69 0 -109.5 39.5t-40.5 105.5q0 73 50 115t136 42q67 0 143 -23v84q0 61 -29 87.5t-96 26.5q-80 0 -171 -32v47q38 17 86 27t94 10q88 0 130.5 -37t42.5 -112v-369h-51zM204 41q38 0 82 15.5t89 43.5v125q-67 18 -130 18
q-140 0 -140 -108q0 -46 25 -70t74 -24zM247 584q-45 0 -73 25t-28 66t28 66t73 25t73 -25t28 -66t-28 -66t-73 -25zM247 624q25 0 39 13.5t14 37.5t-14 37.5t-39 13.5t-39 -13.5t-14 -37.5t14 -37.5t39 -13.5zM212 802l92 117h88l-122 -117h-58z" />
    <glyph glyph-name="AEacute" unicode="&#x1fc;" horiz-adv-x="932" 
d="M473 0v237h-254l-141 -237h-64l416 693h452v-53h-350v-255h300v-53h-300v-279h350v-53h-409zM247 285h226v355h-14zM627 769l92 117h88l-122 -117h-58z" />
    <glyph glyph-name="aeacute" unicode="&#x1fd;" horiz-adv-x="838" 
d="M255 518q137 0 163 -98q58 98 186 98q90 0 138 -52.5t48 -149.5q0 -42 -7 -77h-348q1 -105 44.5 -153.5t137.5 -48.5q86 0 163 35v-47q-69 -40 -167 -40q-144 0 -200 98q-101 -94 -214 -94q-70 0 -111.5 40t-41.5 107q0 75 51.5 117.5t143.5 42.5q57 0 136 -7v59
q0 62 -31 90t-98 28q-76 0 -169 -32v47q82 37 176 37zM207 41q88 0 188 79q-19 54 -19 122q-64 6 -122 6q-76 0 -112.5 -27.5t-36.5 -83.5q0 -47 26 -71.5t76 -24.5zM599 467q-77 0 -118.5 -46t-45.5 -136h298q2 19 2 35q0 72 -34.5 109.5t-101.5 37.5zM394 602l87 152h81
l-120 -152h-48z" />
    <glyph glyph-name="Oslashacute" unicode="&#x1fe;" horiz-adv-x="772" 
d="M68 345q0 171 84 266.5t234 95.5q123 0 204 -67l67 84l40 -32l-71 -88q78 -95 78 -259q0 -171 -84 -266.5t-234 -95.5q-124 0 -204 66l-64 -81l-40 32l68 85q-78 95 -78 260zM130 345q0 -136 53 -213l372 464q-64 56 -169 56q-126 0 -191 -78t-65 -229zM642 345
q0 135 -53 212l-372 -464q62 -55 169 -55q126 0 191 78t65 229zM357 769l92 117h88l-122 -117h-58z" />
    <glyph glyph-name="oslashacute" unicode="&#x1ff;" horiz-adv-x="568" 
d="M55 3l50 62q-53 68 -53 187q0 126 61 196t171 70q88 0 145 -46l47 58l37 -30l-50 -63q53 -70 53 -185q0 -126 -61 -196.5t-171 -70.5q-88 0 -146 46l-46 -58zM284 37q173 0 173 215q0 89 -30 140l-256 -319q42 -36 113 -36zM111 252q0 -89 30 -142l255 320
q-42 36 -112 36q-173 0 -173 -214zM260 602l87 152h81l-120 -152h-48z" />
    <glyph glyph-name="uni0218" unicode="&#x218;" horiz-adv-x="556" 
d="M211 350q-77 30 -113 71.5t-36 102.5q0 83 59.5 134.5t156.5 51.5q44 0 92.5 -10.5t91.5 -29.5v-51q-102 36 -181 36q-77 0 -118 -33.5t-41 -95.5q0 -35 12.5 -56.5t41 -39t81.5 -37.5l107 -41q72 -28 105 -68.5t33 -101.5q0 -89 -65.5 -144t-172.5 -55q-111 0 -198 42
v51q105 -38 193 -38q83 0 132.5 39t49.5 106q0 41 -27 70t-87 52zM210 -270l34 202h23q20 0 29 -5.5t9 -17.5q0 -9 -12 -47l-42 -132h-41z" />
    <glyph glyph-name="uni0219" unicode="&#x219;" horiz-adv-x="421" 
d="M334 132q0 27 -19.5 46t-65.5 36l-91 34q-107 40 -107 131q0 62 46.5 100.5t121.5 38.5q35 0 73 -8t70 -22v-47q-81 26 -146 26q-54 0 -82 -21.5t-28 -63.5q0 -34 19.5 -52.5t76.5 -40.5l80 -30q56 -21 81.5 -51.5t25.5 -75.5q0 -68 -49.5 -107.5t-134.5 -39.5
q-91 0 -163 36v47q89 -32 167 -32q61 0 93 24.5t32 71.5zM159 -270l34 202h20q20 0 29 -5.5t9 -17.5q0 -9 -12 -47l-39 -132h-41z" />
    <glyph glyph-name="uni021A" unicode="&#x21a;" horiz-adv-x="555" 
d="M248 0v640h-230v53h519v-53h-230v-640h-59zM218 -270l34 202h23q20 0 29 -5.5t9 -17.5q0 -9 -12 -47l-42 -132h-41z" />
    <glyph glyph-name="uni021B" unicode="&#x21b;" horiz-adv-x="362" 
d="M334 11q-42 -17 -101 -17t-90 31.5t-31 91.5v336h-94v40l96 9l8 147h47v-146h160v-50h-160v-333q0 -41 17.5 -58t58.5 -17t89 12v-46zM167 -270l34 202h20q20 0 29 -5.5t9 -17.5q0 -9 -12 -47l-39 -132h-41z" />
    <glyph glyph-name="uni0237" unicode="&#x237;" horiz-adv-x="221" 
d="M82 503h57v-615q0 -52 -26.5 -79t-75.5 -27q-36 0 -70 11v46q31 -6 61 -6q29 0 41.5 11.5t12.5 36.5v622z" />
    <glyph glyph-name="uni02B9" unicode="&#x2b9;" horiz-adv-x="238" 
d="M102 476h-44l73 217q19 8 37 8t34 -8z" />
    <glyph glyph-name="uni02BA" unicode="&#x2ba;" horiz-adv-x="382" 
d="M102 476h-44l73 217q19 8 37 8t34 -8zM246 476h-44l73 217q19 8 37 8t34 -8z" />
    <glyph glyph-name="uni02BB" unicode="&#x2bb;" horiz-adv-x="214" 
d="M175 674q-47 -66 -56 -139q-3 -25 -3 -68h-30q-17 0 -25 6.5t-8 21.5q1 52 25 107t64 96z" />
    <glyph glyph-name="uni02BC" unicode="&#x2bc;" horiz-adv-x="214" 
d="M39 486q47 66 56 139q3 26 3 68h30q17 0 25 -6.5t8 -21.5q-1 -52 -25 -107t-64 -96z" />
    <glyph glyph-name="circumflex" unicode="&#x2c6;" horiz-adv-x="568" 
d="M388 602l-104 109l-104 -109h-59l132 152h62l132 -152h-59z" />
    <glyph glyph-name="caron" unicode="&#x2c7;" horiz-adv-x="568" 
d="M254 602l-133 152h70l93 -118l93 118h70l-133 -152h-60z" />
    <glyph glyph-name="uni02C9" unicode="&#x2c9;" horiz-adv-x="568" 
d="M131 646v47h306v-47h-306z" />
    <glyph glyph-name="uni02CA" unicode="&#x2ca;" horiz-adv-x="568" 
d="M200 602l87 152h81l-120 -152h-48z" />
    <glyph glyph-name="uni02CB" unicode="&#x2cb;" horiz-adv-x="568" 
d="M320 602l-120 152h81l87 -152h-48z" />
    <glyph glyph-name="breve" unicode="&#x2d8;" horiz-adv-x="568" 
d="M284 600q-62 0 -98 31t-36 83q0 16 3 26h46l2 -23q6 -69 83 -69t83 69l2 23h46q3 -10 3 -26q0 -52 -36 -83t-98 -31z" />
    <glyph glyph-name="dotaccent" unicode="&#x2d9;" horiz-adv-x="568" 
d="M284 611q-20 0 -31.5 12t-11.5 32t11.5 32t31.5 12t31.5 -12t11.5 -32t-11.5 -32t-31.5 -12z" />
    <glyph glyph-name="ring" unicode="&#x2da;" horiz-adv-x="568" 
d="M284 584q-47 0 -76.5 27t-29.5 72t29.5 72t76.5 27t76.5 -27t29.5 -72t-29.5 -72t-76.5 -27zM284 624q28 0 43 15.5t15 43.5t-15 43.5t-43 15.5t-43 -15.5t-15 -43.5t15 -43.5t43 -15.5z" />
    <glyph glyph-name="ogonek" unicode="&#x2db;" horiz-adv-x="568" 
d="M347 0q-42 -32 -64.5 -66t-22.5 -64q0 -43 59 -43q19 0 42 5v-40q-26 -10 -57 -10q-47 0 -72.5 21t-25.5 60q0 40 26.5 79t72.5 68z" />
    <glyph glyph-name="tilde" unicode="&#x2dc;" horiz-adv-x="568" 
d="M355 656q34 0 37 48l1 19h43q3 -10 3 -24q0 -42 -23 -65t-63 -23q-43 0 -79 35q-20 19 -34 27t-28 8q-34 0 -37 -48l-1 -19h-43q-3 11 -3 24q0 42 23 65t63 23q43 0 79 -35q20 -19 34 -27t28 -8z" />
    <glyph glyph-name="hungarumlaut" unicode="&#x2dd;" horiz-adv-x="568" 
d="M119 601l87 152h81l-120 -152h-48zM281 601l87 152h81l-120 -152h-48z" />
    <glyph glyph-name="gravecomb" unicode="&#x300;" horiz-adv-x="0" 
d="M-24 602l-120 152h81l87 -152h-48z" />
    <glyph glyph-name="acutecomb" unicode="&#x301;" horiz-adv-x="0" 
d="M-24 602l87 152h81l-120 -152h-48z" />
    <glyph glyph-name="uni0302" unicode="&#x302;" horiz-adv-x="0" 
d="M104 602l-104 109l-104 -109h-59l132 152h62l132 -152h-59z" />
    <glyph glyph-name="tildecomb" unicode="&#x303;" horiz-adv-x="0" 
d="M72 656q34 0 37 48l1 19h43q3 -10 3 -24q0 -42 -23 -65t-63 -23q-43 0 -79 35q-20 19 -34 27t-28 8q-34 0 -37 -48l-1 -19h-43q-3 11 -3 24q0 42 23 65t63 23q43 0 79 -35q20 -19 34 -27t28 -8z" />
    <glyph glyph-name="uni0304" unicode="&#x304;" horiz-adv-x="0" 
d="M-153 646v47h306v-47h-306z" />
    <glyph glyph-name="uni0306" unicode="&#x306;" horiz-adv-x="0" 
d="M0 600q-62 0 -98 31t-36 83q0 16 3 26h46l2 -23q6 -69 83 -69t83 69l2 23h46q3 -10 3 -26q0 -52 -36 -83t-98 -31z" />
    <glyph glyph-name="uni0307" unicode="&#x307;" horiz-adv-x="0" 
d="M0 611q-20 0 -31.5 12t-11.5 32t11.5 32t31.5 12t31.5 -12t11.5 -32t-11.5 -32t-31.5 -12z" />
    <glyph glyph-name="uni0308" unicode="&#x308;" horiz-adv-x="0" 
d="M-101 607q-19 0 -30.5 11.5t-11.5 31.5q0 21 11.5 32.5t30.5 11.5t30.5 -11.5t11.5 -31.5q0 -21 -11.5 -32.5t-30.5 -11.5zM101 607q-19 0 -30.5 11.5t-11.5 31.5q0 21 11.5 32.5t30.5 11.5t30.5 -11.5t11.5 -31.5q0 -21 -11.5 -32.5t-30.5 -11.5z" />
    <glyph glyph-name="uni030A" unicode="&#x30a;" horiz-adv-x="0" 
d="M0 584q-47 0 -76.5 27t-29.5 72t29.5 72t76.5 27t76.5 -27t29.5 -72t-29.5 -72t-76.5 -27zM0 624q28 0 43 15.5t15 43.5t-15 43.5t-43 15.5t-43 -15.5t-15 -43.5t15 -43.5t43 -15.5z" />
    <glyph glyph-name="uni030B" unicode="&#x30b;" horiz-adv-x="0" 
d="M-98 601l87 152h81l-120 -152h-48zM64 601l87 152h81l-120 -152h-48z" />
    <glyph glyph-name="uni030C" unicode="&#x30c;" horiz-adv-x="0" 
d="M-30 602l-133 152h70l93 -118l93 118h70l-133 -152h-60z" />
    <glyph glyph-name="uni0312" unicode="&#x312;" horiz-adv-x="0" 
d="M59 798l-35 -210h-20q-20 0 -29 5.5t-9 17.5q0 9 12 47l40 140h41z" />
    <glyph glyph-name="uni0315" unicode="&#x315;" horiz-adv-x="0" 
d="M-20 553v192q16 7 32 7q20 0 33 -10l-25 -189h-40z" />
    <glyph glyph-name="uni0326" unicode="&#x326;" horiz-adv-x="0" 
d="M-58 -270l34 202h20q20 0 29 -5.5t9 -17.5q0 -9 -12 -47l-39 -132h-41z" />
    <glyph glyph-name="uni0327" unicode="&#x327;" horiz-adv-x="0" 
d="M-24 -66q39 0 62.5 -18.5t23.5 -49.5q0 -37 -29 -74t-83 -66l-31 26q43 28 66 56.5t23 50.5q0 30 -44 30q-20 0 -41 -3v40q27 8 53 8z" />
    <glyph glyph-name="uni0328" unicode="&#x328;" horiz-adv-x="0" 
d="M0 0q-42 -32 -64.5 -66t-22.5 -64q0 -43 59 -43q19 0 42 5v-40q-26 -10 -57 -10q-47 0 -72.5 21t-25.5 60q0 40 26.5 79t72.5 68z" />
    <glyph glyph-name="uni0344" unicode="&#x344;" horiz-adv-x="0" 
d="M-102 607q-19 0 -30 11.5t-11 30.5q0 20 11.5 31.5t29.5 11.5q19 0 30 -11.5t11 -30.5q0 -20 -11.5 -31.5t-29.5 -11.5zM102 607q-19 0 -30 11.5t-11 30.5q0 20 11.5 31.5t29.5 11.5q19 0 30 -11.5t11 -30.5q0 -20 -11.5 -31.5t-29.5 -11.5zM34 860h72l-88 -154h-44z" />
    <glyph glyph-name="uni0374" unicode="&#x374;" horiz-adv-x="238" 
d="M102 476h-44l73 217q19 8 37 8t34 -8z" />
    <glyph glyph-name="uni0375" unicode="&#x375;" horiz-adv-x="238" 
d="M58 -218l73 218q19 8 37 8t34 -8l-100 -218h-44z" />
    <glyph glyph-name="uni037E" unicode="&#x37e;" horiz-adv-x="214" 
d="M33 -147l44 230h24q20 0 29 -5.5t9 -17.5q0 -10 -11 -47l-51 -160h-44zM107 416q-20 0 -32.5 13t-12.5 33q0 21 12.5 34t32.5 13t32.5 -13t12.5 -34q0 -20 -12.5 -33t-32.5 -13z" />
    <glyph glyph-name="tonos" unicode="&#x384;" horiz-adv-x="568" 
d="M279 766h74l-94 -164h-44z" />
    <glyph glyph-name="dieresistonos" unicode="&#x385;" horiz-adv-x="568" 
d="M182 607q-19 0 -30 11.5t-11 30.5q0 20 11.5 31.5t29.5 11.5q19 0 30 -11.5t11 -30.5q0 -20 -11.5 -31.5t-29.5 -11.5zM386 607q-19 0 -30 11.5t-11 30.5q0 20 11.5 31.5t29.5 11.5q19 0 30 -11.5t11 -30.5q0 -20 -11.5 -31.5t-29.5 -11.5zM318 860h72l-88 -154h-44z" />
    <glyph glyph-name="Alphatonos" unicode="&#x386;" horiz-adv-x="617" 
d="M543 0l-78 208h-320l-78 -208h-58l266 693h63l266 -693h-61zM164 257h283l-142 374zM12 529l64 164h76l-94 -164h-46z" />
    <glyph glyph-name="anoteleia" unicode="&#x387;" horiz-adv-x="214" 
d="M107 416q-20 0 -32.5 13t-12.5 33q0 21 12.5 34t32.5 13t32.5 -13t12.5 -34q0 -20 -12.5 -33t-32.5 -13z" />
    <glyph glyph-name="Epsilontonos" unicode="&#x388;" horiz-adv-x="670" 
d="M211 0v693h409v-53h-350v-255h300v-53h-300v-279h350v-53h-409zM8 529l64 164h76l-94 -164h-46z" />
    <glyph glyph-name="Etatonos" unicode="&#x389;" horiz-adv-x="830" 
d="M683 0v328h-408v-328h-59v693h59v-312h408v312h59v-693h-59zM8 529l64 164h76l-94 -164h-46z" />
    <glyph glyph-name="Iotatonos" unicode="&#x38a;" horiz-adv-x="367" 
d="M216 0v693h59v-693h-59zM8 529l64 164h76l-94 -164h-46z" />
    <glyph glyph-name="Omicrontonos" unicode="&#x38c;" horiz-adv-x="854" 
d="M212 345q0 -151 65 -229t191 -78t191 78t65 229t-65 229t-191 78t-191 -78t-65 -229zM150 345q0 171 84 266.5t234 95.5t234 -95.5t84 -266.5t-84 -266.5t-234 -95.5t-234 95.5t-84 266.5zM8 529l64 164h76l-94 -164h-46z" />
    <glyph glyph-name="Upsilontonos" unicode="&#x38e;" horiz-adv-x="767" 
d="M445 0v251l-241 442h67l205 -386l209 386h64l-245 -444v-249h-59zM8 529l64 164h76l-94 -164h-46z" />
    <glyph glyph-name="Omegatonos" unicode="&#x38f;" horiz-adv-x="845" 
d="M547 0v51q82 46 126 128t44 189q0 284 -249 284t-249 -284q0 -107 44 -189t126 -128v-51h-254v51h178q-74 50 -114 132.5t-40 185.5q0 161 81 249.5t228 88.5t228 -88.5t81 -249.5q0 -103 -40 -185.5t-114 -132.5h178v-51h-254zM8 529l64 164h76l-94 -164h-46z" />
    <glyph glyph-name="iotadieresistonos" unicode="&#x390;" horiz-adv-x="250" 
d="M226 4q-25 -7 -57 -7q-43 0 -67 23.5t-24 66.5v416h57v-414q0 -23 10.5 -32.5t36.5 -9.5q20 0 44 3v-46zM4 607q-19 0 -30 11.5t-11 30.5q0 20 11.5 31.5t29.5 11.5q19 0 30 -11.5t11 -30.5q0 -20 -11.5 -31.5t-29.5 -11.5zM208 607q-19 0 -30 11.5t-11 30.5
q0 20 11.5 31.5t29.5 11.5q19 0 30 -11.5t11 -30.5q0 -20 -11.5 -31.5t-29.5 -11.5zM140 860h72l-88 -154h-44z" />
    <glyph glyph-name="Alpha" unicode="&#x391;" horiz-adv-x="623" 
d="M548 0l-78 208h-320l-78 -208h-58l266 693h63l266 -693h-61zM169 257h283l-142 374z" />
    <glyph glyph-name="Beta" unicode="&#x392;" horiz-adv-x="596" 
d="M88 0v693h211q94 0 151 -49.5t57 -132.5q0 -107 -92 -149q63 -18 97 -62t34 -109q0 -88 -57.5 -139.5t-152.5 -51.5h-248zM145 328v-275h189q74 0 112 35t38 103t-37.5 102.5t-110.5 34.5h-191zM145 640v-259h152q148 0 148 130q0 129 -148 129h-152z" />
    <glyph glyph-name="Gamma" unicode="&#x393;" horiz-adv-x="485" 
d="M88 0v693h379v-53h-320v-640h-59z" />
    <glyph glyph-name="uni0394" unicode="&#x394;" horiz-adv-x="629" 
d="M34 0v51l247 642h67l247 -642v-51h-561zM313 638l-220 -587h439z" />
    <glyph glyph-name="Epsilon" unicode="&#x395;" horiz-adv-x="547" 
d="M88 0v693h409v-53h-350v-255h300v-53h-300v-279h350v-53h-409z" />
    <glyph glyph-name="Zeta" unicode="&#x396;" horiz-adv-x="565" 
d="M46 0v53l406 587h-381v53h448v-52l-409 -588h406v-53h-470z" />
    <glyph glyph-name="Eta" unicode="&#x397;" horiz-adv-x="702" 
d="M555 0v328h-408v-328h-59v693h59v-312h408v312h59v-693h-59z" />
    <glyph glyph-name="Theta" unicode="&#x398;" horiz-adv-x="772" 
d="M386 38q126 0 191 78t65 229t-65 229t-191 78t-191 -78t-65 -229t65 -229t191 -78zM386 -17q-150 0 -234 95.5t-84 266.5t84 266.5t234 95.5t234 -95.5t84 -266.5t-84 -266.5t-234 -95.5zM228 323v53h316v-53h-316z" />
    <glyph glyph-name="Iota" unicode="&#x399;" horiz-adv-x="243" 
d="M92 0v693h59v-693h-59z" />
    <glyph glyph-name="Kappa" unicode="&#x39a;" horiz-adv-x="569" 
d="M88 0v693h59v-321l318 321h76l-336 -338l364 -355h-81l-341 332v-332h-59z" />
    <glyph glyph-name="Lambda" unicode="&#x39b;" horiz-adv-x="610" 
d="M534 0l-230 620l-230 -620h-60l263 693h58l261 -693h-62z" />
    <glyph glyph-name="Mu" unicode="&#x39c;" horiz-adv-x="820" 
d="M676 0v604l-238 -419h-56l-238 416v-601h-56v693h70l254 -446l252 446h68v-693h-56z" />
    <glyph glyph-name="Nu" unicode="&#x39d;" horiz-adv-x="696" 
d="M145 606v-606h-57v693h68l395 -608v608h57v-693h-68z" />
    <glyph glyph-name="Xi" unicode="&#x39e;" horiz-adv-x="562" 
d="M44 0v57h474v-57h-474zM100 330v57h362v-57h-362zM58 636v57h446v-57h-446z" />
    <glyph glyph-name="Omicron" unicode="&#x39f;" horiz-adv-x="772" 
d="M130 345q0 -151 65 -229t191 -78t191 78t65 229t-65 229t-191 78t-191 -78t-65 -229zM68 345q0 171 84 266.5t234 95.5t234 -95.5t84 -266.5t-84 -266.5t-234 -95.5t-234 95.5t-84 266.5z" />
    <glyph glyph-name="Pi" unicode="&#x3a0;" horiz-adv-x="675" 
d="M528 0v640h-381v-640h-59v693h499v-693h-59z" />
    <glyph glyph-name="Rho" unicode="&#x3a1;" horiz-adv-x="583" 
d="M145 282v-282h-57v693h239q95 0 151.5 -56t56.5 -150q0 -93 -56.5 -149t-151.5 -56h-182zM145 335h180q148 0 148 152q0 153 -148 153h-180v-305z" />
    <glyph glyph-name="Sigma" unicode="&#x3a3;" horiz-adv-x="564" 
d="M134 640l224 -284l-241 -303h417v-53h-488v51l239 303l-225 288v51h465v-53h-391z" />
    <glyph glyph-name="Tau" unicode="&#x3a4;" horiz-adv-x="555" 
d="M248 0v640h-230v53h519v-53h-230v-640h-59z" />
    <glyph glyph-name="Upsilon" unicode="&#x3a5;" horiz-adv-x="581" 
d="M259 0v251l-241 442h67l205 -386l209 386h64l-245 -444v-249h-59z" />
    <glyph glyph-name="Phi" unicode="&#x3a6;" horiz-adv-x="821" 
d="M382 55q-155 3 -238.5 79t-83.5 213t83.5 213t238.5 79v84h57v-84q155 -3 238.5 -79t83.5 -213t-83.5 -213t-238.5 -79v-85h-57v85zM701 347q0 116 -66 177.5t-196 64.5v-484q130 3 196 64.5t66 177.5zM382 589q-130 -3 -196 -64.5t-66 -177.5t66 -177.5t196 -64.5v484z
" />
    <glyph glyph-name="Chi" unicode="&#x3a7;" horiz-adv-x="582" 
d="M499 0l-211 313l-209 -313h-67l245 358l-229 335h70l195 -290l195 290h66l-229 -333l245 -360h-71z" />
    <glyph glyph-name="Psi" unicode="&#x3a8;" horiz-adv-x="784" 
d="M363 0v186q-141 6 -216 78.5t-75 203.5v225h58v-221q0 -111 59.5 -169.5t173.5 -62.5v453h58v-453q114 4 173.5 62.5t59.5 169.5v221h58v-225q0 -131 -75 -203.5t-216 -78.5v-186h-58z" />
    <glyph glyph-name="uni03A9" unicode="&#x3a9;" horiz-adv-x="754" 
d="M456 0v51q82 46 126 128t44 189q0 284 -249 284t-249 -284q0 -107 44 -189t126 -128v-51h-254v51h178q-74 50 -114 132.5t-40 185.5q0 161 81 249.5t228 88.5t228 -88.5t81 -249.5q0 -103 -40 -185.5t-114 -132.5h178v-51h-254z" />
    <glyph glyph-name="Iotadieresis" unicode="&#x3aa;" horiz-adv-x="243" 
d="M92 0v693h59v-693h-59zM22 785q-20 0 -32 12.5t-12 32.5t12 32.5t32 12.5t32 -12.5t12 -32.5t-12 -32.5t-32 -12.5zM220 785q-20 0 -32 12.5t-12 32.5t12 32.5t32 12.5t32 -12.5t12 -32.5t-12 -32.5t-32 -12.5z" />
    <glyph glyph-name="Upsilondieresis" unicode="&#x3ab;" horiz-adv-x="581" 
d="M259 0v251l-241 442h67l205 -386l209 386h64l-245 -444v-249h-59zM193 785q-20 0 -32 12.5t-12 32.5t12 32.5t32 12.5t32 -12.5t12 -32.5t-12 -32.5t-32 -12.5zM391 785q-20 0 -32 12.5t-12 32.5t12 32.5t32 12.5t32 -12.5t12 -32.5t-12 -32.5t-32 -12.5z" />
    <glyph glyph-name="alphatonos" unicode="&#x3ac;" horiz-adv-x="589" 
d="M579 4q-25 -7 -54 -7q-51 0 -73.5 32t-25.5 109q-21 -72 -69.5 -112.5t-113.5 -40.5q-86 0 -138.5 71t-52.5 187q0 77 24.5 139.5t71 99t106.5 36.5q134 0 181 -159q8 64 26 144h57l-14 -67q-28 -142 -28 -258q0 -52 6.5 -80.5t20.5 -40.5q13 -10 36 -10q21 0 40 3v-46z
M253 37q67 0 112 61.5t59 171.5q-49 196 -167 196q-68 0 -107 -59t-39 -162q0 -95 38.5 -151.5t103.5 -56.5zM310 766h74l-94 -164h-44z" />
    <glyph glyph-name="epsilontonos" unicode="&#x3ad;" horiz-adv-x="462" 
d="M424 22q-32 -18 -76 -27.5t-94 -9.5q-96 0 -149 39.5t-53 110.5q0 49 30 83.5t85 48.5q-50 14 -75.5 43t-25.5 70q0 65 49.5 101.5t137.5 36.5q87 0 154 -32v-46q-90 26 -156 26q-62 0 -94.5 -21.5t-32.5 -61.5q0 -45 36.5 -69t106.5 -24h82v-50h-86q-153 0 -153 -101
q0 -102 147 -102q80 0 167 31v-46zM290 766h74l-94 -164h-44z" />
    <glyph glyph-name="etatonos" unicode="&#x3ae;" horiz-adv-x="582" 
d="M449 342q0 65 -25 94.5t-80 29.5q-100 0 -195 -64v-402h-57v419q0 22 -8 31t-29 9q-14 0 -37 -3v46q24 7 48 7q70 0 80 -65q50 36 104.5 55t105.5 19q73 0 111.5 -38.5t38.5 -113.5v-572h-57v548zM335 766h74l-94 -164h-44z" />
    <glyph glyph-name="iotatonos" unicode="&#x3af;" horiz-adv-x="250" 
d="M226 4q-25 -7 -57 -7q-43 0 -67 23.5t-24 66.5v416h57v-414q0 -23 10.5 -32.5t36.5 -9.5q20 0 44 3v-46zM148 766h74l-94 -164h-44z" />
    <glyph glyph-name="upsilondieresistonos" unicode="&#x3b0;" horiz-adv-x="544" 
d="M273 -15q-89 0 -137 58t-48 166v210q0 22 -8 31t-29 9q-14 0 -37 -3v46q24 7 48 7q83 0 83 -87v-211q0 -90 30.5 -132t97.5 -42q79 0 119.5 55t40.5 162q0 58 -13.5 126t-36.5 123h56q24 -56 37.5 -119.5t13.5 -122.5q0 -131 -57 -203.5t-160 -72.5zM158 607
q-19 0 -30 11.5t-11 30.5q0 20 11.5 31.5t29.5 11.5q19 0 30 -11.5t11 -30.5q0 -20 -11.5 -31.5t-29.5 -11.5zM362 607q-19 0 -30 11.5t-11 30.5q0 20 11.5 31.5t29.5 11.5q19 0 30 -11.5t11 -30.5q0 -20 -11.5 -31.5t-29.5 -11.5zM294 860h72l-88 -154h-44z" />
    <glyph glyph-name="alpha" unicode="&#x3b1;" horiz-adv-x="589" 
d="M579 4q-25 -7 -54 -7q-51 0 -73.5 32t-25.5 109q-21 -72 -69.5 -112.5t-113.5 -40.5q-86 0 -138.5 71t-52.5 187q0 77 24.5 139.5t71 99t106.5 36.5q134 0 181 -159q8 64 26 144h57l-14 -67q-28 -142 -28 -258q0 -52 6.5 -80.5t20.5 -40.5q13 -10 36 -10q21 0 40 3v-46z
M253 37q67 0 112 61.5t59 171.5q-49 196 -167 196q-68 0 -107 -59t-39 -162q0 -95 38.5 -151.5t103.5 -56.5z" />
    <glyph glyph-name="beta" unicode="&#x3b2;" horiz-adv-x="569" 
d="M78 -206v709q0 122 55.5 186.5t157.5 64.5q81 0 131.5 -48.5t50.5 -128.5q0 -72 -26 -115t-81 -62q74 -16 112.5 -66.5t38.5 -129.5q0 -97 -57 -156t-155 -59q-46 0 -91 15.5t-79 42.5v-253h-57zM135 95q36 -26 78 -40t85 -14q78 0 119 40.5t41 118.5q0 83 -47.5 125
t-141.5 42h-42v50h39q70 0 110 41t40 114q0 61 -36 97t-96 36q-149 0 -149 -200v-410z" />
    <glyph glyph-name="gamma" unicode="&#x3b3;" horiz-adv-x="477" 
d="M203 -206l-2 39q-7 132 -52 287t-141 383h62q115 -274 154 -466q121 195 175 466h57q-28 -145 -84 -280.5t-132 -243.5q10 -53 18 -150l2 -35h-57z" />
    <glyph glyph-name="delta" unicode="&#x3b4;" horiz-adv-x="556" 
d="M278 -15q-104 0 -165 64t-61 174q0 91 47.5 159t131.5 98q-61 34 -86 65.5t-25 73.5q0 61 48.5 98t128.5 37q41 0 82.5 -9t71.5 -25v-47q-76 29 -156 29q-56 0 -86.5 -20t-30.5 -57q0 -34 23 -58t89 -60q117 -63 165.5 -125.5t48.5 -150.5q0 -72 -27.5 -127.5t-78.5 -87
t-120 -31.5zM445 227q0 52 -17.5 91t-55 72.5t-99.5 67.5q-162 -58 -162 -234q0 -88 45 -137.5t124 -49.5q78 0 121.5 50t43.5 140z" />
    <glyph glyph-name="epsilon" unicode="&#x3b5;" horiz-adv-x="462" 
d="M424 22q-32 -18 -76 -27.5t-94 -9.5q-96 0 -149 39.5t-53 110.5q0 49 30 83.5t85 48.5q-50 14 -75.5 43t-25.5 70q0 65 49.5 101.5t137.5 36.5q87 0 154 -32v-46q-90 26 -156 26q-62 0 -94.5 -21.5t-32.5 -61.5q0 -45 36.5 -69t106.5 -24h82v-50h-86q-153 0 -153 -101
q0 -102 147 -102q80 0 167 31v-46z" />
    <glyph glyph-name="zeta" unicode="&#x3b6;" horiz-adv-x="412" 
d="M330 -206q26 78 26 118q0 33 -17.5 48.5t-72.5 30.5l-40 11q-91 25 -132.5 74.5t-41.5 135.5q0 81 29.5 154.5t92.5 151t168 172.5h-270v50h334v-50q-157 -146 -226 -255.5t-69 -214.5q0 -70 32 -109t106 -59l37 -10q71 -20 100 -47t29 -73q0 -58 -34 -128h-51z" />
    <glyph glyph-name="eta" unicode="&#x3b7;" horiz-adv-x="582" 
d="M449 342q0 65 -25 94.5t-80 29.5q-100 0 -195 -64v-402h-57v419q0 22 -8 31t-29 9q-14 0 -37 -3v46q24 7 48 7q70 0 80 -65q50 36 104.5 55t105.5 19q73 0 111.5 -38.5t38.5 -113.5v-572h-57v548z" />
    <glyph glyph-name="theta" unicode="&#x3b8;" horiz-adv-x="562" 
d="M281 -15q-114 0 -169.5 95.5t-55.5 289.5q0 384 225 384q114 0 169.5 -95.5t55.5 -289.5q0 -384 -225 -384zM113 345q2 -159 42 -233.5t126 -74.5q84 0 124.5 74.5t43.5 233.5h-336zM281 702q-84 0 -124.5 -74.5t-43.5 -232.5h336q-2 159 -42.5 233t-125.5 74z" />
    <glyph glyph-name="iota" unicode="&#x3b9;" horiz-adv-x="250" 
d="M226 4q-25 -7 -57 -7q-43 0 -67 23.5t-24 66.5v416h57v-414q0 -23 10.5 -32.5t36.5 -9.5q20 0 44 3v-46z" />
    <glyph glyph-name="kappa" unicode="&#x3ba;" horiz-adv-x="481" 
d="M78 0v503h57v-272l244 272h70l-200 -216l230 -287h-70l-198 249l-76 -81v-168h-57z" />
    <glyph glyph-name="lambda" unicode="&#x3bb;" horiz-adv-x="487" 
d="M417 0l-164 439l-178 -439h-61l214 503l-45 119q-18 46 -36 63.5t-49 17.5q-23 0 -51 -5v45q27 11 56 11q48 0 76.5 -26.5t54.5 -93.5l243 -634h-60z" />
    <glyph glyph-name="uni03BC" unicode="&#x3bc;" horiz-adv-x="578" 
d="M79 503h57v-341q0 -125 115 -125q46 0 86 15.5t87 52.5v398h57v-418q0 -21 9 -29.5t31 -8.5q16 0 34 3v-46q-28 -7 -49 -7q-31 0 -51.5 16t-27.5 47q-40 -36 -87 -55.5t-93 -19.5q-78 0 -111 41v-232h-57v709z" />
    <glyph glyph-name="nu" unicode="&#x3bd;" horiz-adv-x="478" 
d="M204 0l-194 503h62l165 -451q60 105 104 226t59 225h57q-17 -116 -70.5 -252.5t-124.5 -250.5h-58z" />
    <glyph glyph-name="xi" unicode="&#x3be;" horiz-adv-x="426" 
d="M335 -206q26 79 26 118q0 24 -8.5 37t-28 23t-57.5 20l-37 10q-96 25 -137 70t-41 124q0 74 39.5 125.5t110.5 68.5q-126 39 -126 171q0 87 57 140t150 53q68 0 126 -24v-47q-62 19 -123 19q-72 0 -112 -37t-40 -103q0 -69 43.5 -107.5t123.5 -38.5h56v-50h-63
q-86 0 -134.5 -43.5t-48.5 -119.5q0 -64 31.5 -97.5t110.5 -53.5l38 -10q70 -19 99.5 -46.5t29.5 -73.5q0 -58 -34 -128h-51z" />
    <glyph glyph-name="omicron" unicode="&#x3bf;" horiz-adv-x="560" 
d="M280 -15q-107 0 -167.5 70.5t-60.5 196.5q0 125 60.5 195.5t167.5 70.5t167.5 -70.5t60.5 -195.5q0 -126 -60.5 -196.5t-167.5 -70.5zM280 37q169 0 169 215q0 214 -169 214t-169 -214q0 -215 169 -215z" />
    <glyph glyph-name="pi" unicode="&#x3c0;" horiz-adv-x="607" 
d="M564 4q-27 -7 -57 -7q-43 0 -67 24t-24 67v365h-233v-453h-57v453h-106v50h559v-50h-106v-364q0 -23 10.5 -32.5t36.5 -9.5q20 0 44 3v-46z" />
    <glyph glyph-name="rho" unicode="&#x3c1;" horiz-adv-x="565" 
d="M70 -206v459q0 123 60.5 194t165.5 71q103 0 160 -68.5t57 -191.5q0 -124 -59 -196.5t-159 -72.5q-94 0 -168 68v-263h-57zM127 109q41 -36 80 -52t82 -16q82 0 123.5 53.5t41.5 159.5q0 212 -160 212q-82 0 -124.5 -54.5t-42.5 -158.5v-144z" />
    <glyph glyph-name="sigma1" unicode="&#x3c2;" horiz-adv-x="443" 
d="M328 -206q26 77 26 118q0 33 -19 49t-71 30l-40 11q-77 23 -117 67q-28 31 -41.5 75t-13.5 107q0 128 61 195.5t177 67.5q62 0 117 -24v-47q-55 18 -114 18q-95 0 -137.5 -48.5t-42.5 -155.5v-12q0 -55 10.5 -89.5t34.5 -57.5q30 -30 89 -46l37 -10q71 -20 100 -47
t29 -73q0 -58 -34 -128h-51z" />
    <glyph glyph-name="sigma" unicode="&#x3c3;" horiz-adv-x="581" 
d="M398 453q48 -41 73 -97.5t25 -123.5q0 -114 -59.5 -180.5t-162.5 -66.5q-101 0 -161.5 69.5t-60.5 185.5q0 122 67 192.5t184 70.5h246v-50h-151zM437 233q0 71 -26.5 128.5t-74.5 91.5h-37q-92 0 -140 -54.5t-48 -158.5q0 -97 42.5 -150t121.5 -53t120.5 50.5
t41.5 145.5z" />
    <glyph glyph-name="tau" unicode="&#x3c4;" horiz-adv-x="436" 
d="M365 12q-37 -15 -86 -15q-53 0 -81 27t-28 79v350h-158v50h404v-50h-189v-349q0 -32 14 -44.5t50 -12.5q37 0 74 9v-44z" />
    <glyph glyph-name="upsilon" unicode="&#x3c5;" horiz-adv-x="544" 
d="M273 -15q-89 0 -137 58t-48 166v210q0 22 -8 31t-29 9q-14 0 -37 -3v46q24 7 48 7q83 0 83 -87v-211q0 -90 30.5 -132t97.5 -42q79 0 119.5 55t40.5 162q0 58 -13.5 126t-36.5 123h56q24 -56 37.5 -119.5t13.5 -122.5q0 -131 -57 -203.5t-160 -72.5z" />
    <glyph glyph-name="phi" unicode="&#x3c6;" horiz-adv-x="741" 
d="M343 -206v191q-91 1 -156 32t-100 90.5t-35 143.5q0 83 34 142.5t99 91.5t158 33v121h55v-121q91 -1 156 -32t100 -90.5t35 -143.5q0 -83 -34 -142.5t-99 -91.5t-158 -33v-191h-55zM631 252q0 211 -233 217v-435q233 6 233 218zM343 469q-233 -6 -233 -218
q0 -211 233 -217v435z" />
    <glyph glyph-name="chi" unicode="&#x3c7;" horiz-adv-x="458" 
d="M15 -206l188 371l-96 222q-20 46 -32.5 59t-34.5 13q-13 0 -30 -3v46q23 7 44 7q35 0 56.5 -21t46.5 -80l82 -190l146 285h61l-180 -341l112 -259q19 -43 29 -54t31 -11q14 0 30 3v-46q-23 -7 -44 -7q-34 0 -53.5 20t-45.5 81l-94 217l-155 -312h-61z" />
    <glyph glyph-name="psi" unicode="&#x3c8;" horiz-adv-x="704" 
d="M380 -206h-56v191q-129 3 -198.5 76.5t-69.5 207.5v234h57v-230q0 -115 53 -175t158 -63v604h56v-604q105 3 158 63t53 175v230h57v-234q0 -134 -69.5 -207.5t-198.5 -76.5v-191z" />
    <glyph glyph-name="omega" unicode="&#x3c9;" horiz-adv-x="725" 
d="M219 -10q-77 0 -122 62.5t-45 166.5q0 73 27.5 150.5t72.5 133.5h60q-53 -77 -77 -145.5t-24 -142.5q0 -83 29 -128t83 -45q111 0 111 162v136h57v-136q0 -162 111 -162q54 0 83 45t29 128q0 74 -24 142.5t-77 145.5h60q45 -56 72.5 -133.5t27.5 -150.5
q0 -104 -45 -166.5t-122 -62.5q-54 0 -90.5 28.5t-53.5 82.5q-39 -111 -143 -111z" />
    <glyph glyph-name="iotadieresis" unicode="&#x3ca;" horiz-adv-x="250" 
d="M226 4q-25 -7 -57 -7q-43 0 -67 23.5t-24 66.5v416h57v-414q0 -23 10.5 -32.5t36.5 -9.5q20 0 44 3v-46zM5 607q-19 0 -30.5 11.5t-11.5 31.5q0 21 11.5 32.5t30.5 11.5t30.5 -11.5t11.5 -31.5q0 -21 -11.5 -32.5t-30.5 -11.5zM207 607q-19 0 -30.5 11.5t-11.5 31.5
q0 21 11.5 32.5t30.5 11.5t30.5 -11.5t11.5 -31.5q0 -21 -11.5 -32.5t-30.5 -11.5z" />
    <glyph glyph-name="upsilondieresis" unicode="&#x3cb;" horiz-adv-x="544" 
d="M273 -15q-89 0 -137 58t-48 166v210q0 22 -8 31t-29 9q-14 0 -37 -3v46q24 7 48 7q83 0 83 -87v-211q0 -90 30.5 -132t97.5 -42q79 0 119.5 55t40.5 162q0 58 -13.5 126t-36.5 123h56q24 -56 37.5 -119.5t13.5 -122.5q0 -131 -57 -203.5t-160 -72.5zM159 607
q-19 0 -30.5 11.5t-11.5 31.5q0 21 11.5 32.5t30.5 11.5t30.5 -11.5t11.5 -31.5q0 -21 -11.5 -32.5t-30.5 -11.5zM361 607q-19 0 -30.5 11.5t-11.5 31.5q0 21 11.5 32.5t30.5 11.5t30.5 -11.5t11.5 -31.5q0 -21 -11.5 -32.5t-30.5 -11.5z" />
    <glyph glyph-name="omicrontonos" unicode="&#x3cc;" horiz-adv-x="560" 
d="M280 -15q-107 0 -167.5 70.5t-60.5 196.5q0 125 60.5 195.5t167.5 70.5t167.5 -70.5t60.5 -195.5q0 -126 -60.5 -196.5t-167.5 -70.5zM280 37q169 0 169 215q0 214 -169 214t-169 -214q0 -215 169 -215zM322 766h74l-94 -164h-44z" />
    <glyph glyph-name="upsilontonos" unicode="&#x3cd;" horiz-adv-x="544" 
d="M273 -15q-89 0 -137 58t-48 166v210q0 22 -8 31t-29 9q-14 0 -37 -3v46q24 7 48 7q83 0 83 -87v-211q0 -90 30.5 -132t97.5 -42q79 0 119.5 55t40.5 162q0 58 -13.5 126t-36.5 123h56q24 -56 37.5 -119.5t13.5 -122.5q0 -131 -57 -203.5t-160 -72.5zM302 766h74l-94 -164
h-44z" />
    <glyph glyph-name="omegatonos" unicode="&#x3ce;" horiz-adv-x="725" 
d="M219 -10q-77 0 -122 62.5t-45 166.5q0 73 27.5 150.5t72.5 133.5h60q-53 -77 -77 -145.5t-24 -142.5q0 -83 29 -128t83 -45q111 0 111 162v136h57v-136q0 -162 111 -162q54 0 83 45t29 128q0 74 -24 142.5t-77 145.5h60q45 -56 72.5 -133.5t27.5 -150.5
q0 -104 -45 -166.5t-122 -62.5q-54 0 -90.5 28.5t-53.5 82.5q-39 -111 -143 -111zM404 766h74l-94 -164h-44z" />
    <glyph glyph-name="uni03D7" unicode="&#x3d7;" horiz-adv-x="481" 
d="M78 0v503h57v-272l244 272h70l-200 -216l153 -191q20 -25 42 -41.5t43 -22.5v-21q0 -229 -209 -229q-52 0 -102 16v43q44 -11 92 -11q58 0 93.5 18t52.5 55t18 100q-36 16 -71 59l-150 187l-76 -81v-168h-57z" />
    <glyph glyph-name="uni0400" unicode="&#x400;" horiz-adv-x="547" 
d="M88 0v693h409v-53h-350v-255h300v-53h-300v-279h350v-53h-409zM263 769l-122 117h88l92 -117h-58z" />
    <glyph glyph-name="uni0401" unicode="&#x401;" horiz-adv-x="547" 
d="M88 0v693h409v-53h-350v-255h300v-53h-300v-279h350v-53h-409zM193 785q-20 0 -32 12.5t-12 32.5t12 32.5t32 12.5t32 -12.5t12 -32.5t-12 -32.5t-32 -12.5zM391 785q-20 0 -32 12.5t-12 32.5t12 32.5t32 12.5t32 -12.5t12 -32.5t-12 -32.5t-32 -12.5z" />
    <glyph glyph-name="uni0402" unicode="&#x402;" horiz-adv-x="748" 
d="M470 42q87 2 127 42t40 125q0 86 -45.5 125.5t-141.5 39.5q-82 0 -180 -22v-352h-59v640h-193v53h506v-53h-254v-239q106 28 197 28q231 0 231 -220q0 -105 -58.5 -163t-164.5 -58q-42 0 -84 13v48q36 -7 79 -7z" />
    <glyph glyph-name="uni0403" unicode="&#x403;" horiz-adv-x="485" 
d="M88 0v693h379v-53h-320v-640h-59zM248 769l92 117h88l-122 -117h-58z" />
    <glyph glyph-name="uni0404" unicode="&#x404;" horiz-adv-x="607" 
d="M397 -11q-166 0 -247.5 87.5t-81.5 267.5q0 177 84 267t250 90q42 0 84 -7.5t73 -19.5v-52q-85 22 -150 22q-138 0 -205.5 -63.5t-72.5 -199.5h361v-53h-361q1 -145 67 -213.5t204 -68.5q73 0 169 25v-52q-37 -14 -83 -22t-91 -8z" />
    <glyph glyph-name="uni0405" unicode="&#x405;" horiz-adv-x="556" 
d="M211 350q-77 30 -113 71.5t-36 102.5q0 83 59.5 134.5t156.5 51.5q44 0 92.5 -10.5t91.5 -29.5v-51q-102 36 -181 36q-77 0 -118 -33.5t-41 -95.5q0 -35 12.5 -56.5t41 -39t81.5 -37.5l107 -41q72 -28 105 -68.5t33 -101.5q0 -89 -65.5 -144t-172.5 -55q-111 0 -198 42
v51q105 -38 193 -38q83 0 132.5 39t49.5 106q0 41 -27 70t-87 52z" />
    <glyph glyph-name="uni0406" unicode="&#x406;" horiz-adv-x="243" 
d="M92 0v693h59v-693h-59z" />
    <glyph glyph-name="uni0407" unicode="&#x407;" horiz-adv-x="243" 
d="M92 0v693h59v-693h-59zM22 785q-20 0 -32 12.5t-12 32.5t12 32.5t32 12.5t32 -12.5t12 -32.5t-12 -32.5t-32 -12.5zM220 785q-20 0 -32 12.5t-12 32.5t12 32.5t32 12.5t32 -12.5t12 -32.5t-12 -32.5t-32 -12.5z" />
    <glyph glyph-name="uni0408" unicode="&#x408;" horiz-adv-x="421" 
d="M30 61q61 -23 117 -23q69 0 100 35.5t31 114.5v505h59v-504q0 -102 -48 -154t-142 -52q-62 0 -117 29v49z" />
    <glyph glyph-name="uni0409" unicode="&#x409;" horiz-adv-x="950" 
d="M480 640h-206q-18 -211 -37.5 -334t-43.5 -189.5t-56 -93.5t-76 -27q-20 0 -37 5v52q14 -1 22 -1q37 0 62.5 32.5t44 103t34 182t30.5 279.5l4 44h318v-291h151q97 0 153.5 -54t56.5 -147t-56.5 -147t-153.5 -54h-210v640zM539 349v-296h149q150 0 150 148t-150 148h-149
z" />
    <glyph glyph-name="uni040A" unicode="&#x40a;" horiz-adv-x="955" 
d="M88 693h59v-311h338v311h59v-311h151q97 0 153.5 -51t56.5 -140t-56.5 -140t-153.5 -51h-210v329h-338v-329h-59v693zM544 329v-276h149q150 0 150 138t-150 138h-149z" />
    <glyph glyph-name="uni040B" unicode="&#x40b;" horiz-adv-x="772" 
d="M270 401q49 14 108 22t107 8q103 0 157.5 -45t54.5 -131v-255h-59v243q0 69 -40 101t-127 32q-93 0 -201 -25v-351h-59v640h-193v53h506v-53h-254v-239z" />
    <glyph glyph-name="uni040C" unicode="&#x40c;" horiz-adv-x="569" 
d="M88 0v693h59v-326l318 326h76l-331 -338l359 -355h-81l-341 337v-337h-59zM262 769l92 117h88l-122 -117h-58z" />
    <glyph glyph-name="uni040D" unicode="&#x40d;" horiz-adv-x="713" 
d="M88 693h59v-600l421 600h57v-693h-59v599l-421 -599h-57v693zM322 769l-122 117h88l92 -117h-58z" />
    <glyph glyph-name="uni040E" unicode="&#x40e;" horiz-adv-x="568" 
d="M95 42q25 -2 43 -2q51 0 82 27.5t55 92.5l-267 533h65l230 -472l194 472h63l-236 -560q-32 -76 -75.5 -112t-103.5 -36q-21 0 -50 6v51zM295 767q-66 0 -107.5 33t-41.5 86q0 18 3 28h49l2 -26q3 -36 27.5 -55t67.5 -19t67.5 19t27.5 55l2 26h49q3 -10 3 -28
q0 -53 -41.5 -86t-107.5 -33z" />
    <glyph glyph-name="uni040F" unicode="&#x40f;" horiz-adv-x="663" 
d="M304 -176v176h-216v693h59v-640h369v640h59v-693h-216v-176h-55z" />
    <glyph glyph-name="uni0410" unicode="&#x410;" horiz-adv-x="623" 
d="M548 0l-78 208h-320l-78 -208h-58l266 693h63l266 -693h-61zM169 257h283l-142 374z" />
    <glyph glyph-name="uni0411" unicode="&#x411;" horiz-adv-x="578" 
d="M88 693h390v-53h-331v-238h171q97 0 153.5 -54t56.5 -147t-56.5 -147t-153.5 -54h-230v693zM147 349v-296h169q150 0 150 148t-150 148h-169z" />
    <glyph glyph-name="uni0412" unicode="&#x412;" horiz-adv-x="596" 
d="M88 0v693h211q94 0 151 -49.5t57 -132.5q0 -107 -92 -149q63 -18 97 -62t34 -109q0 -88 -57.5 -139.5t-152.5 -51.5h-248zM145 328v-275h189q74 0 112 35t38 103t-37.5 102.5t-110.5 34.5h-191zM145 640v-259h152q148 0 148 130q0 129 -148 129h-152z" />
    <glyph glyph-name="uni0413" unicode="&#x413;" horiz-adv-x="485" 
d="M88 0v693h379v-53h-320v-640h-59z" />
    <glyph glyph-name="uni0414" unicode="&#x414;" horiz-adv-x="715" 
d="M28 53h37q61 59 100.5 205t59.5 387l4 48h360v-640h88v-229h-55v176h-539v-176h-55v229zM283 640q-22 -241 -58.5 -386t-89.5 -201h395v587h-247z" />
    <glyph glyph-name="uni0415" unicode="&#x415;" horiz-adv-x="547" 
d="M88 0v693h409v-53h-350v-255h300v-53h-300v-279h350v-53h-409z" />
    <glyph glyph-name="uni0416" unicode="&#x416;" horiz-adv-x="833" 
d="M8 0l323 354l-301 339h72l286 -326v326h57v-326l286 326h72l-301 -339l323 -354h-76l-304 337v-337h-57v337l-304 -337h-76z" />
    <glyph glyph-name="uni0417" unicode="&#x417;" horiz-adv-x="538" 
d="M228 -15q-100 0 -192 38v50q65 -19 106.5 -26t83.5 -7q200 0 200 147q0 72 -40.5 107.5t-122.5 35.5h-127v50h97q175 0 175 138q0 66 -42.5 100t-124.5 34q-43 0 -83.5 -7.5t-104.5 -27.5v50q89 40 190 40q104 0 165.5 -51t61.5 -138q0 -57 -28 -97t-81 -60
q62 -19 94.5 -63.5t32.5 -110.5q0 -92 -70.5 -147t-189.5 -55z" />
    <glyph glyph-name="uni0418" unicode="&#x418;" horiz-adv-x="713" 
d="M88 693h59v-600l421 600h57v-693h-59v599l-421 -599h-57v693z" />
    <glyph glyph-name="uni0419" unicode="&#x419;" horiz-adv-x="713" 
d="M88 693h59v-600l421 600h57v-693h-59v599l-421 -599h-57v693zM351 767q-66 0 -107.5 33t-41.5 86q0 18 3 28h49l2 -26q3 -36 27.5 -55t67.5 -19t67.5 19t27.5 55l2 26h49q3 -10 3 -28q0 -53 -41.5 -86t-107.5 -33z" />
    <glyph glyph-name="uni041A" unicode="&#x41a;" horiz-adv-x="569" 
d="M88 0v693h59v-326l318 326h76l-331 -338l359 -355h-81l-341 337v-337h-59z" />
    <glyph glyph-name="uni041B" unicode="&#x41b;" horiz-adv-x="669" 
d="M522 0v640h-248q-18 -211 -37.5 -334t-43.5 -189.5t-56 -93.5t-76 -27q-20 0 -37 5v52q14 -1 22 -1q37 0 62.5 32.5t44 103t34 182t30.5 279.5l4 44h360v-693h-59z" />
    <glyph glyph-name="uni041C" unicode="&#x41c;" horiz-adv-x="820" 
d="M676 0v604l-238 -419h-56l-238 416v-601h-56v693h70l254 -446l252 446h68v-693h-56z" />
    <glyph glyph-name="uni041D" unicode="&#x41d;" horiz-adv-x="702" 
d="M555 0v328h-408v-328h-59v693h59v-312h408v312h59v-693h-59z" />
    <glyph glyph-name="uni041E" unicode="&#x41e;" horiz-adv-x="772" 
d="M130 345q0 -151 65 -229t191 -78t191 78t65 229t-65 229t-191 78t-191 -78t-65 -229zM68 345q0 171 84 266.5t234 95.5t234 -95.5t84 -266.5t-84 -266.5t-234 -95.5t-234 95.5t-84 266.5z" />
    <glyph glyph-name="uni041F" unicode="&#x41f;" horiz-adv-x="675" 
d="M528 0v640h-381v-640h-59v693h499v-693h-59z" />
    <glyph glyph-name="uni0420" unicode="&#x420;" horiz-adv-x="583" 
d="M145 282v-282h-57v693h239q95 0 151.5 -56t56.5 -150q0 -93 -56.5 -149t-151.5 -56h-182zM145 335h180q148 0 148 152q0 153 -148 153h-180v-305z" />
    <glyph glyph-name="uni0421" unicode="&#x421;" horiz-adv-x="597" 
d="M561 19q-77 -30 -169 -30q-160 0 -242 90t-82 265q0 174 85 265.5t244 91.5q86 0 154 -27v-52q-85 22 -147 22q-137 0 -204.5 -71.5t-67.5 -215.5v-25q0 -286 265 -286q68 0 164 25v-52z" />
    <glyph glyph-name="uni0422" unicode="&#x422;" horiz-adv-x="555" 
d="M248 0v640h-230v53h519v-53h-230v-640h-59z" />
    <glyph glyph-name="uni0423" unicode="&#x423;" horiz-adv-x="568" 
d="M95 42q25 -2 43 -2q51 0 82 27.5t55 92.5l-267 533h65l230 -472l194 472h63l-236 -560q-32 -76 -75.5 -112t-103.5 -36q-21 0 -50 6v51z" />
    <glyph glyph-name="uni0424" unicode="&#x424;" horiz-adv-x="821" 
d="M382 55q-155 3 -238.5 79t-83.5 213t83.5 213t238.5 79v84h57v-84q155 -3 238.5 -79t83.5 -213t-83.5 -213t-238.5 -79v-85h-57v85zM701 347q0 116 -66 177.5t-196 64.5v-484q130 3 196 64.5t66 177.5zM382 589q-130 -3 -196 -64.5t-66 -177.5t66 -177.5t196 -64.5v484z
" />
    <glyph glyph-name="uni0425" unicode="&#x425;" horiz-adv-x="582" 
d="M499 0l-211 313l-209 -313h-67l245 358l-229 335h70l195 -290l195 290h66l-229 -333l245 -360h-71z" />
    <glyph glyph-name="uni0426" unicode="&#x426;" horiz-adv-x="690" 
d="M597 -176v176h-509v693h59v-640h358v640h59v-640h88v-229h-55z" />
    <glyph glyph-name="uni0427" unicode="&#x427;" horiz-adv-x="642" 
d="M495 310q-53 -18 -112 -28t-111 -10q-98 0 -151 45t-53 127v249h59v-237q0 -66 38.5 -97.5t118.5 -31.5q108 0 211 33v333h59v-693h-59v310z" />
    <glyph glyph-name="uni0428" unicode="&#x428;" horiz-adv-x="959" 
d="M88 0v693h59v-640h303v640h59v-640h303v640h59v-693h-783z" />
    <glyph glyph-name="uni0429" unicode="&#x429;" horiz-adv-x="979" 
d="M886 -176v176h-798v693h59v-640h294v640h59v-640h294v640h59v-640h88v-229h-55z" />
    <glyph glyph-name="uni042A" unicode="&#x42a;" horiz-adv-x="681" 
d="M201 640h-183v53h242v-291h161q97 0 153.5 -54t56.5 -147t-56.5 -147t-153.5 -54h-220v640zM419 53q150 0 150 148t-150 148h-159v-296h159z" />
    <glyph glyph-name="uni042B" unicode="&#x42b;" horiz-adv-x="754" 
d="M88 693h59v-291h151q97 0 153.5 -54t56.5 -147t-56.5 -147t-153.5 -54h-210v693zM147 349v-296h149q150 0 150 148t-150 148h-149zM607 693h59v-693h-59v693z" />
    <glyph glyph-name="uni042C" unicode="&#x42c;" horiz-adv-x="596" 
d="M88 693h59v-291h189q97 0 153.5 -54t56.5 -147t-56.5 -147t-153.5 -54h-248v693zM147 349v-296h187q150 0 150 148t-150 148h-187z" />
    <glyph glyph-name="uni042D" unicode="&#x42d;" horiz-adv-x="607" 
d="M220 -11q-99 0 -184 34v50q102 -27 181 -27q134 0 196 68t63 214h-361v53h360q-4 135 -68 199t-195 64q-78 0 -164 -25v50q33 14 81.5 23t87.5 9q163 0 242.5 -87.5t79.5 -267.5q0 -181 -78.5 -269t-240.5 -88z" />
    <glyph glyph-name="uni042E" unicode="&#x42e;" horiz-adv-x="999" 
d="M88 693h58v-313h172q5 101 42.5 174.5t104 113t158.5 39.5q145 0 226.5 -95.5t81.5 -266.5t-81.5 -266.5t-226.5 -95.5q-141 0 -221.5 91t-84.5 255h-171v-329h-58v693zM623 38q121 0 183.5 78t62.5 229t-62.5 229t-183.5 78t-183.5 -78t-62.5 -229t62.5 -229t183.5 -78z
" />
    <glyph glyph-name="uni042F" unicode="&#x42f;" horiz-adv-x="587" 
d="M205 310q-68 16 -105 64.5t-37 122.5q0 90 56 143t152 53h228v-693h-57v303h-176l-180 -303h-74zM125 497q0 -70 40 -106.5t117 -36.5h160v286h-169q-148 0 -148 -143z" />
    <glyph glyph-name="uni0430" unicode="&#x430;" horiz-adv-x="512" 
d="M381 0l-5 58q-86 -69 -180 -69q-69 0 -109.5 39.5t-40.5 105.5q0 73 50 115t136 42q67 0 143 -23v84q0 61 -29 87.5t-96 26.5q-80 0 -171 -32v47q38 17 86 27t94 10q88 0 130.5 -37t42.5 -112v-369h-51zM204 41q38 0 82 15.5t89 43.5v125q-67 18 -130 18
q-140 0 -140 -108q0 -46 25 -70t74 -24z" />
    <glyph glyph-name="uni0431" unicode="&#x431;" horiz-adv-x="559" 
d="M285 -15q-118 0 -173.5 73.5t-55.5 230.5q0 144 25.5 230.5t80 132t147.5 62.5l164 31v-55l-181 -31q-61 -11 -95.5 -39t-53 -78.5t-24.5 -130.5q38 30 90.5 48.5t98.5 18.5q199 0 199 -246q0 -114 -60 -180.5t-162 -66.5zM302 426q-46 0 -96.5 -18t-89.5 -47
q-1 -21 -1 -68q0 -139 38.5 -197.5t131.5 -58.5q79 0 121 50.5t42 144.5q0 104 -34 149t-112 45z" />
    <glyph glyph-name="uni0432" unicode="&#x432;" horiz-adv-x="525" 
d="M82 503h206q71 0 115 -36.5t44 -95.5q0 -39 -18.5 -66.5t-53.5 -41.5q47 -13 72.5 -45t25.5 -78q0 -63 -45 -101.5t-118 -38.5h-228v503zM137 234v-186h171q52 0 79 23.5t27 69.5q0 45 -27.5 69t-78.5 24h-171zM137 455v-174h147q51 0 77.5 22t26.5 65q0 42 -26 64.5
t-77 22.5h-148z" />
    <glyph glyph-name="uni0433" unicode="&#x433;" horiz-adv-x="382" 
d="M82 0v503h282v-50h-225v-453h-57z" />
    <glyph glyph-name="uni0434" unicode="&#x434;" horiz-adv-x="563" 
d="M22 50h29q33 24 56 75t39.5 135.5t28.5 209.5l3 33h290v-453h75v-214h-52v164h-417v-164h-52v214zM228 453q-16 -170 -42 -266.5t-67 -136.5h292v403h-183z" />
    <glyph glyph-name="uni0435" unicode="&#x435;" horiz-adv-x="518" 
d="M110 242q1 -105 46 -155t139 -50q86 0 165 35v-47q-71 -40 -169 -40q-119 0 -179 67.5t-60 200.5q0 126 60.5 195.5t169.5 69.5q91 0 139.5 -52t48.5 -149q0 -45 -6 -75h-354zM277 467q-158 0 -167 -179h304q1 14 1 33q0 72 -35 109t-103 37z" />
    <glyph glyph-name="uni0436" unicode="&#x436;" horiz-adv-x="695" 
d="M8 0l259 257l-242 246h73l222 -233v233h55v-233l222 233h73l-243 -246l260 -257h-76l-236 239v-239h-55v239l-236 -239h-76z" />
    <glyph glyph-name="uni0437" unicode="&#x437;" horiz-adv-x="460" 
d="M199 -15q-85 0 -161 30v46q55 -14 90 -19.5t70 -5.5q151 0 151 102q0 95 -130 95h-87v50h65q135 0 135 92t-124 92q-63 0 -153 -25v46q33 14 74.5 22t80.5 8q85 0 133 -38t48 -105q0 -40 -22.5 -68.5t-65.5 -43.5q50 -13 77.5 -45.5t27.5 -79.5q0 -70 -56.5 -111.5
t-152.5 -41.5z" />
    <glyph glyph-name="uni0438" unicode="&#x438;" horiz-adv-x="584" 
d="M445 0v421l-306 -421h-57v503h57v-421l306 421h57v-503h-57z" />
    <glyph glyph-name="uni0439" unicode="&#x439;" horiz-adv-x="584" 
d="M445 0v421l-306 -421h-57v503h57v-421l306 421h57v-503h-57zM289 600q-68 0 -108.5 34.5t-40.5 93.5q0 19 3 29h48l2 -28q6 -83 96 -83t96 83l2 28h48q3 -10 3 -29q0 -59 -40.5 -93.5t-108.5 -34.5z" />
    <glyph glyph-name="uni043A" unicode="&#x43a;" horiz-adv-x="485" 
d="M82 0v503h57v-235l249 235h78l-267 -247l284 -256h-82l-262 235v-235h-57z" />
    <glyph glyph-name="uni043B" unicode="&#x43b;" horiz-adv-x="540" 
d="M401 0v453h-187q-21 -208 -42.5 -298t-53.5 -124.5t-81 -34.5q-11 0 -21 1v51h8q34 0 54 24t34.5 76.5t26.5 135t22 197.5l2 22h295v-503h-57z" />
    <glyph glyph-name="uni043C" unicode="&#x43c;" horiz-adv-x="671" 
d="M534 0v422l-169 -318h-59l-169 315v-419h-55v503h68l186 -351l187 351h66v-503h-55z" />
    <glyph glyph-name="uni043D" unicode="&#x43d;" horiz-adv-x="578" 
d="M439 0v233h-300v-233h-57v503h57v-220h300v220h57v-503h-57z" />
    <glyph glyph-name="uni043E" unicode="&#x43e;" horiz-adv-x="568" 
d="M284 -15q-110 0 -171 70.5t-61 196.5t61 196t171 70t171 -70t61 -196t-61 -196.5t-171 -70.5zM284 37q173 0 173 215q0 214 -173 214t-173 -214q0 -215 173 -215z" />
    <glyph glyph-name="uni043F" unicode="&#x43f;" horiz-adv-x="567" 
d="M428 0v453h-289v-453h-57v503h403v-503h-57z" />
    <glyph glyph-name="uni0440" unicode="&#x440;" horiz-adv-x="577" 
d="M82 -206v709h50l5 -56q46 37 89.5 54t89.5 17q97 0 153 -69.5t56 -190.5q0 -123 -59 -196t-159 -73q-92 0 -168 68v-263h-57zM305 466q-83 0 -166 -64v-293q41 -35 80 -51.5t82 -16.5q82 0 123.5 53.5t41.5 159.5q0 212 -161 212z" />
    <glyph glyph-name="uni0441" unicode="&#x441;" horiz-adv-x="451" 
d="M413 17q-62 -28 -125 -28q-116 0 -176 66.5t-60 195.5q0 128 61 195.5t177 67.5q62 0 117 -24v-47q-55 18 -114 18q-95 0 -137.5 -48.5t-42.5 -155.5v-12q0 -104 43 -153.5t135 -49.5q55 0 122 22v-47z" />
    <glyph glyph-name="uni0442" unicode="&#x442;" horiz-adv-x="435" 
d="M189 0v453h-171v50h399v-50h-171v-453h-57z" />
    <glyph glyph-name="uni0443" unicode="&#x443;" horiz-adv-x="486" 
d="M216 -5l-206 508h62l171 -443l173 443h60l-245 -609q-24 -61 -55 -86.5t-80 -25.5q-34 0 -61 12v45q26 -6 57 -6q33 0 52.5 17t37.5 61z" />
    <glyph glyph-name="uni0444" unicode="&#x444;" horiz-adv-x="741" 
d="M343 -15q-91 1 -156 32t-100 90.5t-35 143.5q0 83 34 142.5t99 91.5t158 33v222h55v-222q91 -1 156 -32t100 -90.5t35 -143.5q0 -83 -34 -142.5t-99 -91.5t-158 -33v-191h-55v191zM631 252q0 211 -233 217v-435q233 6 233 218zM343 469q-233 -6 -233 -218
q0 -211 233 -217v435z" />
    <glyph glyph-name="uni0445" unicode="&#x445;" horiz-adv-x="459" 
d="M381 0l-155 222l-152 -222h-64l187 262l-171 241h67l138 -197l138 197h63l-170 -237l187 -266h-68z" />
    <glyph glyph-name="uni0446" unicode="&#x446;" horiz-adv-x="575" 
d="M503 -164v164h-421v503h57v-453h284v453h57v-453h75v-214h-52z" />
    <glyph glyph-name="uni0447" unicode="&#x447;" horiz-adv-x="532" 
d="M393 0v218q-86 -34 -185 -34q-74 0 -113 38t-39 109v172h57v-148q0 -61 26 -90t82 -29q87 0 172 26v241h57v-503h-57z" />
    <glyph glyph-name="uni0448" unicode="&#x448;" horiz-adv-x="755" 
d="M673 503v-503h-591v503h57v-453h210v453h57v-453h210v453h57z" />
    <glyph glyph-name="uni0449" unicode="&#x449;" horiz-adv-x="760" 
d="M665 503v-453h75v-214h-52v164h-606v503h57v-453h206v453h57v-453h206v453h57z" />
    <glyph glyph-name="uni044A" unicode="&#x44a;" horiz-adv-x="580" 
d="M178 453h-160v50h217v-195h148q79 0 123 -41t44 -114q0 -70 -44.5 -111.5t-118.5 -41.5h-209v453zM235 260v-212h150q106 0 106 106q0 52 -27.5 79t-78.5 27h-150z" />
    <glyph glyph-name="uni044B" unicode="&#x44b;" horiz-adv-x="666" 
d="M82 503h57v-195h138q79 0 123 -41t44 -114q0 -70 -44.5 -111.5t-118.5 -41.5h-199v503zM139 260v-212h140q106 0 106 106q0 52 -27.5 79t-78.5 27h-140zM527 503h57v-503h-57v503z" />
    <glyph glyph-name="uni044C" unicode="&#x44c;" horiz-adv-x="499" 
d="M82 503h57v-195h163q79 0 123 -41t44 -114q0 -70 -44.5 -111.5t-118.5 -41.5h-224v503zM139 260v-212h165q106 0 106 106q0 52 -27.5 79t-78.5 27h-165z" />
    <glyph glyph-name="uni044D" unicode="&#x44d;" horiz-adv-x="461" 
d="M178 -11q-72 0 -140 28v47q74 -22 137 -22q92 0 131.5 44t41.5 147h-245v50h244q-4 94 -44.5 136t-129.5 42q-70 0 -129 -18v47q59 24 132 24q119 0 176 -64.5t57 -197.5q0 -263 -231 -263z" />
    <glyph glyph-name="uni044E" unicode="&#x44e;" horiz-adv-x="769" 
d="M501 -15q-64 0 -111 28.5t-73.5 84t-29.5 135.5h-148v-233h-57v503h57v-220h149q7 113 62.5 174t150.5 61q102 0 159 -70t57 -196t-57 -196.5t-159 -70.5zM501 37q157 0 157 215q0 214 -157 214t-157 -214q0 -215 157 -215z" />
    <glyph glyph-name="uni044F" unicode="&#x44f;" horiz-adv-x="493" 
d="M167 220q-51 14 -79 49.5t-28 87.5q0 68 45 107t122 39h184v-503h-57v212h-121h-12l-122 -212h-70zM121 357q0 -46 28 -72t78 -26h127v196h-126q-52 0 -79.5 -25t-27.5 -73z" />
    <glyph glyph-name="uni0450" unicode="&#x450;" horiz-adv-x="518" 
d="M110 242q1 -105 46 -155t139 -50q86 0 165 35v-47q-71 -40 -169 -40q-119 0 -179 67.5t-60 200.5q0 126 60.5 195.5t169.5 69.5q91 0 139.5 -52t48.5 -149q0 -45 -6 -75h-354zM277 467q-158 0 -167 -179h304q1 14 1 33q0 72 -35 109t-103 37zM252 602l-120 152h81
l87 -152h-48z" />
    <glyph glyph-name="uni0451" unicode="&#x451;" horiz-adv-x="518" 
d="M110 242q1 -105 46 -155t139 -50q86 0 165 35v-47q-71 -40 -169 -40q-119 0 -179 67.5t-60 200.5q0 126 60.5 195.5t169.5 69.5q91 0 139.5 -52t48.5 -149q0 -45 -6 -75h-354zM277 467q-158 0 -167 -179h304q1 14 1 33q0 72 -35 109t-103 37zM175 607q-19 0 -30.5 11.5
t-11.5 31.5q0 21 11.5 32.5t30.5 11.5t30.5 -11.5t11.5 -31.5q0 -21 -11.5 -32.5t-30.5 -11.5zM377 607q-19 0 -30.5 11.5t-11.5 31.5q0 21 11.5 32.5t30.5 11.5t30.5 -11.5t11.5 -31.5q0 -21 -11.5 -32.5t-30.5 -11.5z" />
    <glyph glyph-name="uni0452" unicode="&#x452;" horiz-adv-x="574" 
d="M303 -218q-30 0 -60 9v45q25 -4 54 -4q84 0 121 72t37 236q0 97 -13.5 149t-42.5 73.5t-80 21.5q-39 0 -82 -15t-82 -41v-328h-57v573h-94v48h94v119h57v-119h200v-48h-200v-200q91 63 179 63q98 0 139 -67t41 -225q0 -185 -51.5 -273.5t-159.5 -88.5z" />
    <glyph glyph-name="uni0453" unicode="&#x453;" horiz-adv-x="382" 
d="M82 0v503h282v-50h-225v-453h-57zM199 602l87 152h81l-120 -152h-48z" />
    <glyph glyph-name="uni0454" unicode="&#x454;" horiz-adv-x="461" 
d="M113 233q1 -102 41 -146.5t132 -44.5q64 0 137 22v-47q-66 -28 -140 -28q-117 0 -174 64.5t-57 197.5t58 198t175 65q72 0 132 -24v-47q-60 18 -129 18q-90 0 -130.5 -41t-44.5 -137h245v-50h-245z" />
    <glyph glyph-name="uni0455" unicode="&#x455;" horiz-adv-x="421" 
d="M334 132q0 27 -19.5 46t-65.5 36l-91 34q-107 40 -107 131q0 62 46.5 100.5t121.5 38.5q35 0 73 -8t70 -22v-47q-81 26 -146 26q-54 0 -82 -21.5t-28 -63.5q0 -34 19.5 -52.5t76.5 -40.5l80 -30q56 -21 81.5 -51.5t25.5 -75.5q0 -68 -49.5 -107.5t-134.5 -39.5
q-91 0 -163 36v47q89 -32 167 -32q61 0 93 24.5t32 71.5z" />
    <glyph glyph-name="uni0456" unicode="&#x456;" horiz-adv-x="229" 
d="M86 0v503h57v-503h-57zM115 611q-20 0 -31.5 12t-11.5 32t11.5 32t31.5 12t31.5 -12t11.5 -32t-11.5 -32t-31.5 -12z" />
    <glyph glyph-name="uni0457" unicode="&#x457;" horiz-adv-x="229" 
d="M86 0v503h57v-503h-57zM13 607q-19 0 -30.5 11.5t-11.5 31.5q0 21 11.5 32.5t30.5 11.5t30.5 -11.5t11.5 -31.5q0 -21 -11.5 -32.5t-30.5 -11.5zM215 607q-19 0 -30.5 11.5t-11.5 31.5q0 21 11.5 32.5t30.5 11.5t30.5 -11.5t11.5 -31.5q0 -21 -11.5 -32.5t-30.5 -11.5z
" />
    <glyph glyph-name="uni0458" unicode="&#x458;" horiz-adv-x="229" 
d="M86 503h57v-615q0 -52 -26.5 -79t-75.5 -27q-36 0 -70 11v46q31 -6 61 -6q29 0 41.5 11.5t12.5 36.5v622zM115 611q-20 0 -31.5 12t-11.5 32t11.5 32t31.5 12t31.5 -12t11.5 -32t-11.5 -32t-31.5 -12z" />
    <glyph glyph-name="uni0459" unicode="&#x459;" horiz-adv-x="769" 
d="M377 453h-163q-21 -208 -42.5 -298t-53.5 -124.5t-81 -34.5q-11 0 -21 1v51h8q34 0 54 24t34.5 76.5t26.5 135t22 197.5l2 22h271v-195h138q79 0 123 -41t44 -114q0 -70 -44.5 -111.5t-118.5 -41.5h-199v453zM434 260v-212h140q106 0 106 106q0 52 -27.5 79t-78.5 27
h-140z" />
    <glyph glyph-name="uni045A" unicode="&#x45a;" horiz-adv-x="771" 
d="M82 503h57v-202h250v202h57v-202h128q79 0 123 -39.5t44 -111.5q0 -69 -45 -109.5t-118 -40.5h-189v253h-250v-253h-57v503zM446 253v-205h130q106 0 106 103q0 49 -27.5 75.5t-78.5 26.5h-130z" />
    <glyph glyph-name="uni045B" unicode="&#x45b;" horiz-adv-x="588" 
d="M455 0v260q0 65 -25 94.5t-80 29.5q-100 0 -195 -64v-320h-57v573h-94v48h94v119h57v-119h200v-48h-200v-209q49 34 102.5 53t104.5 19q73 0 111.5 -38.5t38.5 -113.5v-284h-57z" />
    <glyph glyph-name="uni045C" unicode="&#x45c;" horiz-adv-x="485" 
d="M82 0v503h57v-235l249 235h78l-267 -247l284 -256h-82l-262 235v-235h-57zM233 602l87 152h81l-120 -152h-48z" />
    <glyph glyph-name="uni045D" unicode="&#x45d;" horiz-adv-x="584" 
d="M445 0v421l-306 -421h-57v503h57v-421l306 421h57v-503h-57zM265 602l-120 152h81l87 -152h-48z" />
    <glyph glyph-name="uni045E" unicode="&#x45e;" horiz-adv-x="486" 
d="M216 -5l-206 508h62l171 -443l173 443h60l-245 -609q-24 -61 -55 -86.5t-80 -25.5q-34 0 -61 12v45q26 -6 57 -6q33 0 52.5 17t37.5 61zM244 600q-68 0 -108.5 34.5t-40.5 93.5q0 19 3 29h48l2 -28q6 -83 96 -83t96 83l2 28h48q3 -10 3 -29q0 -59 -40.5 -93.5
t-108.5 -34.5z" />
    <glyph glyph-name="uni045F" unicode="&#x45f;" horiz-adv-x="568" 
d="M258 -164v164h-176v503h57v-453h290v453h57v-503h-176v-164h-52z" />
    <glyph glyph-name="uni0462" unicode="&#x462;" horiz-adv-x="658" 
d="M173 0v552h-147v53h147v125h59v-125h223v-53h-223v-170h166q95 0 152.5 -51.5t57.5 -139.5t-57.5 -139.5t-152.5 -51.5h-225zM232 329v-276h164q74 0 112 35t38 103t-38 103t-112 35h-164z" />
    <glyph glyph-name="uni0463" unicode="&#x463;" horiz-adv-x="563" 
d="M151 451h-133v48h133v130h57v-130h180v-48h-180v-143h158q79 0 123 -41t44 -114q0 -70 -44.5 -111.5t-118.5 -41.5h-219v451zM208 260v-212h160q106 0 106 106q0 52 -27.5 79t-78.5 27h-160z" />
    <glyph glyph-name="uni0472" unicode="&#x472;" horiz-adv-x="772" 
d="M68 345q0 174 82.5 268t235.5 94t235.5 -94t82.5 -268t-82.5 -268t-235.5 -94t-235.5 94t-82.5 268zM386 38q125 0 188.5 72t67.5 218h-512q3 -146 66.5 -218t189.5 -72zM386 652q-242 0 -255 -271h510q-15 271 -255 271z" />
    <glyph glyph-name="uni0473" unicode="&#x473;" horiz-adv-x="568" 
d="M284 -15q-112 0 -172 69.5t-60 197.5t60 197t172 69t172 -69t60 -197t-60 -197.5t-172 -69.5zM284 37q84 0 126.5 48.5t45.5 149.5h-345q3 -101 45.5 -149.5t127.5 -48.5zM284 466q-83 0 -125 -45.5t-47 -139.5h344q-5 94 -47 139.5t-125 45.5z" />
    <glyph glyph-name="uni0474" unicode="&#x474;" horiz-adv-x="639" 
d="M276 0l-262 693h65l231 -630l170 510q23 70 54 99.5t83 29.5q21 0 42 -6v-51q-18 2 -30 2q-29 0 -43.5 -7.5t-25.5 -26.5t-23 -54l-193 -559h-68z" />
    <glyph glyph-name="uni0475" unicode="&#x475;" horiz-adv-x="513" 
d="M206 0l-196 503h62l164 -442l133 359q19 52 39.5 71.5t55.5 19.5q20 0 48 -7v-46q-22 3 -37 3q-18 0 -27 -8.5t-23 -43.5l-159 -409h-60z" />
    <glyph glyph-name="uni0490" unicode="&#x490;" horiz-adv-x="485" 
d="M88 0v693h326v133h53v-186h-320v-640h-59z" />
    <glyph glyph-name="uni0491" unicode="&#x491;" horiz-adv-x="388" 
d="M82 0v503h238v122h50v-172h-231v-453h-57z" />
    <glyph glyph-name="Wgrave" unicode="&#x1e80;" horiz-adv-x="907" 
d="M603 0l-152 593l-151 -593h-70l-210 693h64l182 -626l151 603h72l150 -605l186 628h62l-214 -693h-70zM423 769l-122 117h88l92 -117h-58z" />
    <glyph glyph-name="wgrave" unicode="&#x1e81;" horiz-adv-x="743" 
d="M494 0l-125 439l-124 -439h-62l-171 503h61l140 -437l125 437h67l124 -440l143 440h59l-175 -503h-62zM346 602l-120 152h81l87 -152h-48z" />
    <glyph glyph-name="Wacute" unicode="&#x1e82;" horiz-adv-x="907" 
d="M603 0l-152 593l-151 -593h-70l-210 693h64l182 -626l151 603h72l150 -605l186 628h62l-214 -693h-70zM423 769l92 117h88l-122 -117h-58z" />
    <glyph glyph-name="wacute" unicode="&#x1e83;" horiz-adv-x="743" 
d="M494 0l-125 439l-124 -439h-62l-171 503h61l140 -437l125 437h67l124 -440l143 440h59l-175 -503h-62zM346 602l87 152h81l-120 -152h-48z" />
    <glyph glyph-name="Wdieresis" unicode="&#x1e84;" horiz-adv-x="907" 
d="M603 0l-152 593l-151 -593h-70l-210 693h64l182 -626l151 603h72l150 -605l186 628h62l-214 -693h-70zM353 785q-20 0 -32 12.5t-12 32.5t12 32.5t32 12.5t32 -12.5t12 -32.5t-12 -32.5t-32 -12.5zM551 785q-20 0 -32 12.5t-12 32.5t12 32.5t32 12.5t32 -12.5t12 -32.5
t-12 -32.5t-32 -12.5z" />
    <glyph glyph-name="wdieresis" unicode="&#x1e85;" horiz-adv-x="743" 
d="M494 0l-125 439l-124 -439h-62l-171 503h61l140 -437l125 437h67l124 -440l143 440h59l-175 -503h-62zM269 607q-19 0 -30.5 11.5t-11.5 31.5q0 21 11.5 32.5t30.5 11.5t30.5 -11.5t11.5 -31.5q0 -21 -11.5 -32.5t-30.5 -11.5zM471 607q-19 0 -30.5 11.5t-11.5 31.5
q0 21 11.5 32.5t30.5 11.5t30.5 -11.5t11.5 -31.5q0 -21 -11.5 -32.5t-30.5 -11.5z" />
    <glyph glyph-name="uni1E9E" unicode="&#x1e9e;" horiz-adv-x="668" 
d="M392 385q22 2 36 2q87 0 140.5 -54t53.5 -142q0 -60 -27 -106.5t-79 -73t-122 -26.5q-68 0 -133 24v51q73 -20 123 -20q85 0 131 39t46 112q0 70 -42 107t-122 37q-42 0 -74 -4v46l169 245q-61 30 -148 30q-201 0 -201 -217v-435h-59v441q0 127 67.5 196.5t191.5 69.5
q63 0 111 -12.5t90 -39.5v-51z" />
    <glyph glyph-name="Ygrave" unicode="&#x1ef2;" horiz-adv-x="581" 
d="M259 0v251l-241 442h67l205 -386l209 386h64l-245 -444v-249h-59zM263 769l-122 117h88l92 -117h-58z" />
    <glyph glyph-name="ygrave" unicode="&#x1ef3;" horiz-adv-x="486" 
d="M216 -5l-206 508h62l171 -443l173 443h60l-245 -609q-24 -61 -55 -86.5t-80 -25.5q-34 0 -61 12v45q26 -6 57 -6q33 0 52.5 17t37.5 61zM220 602l-120 152h81l87 -152h-48z" />
    <glyph glyph-name="uni2000" unicode="&#x2000;" horiz-adv-x="500" 
 />
    <glyph glyph-name="uni2001" unicode="&#x2001;" horiz-adv-x="1000" 
 />
    <glyph glyph-name="uni2002" unicode="&#x2002;" horiz-adv-x="500" 
 />
    <glyph glyph-name="uni2003" unicode="&#x2003;" horiz-adv-x="1000" 
 />
    <glyph glyph-name="uni2004" unicode="&#x2004;" horiz-adv-x="333" 
 />
    <glyph glyph-name="uni2005" unicode="&#x2005;" horiz-adv-x="250" 
 />
    <glyph glyph-name="uni2006" unicode="&#x2006;" horiz-adv-x="166" 
 />
    <glyph glyph-name="uni2007" unicode="&#x2007;" 
 />
    <glyph glyph-name="uni2008" unicode="&#x2008;" horiz-adv-x="214" 
 />
    <glyph glyph-name="uni2009" unicode="&#x2009;" horiz-adv-x="200" 
 />
    <glyph glyph-name="uni200A" unicode="&#x200a;" horiz-adv-x="50" 
 />
    <glyph glyph-name="uni200B" unicode="&#x200b;" horiz-adv-x="0" 
 />
    <glyph glyph-name="uni2010" unicode="&#x2010;" horiz-adv-x="379" 
d="M50 233v53h279v-53h-279z" />
    <glyph glyph-name="uni2012" unicode="&#x2012;" 
d="M43 325v50h500v-50h-500z" />
    <glyph glyph-name="endash" unicode="&#x2013;" horiz-adv-x="500" 
d="M0 235v50h500v-50h-500z" />
    <glyph glyph-name="emdash" unicode="&#x2014;" horiz-adv-x="1000" 
d="M0 235v50h1000v-50h-1000z" />
    <glyph glyph-name="uni2015" unicode="&#x2015;" horiz-adv-x="1000" 
d="M0 235v50h1000v-50h-1000z" />
    <glyph glyph-name="quoteleft" unicode="&#x2018;" horiz-adv-x="214" 
d="M155 693l-35 -219h-22q-20 0 -29.5 5t-9.5 18q0 9 9 43l43 153h44z" />
    <glyph glyph-name="quoteright" unicode="&#x2019;" horiz-adv-x="214" 
d="M59 474l35 219h22q20 0 29.5 -5t9.5 -18q0 -8 -9 -43l-43 -153h-44z" />
    <glyph glyph-name="quotesinglbase" unicode="&#x201a;" horiz-adv-x="214" 
d="M59 -135l35 219h22q20 0 29.5 -5t9.5 -18q0 -8 -9 -43l-43 -153h-44z" />
    <glyph glyph-name="uni201B" unicode="&#x201b;" horiz-adv-x="214" 
d="M111 474l-43 153q-9 35 -9 43q0 13 9.5 18t29.5 5h22l35 -219h-44z" />
    <glyph glyph-name="quotedblleft" unicode="&#x201c;" horiz-adv-x="348" 
d="M155 693l-35 -219h-22q-20 0 -29.5 5t-9.5 18q0 9 9 43l43 153h44zM289 693l-35 -219h-22q-20 0 -29.5 5t-9.5 18q0 9 9 43l43 153h44z" />
    <glyph glyph-name="quotedblright" unicode="&#x201d;" horiz-adv-x="348" 
d="M59 474l35 219h22q20 0 29.5 -5t9.5 -18q0 -8 -9 -43l-43 -153h-44zM193 474l35 219h22q20 0 29.5 -5t9.5 -18q0 -8 -9 -43l-43 -153h-44z" />
    <glyph glyph-name="quotedblbase" unicode="&#x201e;" horiz-adv-x="348" 
d="M59 -135l35 219h22q20 0 29.5 -5t9.5 -18q0 -8 -9 -43l-43 -153h-44zM193 -135l35 219h22q20 0 29.5 -5t9.5 -18q0 -8 -9 -43l-43 -153h-44z" />
    <glyph glyph-name="uni201F" unicode="&#x201f;" horiz-adv-x="348" 
d="M111 474l-43 153q-9 35 -9 43q0 13 9.5 18t29.5 5h22l35 -219h-44zM245 474l-43 153q-9 35 -9 43q0 13 9.5 18t29.5 5h22l35 -219h-44z" />
    <glyph glyph-name="dagger" unicode="&#x2020;" horiz-adv-x="460" 
d="M257 472l4 -598h-62l4 598l-175 -4v54l175 -4l-4 222h62l-4 -222l175 4v-54z" />
    <glyph glyph-name="daggerdbl" unicode="&#x2021;" horiz-adv-x="460" 
d="M199 -126l5 223l-176 -5v54l176 -5l-5 166l5 166l-176 -5v54l176 -5l-5 223h62l-5 -223l176 5v-54l-176 5l5 -166l-5 -166l176 5v-54l-176 5l5 -223h-62z" />
    <glyph glyph-name="bullet" unicode="&#x2022;" horiz-adv-x="334" 
d="M167 140q-50 0 -84.5 34t-34.5 85t34.5 85t84.5 34t84.5 -34t34.5 -85t-34.5 -85t-84.5 -34z" />
    <glyph glyph-name="ellipsis" unicode="&#x2026;" horiz-adv-x="1000" 
d="M167 -6q-20 0 -32.5 13t-12.5 33q0 21 12.5 34t32.5 13t32.5 -13t12.5 -34q0 -20 -12.5 -33t-32.5 -13zM500 -6q-20 0 -32.5 13t-12.5 33q0 21 12.5 34t32.5 13t32.5 -13t12.5 -34q0 -20 -12.5 -33t-32.5 -13zM833 -6q-20 0 -32.5 13t-12.5 33q0 21 12.5 34t32.5 13
t32.5 -13t12.5 -34q0 -20 -12.5 -33t-32.5 -13z" />
    <glyph glyph-name="perthousand" unicode="&#x2030;" horiz-adv-x="1326" 
d="M274 0l335 693h57l-335 -693h-57zM735 38q103 0 103 153q0 79 -25.5 117t-77.5 38q-103 0 -103 -153q0 -79 25.5 -117t77.5 -38zM735 -8q-76 0 -116.5 51.5t-40.5 148.5t40.5 148.5t116.5 51.5t116.5 -51.5t40.5 -148.5t-40.5 -148.5t-116.5 -51.5zM1121 38
q103 0 103 153q0 79 -25.5 117t-77.5 38q-103 0 -103 -153q0 -79 25.5 -117t77.5 -38zM1121 -8q-76 0 -116.5 51.5t-40.5 148.5t40.5 148.5t116.5 51.5t116.5 -51.5t40.5 -148.5t-40.5 -148.5t-116.5 -51.5zM205 347q103 0 103 153q0 79 -25.5 117t-77.5 38
q-103 0 -103 -153q0 -79 25.5 -117t77.5 -38zM205 301q-76 0 -116.5 51.5t-40.5 148.5t40.5 148.5t116.5 51.5t116.5 -51.5t40.5 -148.5t-40.5 -148.5t-116.5 -51.5z" />
    <glyph glyph-name="minute" unicode="&#x2032;" horiz-adv-x="238" 
d="M102 476h-44l73 217q19 8 37 8t34 -8z" />
    <glyph glyph-name="second" unicode="&#x2033;" horiz-adv-x="382" 
d="M102 476h-44l73 217q19 8 37 8t34 -8zM246 476h-44l73 217q19 8 37 8t34 -8z" />
    <glyph glyph-name="guilsinglleft" unicode="&#x2039;" horiz-adv-x="300" 
d="M186 51l-136 208l136 208h58l-130 -208l130 -208h-58z" />
    <glyph glyph-name="guilsinglright" unicode="&#x203a;" horiz-adv-x="300" 
d="M114 467l136 -208l-136 -208h-58l130 208l-130 208h58z" />
    <glyph glyph-name="uni203D" unicode="&#x203d;" horiz-adv-x="416" 
d="M149 191l-7 357q14 8 32 8q16 0 32 -8l-3 -162q63 35 92 73.5t29 87.5q0 106 -127 106q-37 0 -74 -10.5t-86 -35.5v51q38 24 81.5 36.5t85.5 12.5q83 0 131 -41.5t48 -114.5q0 -136 -181 -216l-3 -144h-50zM177 -6q-20 0 -32.5 13t-12.5 33q0 21 12.5 34t32.5 13
t32.5 -13t12.5 -34q0 -20 -12.5 -33t-32.5 -13z" />
    <glyph glyph-name="fraction" unicode="&#x2044;" horiz-adv-x="0" 
d="M-196 0l335 693h57l-335 -693h-57z" />
    <glyph glyph-name="uni2052" unicode="&#x2052;" 
d="M150 643q-24 0 -39 15.5t-15 40.5t15 40.5t39 15.5t39 -15.5t15 -40.5t-15 -40.5t-39 -15.5zM435 -33q24 0 39 -15.5t15 -40.5t-15 -40.5t-39 -15.5t-39 15.5t-15 40.5t15 40.5t39 15.5zM94 -144l339 898h58l-339 -898h-58z" />
    <glyph glyph-name="uni2070" unicode="&#x2070;" horiz-adv-x="410" 
d="M205 428q103 0 103 153q0 79 -25.5 117t-77.5 38q-103 0 -103 -153q0 -79 25.5 -117t77.5 -38zM205 382q-76 0 -116.5 51.5t-40.5 148.5t40.5 148.5t116.5 51.5t116.5 -51.5t40.5 -148.5t-40.5 -148.5t-116.5 -51.5z" />
    <glyph glyph-name="uni2074" unicode="&#x2074;" horiz-adv-x="410" 
d="M250 390v82h-198v42l197 266h52v-264h61v-44h-61v-82h-51zM106 516h144v195z" />
    <glyph glyph-name="uni2075" unicode="&#x2075;" horiz-adv-x="410" 
d="M194 382q-65 0 -113 24v42q60 -21 115 -21q47 0 72 19t25 54q0 43 -23.5 60.5t-79.5 17.5q-41 0 -90 -7v34l11 169h212v-45h-166l-7 -113q29 6 59 6q65 0 101.5 -32t36.5 -90q0 -53 -41.5 -85.5t-111.5 -32.5z" />
    <glyph glyph-name="uni2076" unicode="&#x2076;" horiz-adv-x="410" 
d="M235 737q-58 0 -87.5 -35.5t-32.5 -109.5q57 33 107 33q58 0 93.5 -32t35.5 -86q0 -56 -37.5 -90.5t-97.5 -34.5q-74 0 -113 49t-39 140q0 101 44 156t124 55q49 0 89 -20v-42q-48 17 -86 17zM217 580q-55 0 -101 -31q5 -122 100 -122q39 0 61 21t22 59q0 35 -21 54
t-61 19z" />
    <glyph glyph-name="uni2077" unicode="&#x2077;" horiz-adv-x="410" 
d="M125 390l168 338h-224v46h278v-42l-168 -342h-54z" />
    <glyph glyph-name="uni2078" unicode="&#x2078;" horiz-adv-x="410" 
d="M333 676q0 -27 -17.5 -51t-49.5 -41q83 -36 83 -95q0 -48 -40 -77.5t-106 -29.5q-65 0 -103.5 28.5t-38.5 77.5q0 33 19.5 60t55.5 44q-60 32 -60 83q0 48 35.5 77.5t93.5 29.5q57 0 92.5 -29.5t35.5 -76.5zM177 573q-31 -15 -48 -36t-17 -45q0 -31 24.5 -49t68.5 -18
q43 0 68 17.5t25 46.5q0 20 -17 34.5t-61 32.5zM127 677q0 -22 14.5 -37t47.5 -28l38 -15q26 14 40.5 34.5t14.5 42.5q0 30 -21 47.5t-56 17.5t-56.5 -17t-21.5 -45z" />
    <glyph glyph-name="uni2079" unicode="&#x2079;" horiz-adv-x="410" 
d="M76 451q57 -24 100 -24q55 0 83.5 32.5t32.5 101.5q-48 -30 -103 -30q-59 0 -93.5 33t-34.5 89q0 55 39 92t99 37q70 0 107.5 -49t37.5 -140q0 -102 -41.5 -156.5t-119.5 -54.5q-60 0 -107 27v42zM198 575q45 0 95 28v10q0 60 -25 92t-72 32q-38 0 -60.5 -23t-22.5 -61
t22 -58t63 -20z" />
    <glyph glyph-name="uni207A" unicode="&#x207a;" horiz-adv-x="410" 
d="M182 453v111h-106v41h106v111h46v-111h106v-41h-106v-111h-46z" />
    <glyph glyph-name="uni207B" unicode="&#x207b;" horiz-adv-x="410" 
d="M76 562v45h258v-45h-258z" />
    <glyph glyph-name="uni207C" unicode="&#x207c;" horiz-adv-x="410" 
d="M76 494v45h258v-45h-258zM76 630v45h258v-45h-258z" />
    <glyph glyph-name="uni207D" unicode="&#x207d;" horiz-adv-x="207" 
d="M133 333q-39 55 -60 119t-21 130t21 130t60 119h52q-38 -53 -58.5 -118t-20.5 -131t20.5 -131t58.5 -118h-52z" />
    <glyph glyph-name="uni207E" unicode="&#x207e;" horiz-adv-x="207" 
d="M74 831q39 -55 60 -119t21 -130t-21 -130t-60 -119h-52q38 53 58.5 118t20.5 131t-20.5 131t-58.5 118h52z" />
    <glyph glyph-name="uni207F" unicode="&#x207f;" horiz-adv-x="420" 
d="M317 390v261q0 44 -18.5 64.5t-57.5 20.5q-70 0 -136 -44v-302h-53v384h45l6 -47q78 55 155 55q54 0 83 -28.5t29 -82.5v-281h-53z" />
    <glyph glyph-name="uni2080" unicode="&#x2080;" horiz-adv-x="410" 
d="M205 -66q103 0 103 153q0 79 -25.5 117t-77.5 38q-103 0 -103 -153q0 -79 25.5 -117t77.5 -38zM205 -112q-76 0 -116.5 51.5t-40.5 148.5t40.5 148.5t116.5 51.5t116.5 -51.5t40.5 -148.5t-40.5 -148.5t-116.5 -51.5z" />
    <glyph glyph-name="uni2081" unicode="&#x2081;" horiz-adv-x="410" 
d="M212 -104v329l-119 -48v46l123 57h49v-384h-53z" />
    <glyph glyph-name="uni2082" unicode="&#x2082;" horiz-adv-x="410" 
d="M83 245q55 43 120 43q53 0 85.5 -29.5t32.5 -77.5q0 -32 -17.5 -62.5t-57 -71.5t-112.5 -105h204v-46h-266v43q84 78 123.5 120t54.5 68.5t15 51.5q0 29 -17.5 45t-49.5 16q-51 0 -115 -42v47z" />
    <glyph glyph-name="uni2083" unicode="&#x2083;" horiz-adv-x="410" 
d="M190 -112q-66 0 -115 25v42q59 -22 117 -22q47 0 72 19t25 54q0 69 -92 69q-39 0 -68 -3v34l130 129h-182v45h242v-42l-119 -120h17q59 0 92.5 -30t33.5 -82q0 -54 -41.5 -86t-111.5 -32z" />
    <glyph glyph-name="uni2084" unicode="&#x2084;" horiz-adv-x="410" 
d="M250 -104v82h-198v42l197 266h52v-264h61v-44h-61v-82h-51zM106 22h144v195z" />
    <glyph glyph-name="uni2085" unicode="&#x2085;" horiz-adv-x="410" 
d="M194 -112q-65 0 -113 24v42q60 -21 115 -21q47 0 72 19t25 54q0 43 -23.5 60.5t-79.5 17.5q-41 0 -90 -7v34l11 169h212v-45h-166l-7 -113q29 6 59 6q65 0 101.5 -32t36.5 -90q0 -53 -41.5 -85.5t-111.5 -32.5z" />
    <glyph glyph-name="uni2086" unicode="&#x2086;" horiz-adv-x="410" 
d="M235 243q-58 0 -87.5 -35.5t-32.5 -109.5q57 33 107 33q58 0 93.5 -32t35.5 -86q0 -56 -37.5 -90.5t-97.5 -34.5q-74 0 -113 49t-39 140q0 101 44 156t124 55q49 0 89 -20v-42q-48 17 -86 17zM217 86q-55 0 -101 -31q5 -122 100 -122q39 0 61 21t22 59q0 35 -21 54
t-61 19z" />
    <glyph glyph-name="uni2087" unicode="&#x2087;" horiz-adv-x="410" 
d="M125 -104l168 338h-224v46h278v-42l-168 -342h-54z" />
    <glyph glyph-name="uni2088" unicode="&#x2088;" horiz-adv-x="410" 
d="M333 182q0 -27 -17.5 -51t-49.5 -41q83 -36 83 -95q0 -48 -40 -77.5t-106 -29.5q-65 0 -103.5 28.5t-38.5 77.5q0 33 19.5 60t55.5 44q-60 32 -60 83q0 48 35.5 77.5t93.5 29.5q57 0 92.5 -29.5t35.5 -76.5zM177 79q-31 -15 -48 -36t-17 -45q0 -31 24.5 -49t68.5 -18
q43 0 68 17.5t25 46.5q0 20 -17 34.5t-61 32.5zM127 183q0 -22 14.5 -37t47.5 -28l38 -15q26 14 40.5 34.5t14.5 42.5q0 30 -21 47.5t-56 17.5t-56.5 -17t-21.5 -45z" />
    <glyph glyph-name="uni2089" unicode="&#x2089;" horiz-adv-x="410" 
d="M76 -43q57 -24 100 -24q55 0 83.5 32.5t32.5 101.5q-48 -30 -103 -30q-59 0 -93.5 33t-34.5 89q0 55 39 92t99 37q70 0 107.5 -49t37.5 -140q0 -102 -41.5 -156.5t-119.5 -54.5q-60 0 -107 27v42zM198 81q45 0 95 28v10q0 60 -25 92t-72 32q-38 0 -60.5 -23t-22.5 -61
t22 -58t63 -20z" />
    <glyph glyph-name="uni208A" unicode="&#x208a;" horiz-adv-x="410" 
d="M182 -41v111h-106v41h106v111h46v-111h106v-41h-106v-111h-46z" />
    <glyph glyph-name="uni208B" unicode="&#x208b;" horiz-adv-x="410" 
d="M76 68v45h258v-45h-258z" />
    <glyph glyph-name="uni208C" unicode="&#x208c;" horiz-adv-x="410" 
d="M76 1v45h258v-45h-258zM76 136v45h258v-45h-258z" />
    <glyph glyph-name="uni208D" unicode="&#x208d;" horiz-adv-x="207" 
d="M133 -161q-39 55 -60 119t-21 130t21 130t60 119h52q-38 -53 -58.5 -118t-20.5 -131t20.5 -131t58.5 -118h-52z" />
    <glyph glyph-name="uni208E" unicode="&#x208e;" horiz-adv-x="207" 
d="M74 337q39 -55 60 -119t21 -130t-21 -130t-60 -119h-52q38 53 58.5 118t20.5 131t-20.5 131t-58.5 118h52z" />
    <glyph glyph-name="Euro" unicode="&#x20ac;" 
d="M169 392q-1 -8 -1 -17v-17v-27q0 -25 1 -36h267l-14 -50h-248q30 -203 224 -203q63 0 150 27v-50q-71 -30 -152 -30q-119 0 -191 65.5t-91 190.5h-73v50h68q-1 11 -1 22v22q0 36 2 53h-69v50h75q21 126 94.5 192.5t193.5 66.5q80 0 140 -27v-50q-82 24 -132 24
q-205 0 -238 -206h299l-14 -50h-290z" />
    <glyph glyph-name="uni20B9" unicode="&#x20b9;" 
d="M379 0l-291 289v51h100q182 0 196 128h-296v48h295q-8 62 -56 94.5t-132 32.5h-107v50h455l-10 -50h-177q74 -42 83 -127h72l-10 -48h-61q-5 -57 -37 -97.5t-90.5 -62t-138.5 -21.5h-13l296 -287h-78z" />
    <glyph glyph-name="uni20BA" unicode="&#x20ba;" 
d="M191 244v-191h29q134 0 196.5 54t62.5 172v13h56v-17q0 -132 -81.5 -203.5t-233.5 -71.5h-84v218l-91 -43v53l91 43v112l-91 -43v53l91 43v257h55v-231l203 95v-53l-203 -95v-112l203 95v-53z" />
    <glyph glyph-name="uni2105" unicode="&#x2105;" horiz-adv-x="944" 
d="M315 319q-43 -18 -92 -18q-84 0 -129.5 52.5t-45.5 147.5t46.5 147.5t129.5 52.5q48 0 87 -17v-43q-37 11 -85 11q-61 0 -90 -34.5t-29 -108.5v-14q0 -74 30 -109.5t93 -35.5q41 0 85 13v-44zM718 -8q-83 0 -130 53t-47 149q0 93 47 145.5t130 52.5t130.5 -52.5
t47.5 -145.5q0 -95 -47 -148.5t-131 -53.5zM718 38q123 0 123 156q0 152 -123 152q-122 0 -122 -152q0 -156 122 -156zM259 0l335 693h57l-335 -693h-57z" />
    <glyph glyph-name="uni2113" unicode="&#x2113;" horiz-adv-x="374" 
d="M36 187l76 62v360q0 69 30 107t85 38q50 0 80 -40t30 -108q0 -112 -41 -202.5t-127 -166.5v-125q0 -75 59 -75q39 0 82 18v-47q-44 -23 -94 -23q-49 0 -76.5 31.5t-27.5 87.5v86l-76 -60v57zM169 298q56 57 85.5 135.5t29.5 169.5q0 49 -14.5 75t-42.5 26
q-30 0 -44 -21.5t-14 -68.5v-316z" />
    <glyph glyph-name="uni2116" unicode="&#x2116;" horiz-adv-x="1022" 
d="M144 603v-603h-56v693h65l363 -605v605h56v-693h-65zM823 338q-74 0 -114.5 48t-40.5 134q0 85 41 133t114 48q74 0 114.5 -48t40.5 -134q0 -85 -41 -133t-114 -48zM823 382q51 0 78 35.5t27 101.5q0 67 -27 102.5t-78 35.5t-78 -35.5t-27 -101.5q0 -67 27 -102.5
t78 -35.5zM970 275v-43h-294v43h294z" />
    <glyph glyph-name="uni2117" unicode="&#x2117;" horiz-adv-x="770" 
d="M385 -17q-100 0 -180.5 44.5t-127.5 127t-47 190.5q0 102 44 184t125 130t186 48q100 0 180.5 -44.5t127.5 -127t47 -190.5q0 -102 -44 -184t-125 -130t-186 -48zM385 31q87 0 155.5 38.5t107.5 110t39 165.5q0 91 -36.5 162t-105.5 111.5t-160 40.5q-87 0 -155.5 -38.5
t-107.5 -110t-39 -165.5q0 -91 36.5 -162t105.5 -111.5t160 -40.5zM284 149v390h135q53 0 86 -34t33 -90t-33 -90t-86 -34h-83v-142h-52zM336 335h79q33 0 50.5 20.5t17.5 59.5t-17.5 59.5t-50.5 20.5h-79v-160z" />
    <glyph glyph-name="trademark" unicode="&#x2122;" horiz-adv-x="812" 
d="M705 309v306l-113 -207h-48l-113 204v-303h-50v384h59l128 -236l128 236h59v-384h-50zM142 309v340h-124v44h301v-44h-124v-340h-53z" />
    <glyph glyph-name="uni2126" unicode="&#x2126;" horiz-adv-x="754" 
d="M456 0v51q82 46 126 128t44 189q0 284 -249 284t-249 -284q0 -107 44 -189t126 -128v-51h-254v51h178q-74 50 -114 132.5t-40 185.5q0 161 81 249.5t228 88.5t228 -88.5t81 -249.5q0 -103 -40 -185.5t-114 -132.5h178v-51h-254z" />
    <glyph glyph-name="estimated" unicode="&#x212e;" horiz-adv-x="882" 
d="M198 134q0 -12 9 -22q84 -96 234 -96q74 0 138 28t107 80h62q-50 -63 -130.5 -98t-176.5 -35q-115 0 -203.5 46.5t-136 126.5t-47.5 180q0 105 52 187t139.5 126.5t194.5 44.5q115 0 203.5 -46.5t136.5 -126t48 -178.5v-15h-624q-6 0 -6 -6v-196zM679 358q6 0 6 6v193
q0 16 -9 25q-45 45 -107 70t-129 25q-146 0 -234 -98q-8 -10 -8 -25v-190q0 -6 6 -6h475z" />
    <glyph glyph-name="oneseventh" unicode="&#x2150;" horiz-adv-x="940" 
d="M238 0l335 693h57l-335 -693h-57zM655 0l168 338h-224v46h278v-42l-168 -342h-54zM212 309v329l-119 -48v46l123 57h49v-384h-53z" />
    <glyph glyph-name="oneninth" unicode="&#x2151;" horiz-adv-x="940" 
d="M257 0l335 693h57l-335 -693h-57zM606 61q57 -24 100 -24q55 0 83.5 32.5t32.5 101.5q-48 -30 -103 -30q-59 0 -93.5 33t-34.5 89q0 55 39 92t99 37q70 0 107.5 -49t37.5 -140q0 -102 -41.5 -156.5t-119.5 -54.5q-60 0 -107 27v42zM728 185q45 0 95 28v10q0 60 -25 92
t-72 32q-38 0 -60.5 -23t-22.5 -61t22 -58t63 -20zM212 309v329l-119 -48v46l123 57h49v-384h-53z" />
    <glyph glyph-name="onethird" unicode="&#x2153;" horiz-adv-x="940" 
d="M246 0l335 693h57l-335 -693h-57zM720 -8q-66 0 -115 25v42q59 -22 117 -22q47 0 72 19t25 54q0 69 -92 69q-39 0 -68 -3v34l130 129h-182v45h242v-42l-119 -120h17q59 0 92.5 -30t33.5 -82q0 -54 -41.5 -86t-111.5 -32zM212 309v329l-119 -48v46l123 57h49v-384h-53z
" />
    <glyph glyph-name="twothirds" unicode="&#x2154;" horiz-adv-x="940" 
d="M275 0l335 693h57l-335 -693h-57zM720 -8q-66 0 -115 25v42q59 -22 117 -22q47 0 72 19t25 54q0 69 -92 69q-39 0 -68 -3v34l130 129h-182v45h242v-42l-119 -120h17q59 0 92.5 -30t33.5 -82q0 -54 -41.5 -86t-111.5 -32zM83 658q55 43 120 43q53 0 85.5 -29.5t32.5 -77.5
q0 -32 -17.5 -62.5t-57 -71.5t-112.5 -105h204v-46h-266v43q84 78 123.5 120t54.5 68.5t15 51.5q0 29 -17.5 45t-49.5 16q-51 0 -115 -42v47z" />
    <glyph glyph-name="onefifth" unicode="&#x2155;" horiz-adv-x="940" 
d="M260 0l335 693h57l-335 -693h-57zM724 -8q-65 0 -113 24v42q60 -21 115 -21q47 0 72 19t25 54q0 43 -23.5 60.5t-79.5 17.5q-41 0 -90 -7v34l11 169h212v-45h-166l-7 -113q29 6 59 6q65 0 101.5 -32t36.5 -90q0 -53 -41.5 -85.5t-111.5 -32.5zM212 309v329l-119 -48v46
l123 57h49v-384h-53z" />
    <glyph glyph-name="twofifths" unicode="&#x2156;" horiz-adv-x="940" 
d="M294 0l335 693h57l-335 -693h-57zM724 -8q-65 0 -113 24v42q60 -21 115 -21q47 0 72 19t25 54q0 43 -23.5 60.5t-79.5 17.5q-41 0 -90 -7v34l11 169h212v-45h-166l-7 -113q29 6 59 6q65 0 101.5 -32t36.5 -90q0 -53 -41.5 -85.5t-111.5 -32.5zM83 658q55 43 120 43
q53 0 85.5 -29.5t32.5 -77.5q0 -32 -17.5 -62.5t-57 -71.5t-112.5 -105h204v-46h-266v43q84 78 123.5 120t54.5 68.5t15 51.5q0 29 -17.5 45t-49.5 16q-51 0 -115 -42v47z" />
    <glyph glyph-name="threefifths" unicode="&#x2157;" horiz-adv-x="940" 
d="M277 0l335 693h57l-335 -693h-57zM724 -8q-65 0 -113 24v42q60 -21 115 -21q47 0 72 19t25 54q0 43 -23.5 60.5t-79.5 17.5q-41 0 -90 -7v34l11 169h212v-45h-166l-7 -113q29 6 59 6q65 0 101.5 -32t36.5 -90q0 -53 -41.5 -85.5t-111.5 -32.5zM190 301q-66 0 -115 25v42
q59 -22 117 -22q47 0 72 19t25 54q0 69 -92 69q-39 0 -68 -3v34l130 129h-182v45h242v-42l-119 -120h17q59 0 92.5 -30t33.5 -82q0 -54 -41.5 -86t-111.5 -32z" />
    <glyph glyph-name="fourfifths" unicode="&#x2158;" horiz-adv-x="940" 
d="M290 0l335 693h57l-335 -693h-57zM724 -8q-65 0 -113 24v42q60 -21 115 -21q47 0 72 19t25 54q0 43 -23.5 60.5t-79.5 17.5q-41 0 -90 -7v34l11 169h212v-45h-166l-7 -113q29 6 59 6q65 0 101.5 -32t36.5 -90q0 -53 -41.5 -85.5t-111.5 -32.5zM250 309v82h-198v42
l197 266h52v-264h61v-44h-61v-82h-51zM106 435h144v195z" />
    <glyph glyph-name="onesixth" unicode="&#x2159;" horiz-adv-x="940" 
d="M268 0l335 693h57l-335 -693h-57zM765 347q-58 0 -87.5 -35.5t-32.5 -109.5q57 33 107 33q58 0 93.5 -32t35.5 -86q0 -56 -37.5 -90.5t-97.5 -34.5q-74 0 -113 49t-39 140q0 101 44 156t124 55q49 0 89 -20v-42q-48 17 -86 17zM747 190q-55 0 -101 -31q5 -122 100 -122
q39 0 61 21t22 59q0 35 -21 54t-61 19zM212 309v329l-119 -48v46l123 57h49v-384h-53z" />
    <glyph glyph-name="fivesixths" unicode="&#x215a;" horiz-adv-x="940" 
d="M285 0l335 693h57l-335 -693h-57zM765 347q-58 0 -87.5 -35.5t-32.5 -109.5q57 33 107 33q58 0 93.5 -32t35.5 -86q0 -56 -37.5 -90.5t-97.5 -34.5q-74 0 -113 49t-39 140q0 101 44 156t124 55q49 0 89 -20v-42q-48 17 -86 17zM747 190q-55 0 -101 -31q5 -122 100 -122
q39 0 61 21t22 59q0 35 -21 54t-61 19zM194 301q-65 0 -113 24v42q60 -21 115 -21q47 0 72 19t25 54q0 43 -23.5 60.5t-79.5 17.5q-41 0 -90 -7v34l11 169h212v-45h-166l-7 -113q29 6 59 6q65 0 101.5 -32t36.5 -90q0 -53 -41.5 -85.5t-111.5 -32.5z" />
    <glyph glyph-name="oneeighth" unicode="&#x215b;" horiz-adv-x="940" 
d="M263 0l335 693h57l-335 -693h-57zM863 286q0 -27 -17.5 -51t-49.5 -41q83 -36 83 -95q0 -48 -40 -77.5t-106 -29.5q-65 0 -103.5 28.5t-38.5 77.5q0 33 19.5 60t55.5 44q-60 32 -60 83q0 48 35.5 77.5t93.5 29.5q57 0 92.5 -29.5t35.5 -76.5zM707 183q-31 -15 -48 -36
t-17 -45q0 -31 24.5 -49t68.5 -18q43 0 68 17.5t25 46.5q0 20 -17 34.5t-61 32.5zM657 287q0 -22 14.5 -37t47.5 -28l38 -15q26 14 40.5 34.5t14.5 42.5q0 30 -21 47.5t-56 17.5t-56.5 -17t-21.5 -45zM212 309v329l-119 -48v46l123 57h49v-384h-53z" />
    <glyph glyph-name="threeeighths" unicode="&#x215c;" horiz-adv-x="940" 
d="M277 0l335 693h57l-335 -693h-57zM863 286q0 -27 -17.5 -51t-49.5 -41q83 -36 83 -95q0 -48 -40 -77.5t-106 -29.5q-65 0 -103.5 28.5t-38.5 77.5q0 33 19.5 60t55.5 44q-60 32 -60 83q0 48 35.5 77.5t93.5 29.5q57 0 92.5 -29.5t35.5 -76.5zM707 183q-31 -15 -48 -36
t-17 -45q0 -31 24.5 -49t68.5 -18q43 0 68 17.5t25 46.5q0 20 -17 34.5t-61 32.5zM657 287q0 -22 14.5 -37t47.5 -28l38 -15q26 14 40.5 34.5t14.5 42.5q0 30 -21 47.5t-56 17.5t-56.5 -17t-21.5 -45zM190 301q-66 0 -115 25v42q59 -22 117 -22q47 0 72 19t25 54
q0 69 -92 69q-39 0 -68 -3v34l130 129h-182v45h242v-42l-119 -120h17q59 0 92.5 -30t33.5 -82q0 -54 -41.5 -86t-111.5 -32z" />
    <glyph glyph-name="fiveeighths" unicode="&#x215d;" horiz-adv-x="940" 
d="M281 0l335 693h57l-335 -693h-57zM863 286q0 -27 -17.5 -51t-49.5 -41q83 -36 83 -95q0 -48 -40 -77.5t-106 -29.5q-65 0 -103.5 28.5t-38.5 77.5q0 33 19.5 60t55.5 44q-60 32 -60 83q0 48 35.5 77.5t93.5 29.5q57 0 92.5 -29.5t35.5 -76.5zM707 183q-31 -15 -48 -36
t-17 -45q0 -31 24.5 -49t68.5 -18q43 0 68 17.5t25 46.5q0 20 -17 34.5t-61 32.5zM657 287q0 -22 14.5 -37t47.5 -28l38 -15q26 14 40.5 34.5t14.5 42.5q0 30 -21 47.5t-56 17.5t-56.5 -17t-21.5 -45zM194 301q-65 0 -113 24v42q60 -21 115 -21q47 0 72 19t25 54
q0 43 -23.5 60.5t-79.5 17.5q-41 0 -90 -7v34l11 169h212v-45h-166l-7 -113q29 6 59 6q65 0 101.5 -32t36.5 -90q0 -53 -41.5 -85.5t-111.5 -32.5z" />
    <glyph glyph-name="seveneighths" unicode="&#x215e;" horiz-adv-x="940" 
d="M254 0l335 693h57l-335 -693h-57zM863 286q0 -27 -17.5 -51t-49.5 -41q83 -36 83 -95q0 -48 -40 -77.5t-106 -29.5q-65 0 -103.5 28.5t-38.5 77.5q0 33 19.5 60t55.5 44q-60 32 -60 83q0 48 35.5 77.5t93.5 29.5q57 0 92.5 -29.5t35.5 -76.5zM707 183q-31 -15 -48 -36
t-17 -45q0 -31 24.5 -49t68.5 -18q43 0 68 17.5t25 46.5q0 20 -17 34.5t-61 32.5zM657 287q0 -22 14.5 -37t47.5 -28l38 -15q26 14 40.5 34.5t14.5 42.5q0 30 -21 47.5t-56 17.5t-56.5 -17t-21.5 -45zM125 309l168 338h-224v46h278v-42l-168 -342h-54z" />
    <glyph glyph-name="partialdiff" unicode="&#x2202;" 
d="M303 707q110 0 168.5 -76.5t58.5 -218.5q0 -208 -72 -317.5t-209 -109.5q-94 0 -147.5 52.5t-53.5 144.5q0 67 29 120t83 84t125 31q52 0 101.5 -19t84.5 -53q3 32 3 67q0 119 -45 180t-134 61q-35 0 -77.5 -15.5t-83.5 -43.5v56q78 57 169 57zM251 39q89 0 144 65
t72 190q-37 34 -82 51.5t-94 17.5q-86 0 -134.5 -46t-48.5 -128q0 -73 37 -111.5t106 -38.5z" />
    <glyph glyph-name="uni2206" unicode="&#x2206;" 
d="M16 0v52l246 641h63l246 -641v-52h-555zM292 631l-218 -578h438z" />
    <glyph glyph-name="product" unicode="&#x220f;" 
d="M481 -120v762h-376v-762h-57v813h490v-813h-57z" />
    <glyph glyph-name="summation" unicode="&#x2211;" 
d="M48 -120v51l231 358l-223 353v51h470v-51h-406l225 -354l-234 -357h445v-51h-508z" />
    <glyph glyph-name="minus" unicode="&#x2212;" 
d="M74 325v50h438v-50h-438z" />
    <glyph glyph-name="uni2215" unicode="&#x2215;" 
d="M97 0l335 693h57l-335 -693h-57z" />
    <glyph glyph-name="uni2219" unicode="&#x2219;" 
d="M293 278q-20 0 -32.5 13t-12.5 33q0 21 12.5 34t32.5 13t32.5 -13t12.5 -34q0 -20 -12.5 -33t-32.5 -13z" />
    <glyph glyph-name="radical" unicode="&#x221a;" 
d="M526 740h54l-260 -740h-72l-123 312h-70v50h111l118 -311z" />
    <glyph glyph-name="infinity" unicode="&#x221e;" 
d="M434 203q-44 0 -77 23t-65 75q-35 -53 -67 -75.5t-77 -22.5q-56 0 -91.5 39t-35.5 101t37 102t94 40q44 0 76.5 -23.5t65.5 -76.5q23 36 45.5 58t46 32t52.5 10q56 0 91.5 -39.5t35.5 -102.5q0 -61 -37 -100.5t-94 -39.5zM150 252q36 0 62 20.5t56 70.5q-30 51 -56.5 72
t-61.5 21q-34 0 -55 -26t-21 -67q0 -40 21 -65.5t55 -25.5zM436 436q-35 0 -60 -19.5t-58 -73.5q28 -49 55 -70t63 -21q34 0 55 25.5t21 65.5q0 41 -21 67t-55 26z" />
    <glyph glyph-name="integral" unicode="&#x222b;" 
d="M322 -82q0 -63 -35.5 -99.5t-96.5 -36.5q-46 0 -79 13v47q38 -9 71 -9q83 0 83 79v706q0 63 35.5 99.5t96.5 36.5q20 0 42.5 -3.5t36.5 -9.5v-47q-37 9 -71 9q-83 0 -83 -79v-706z" />
    <glyph glyph-name="approxequal" unicode="&#x2248;" 
d="M63 165q-2 20 -2 35q0 56 30 87t84 31q55 0 124 -52q46 -35 66.5 -45t45.5 -10q31 0 45.5 17t18.5 57l2 28h46q2 -20 2 -35q0 -56 -30 -87t-84 -31q-55 0 -124 52q-46 35 -66.5 45t-45.5 10q-31 0 -45.5 -17t-18.5 -57l-2 -28h-46zM63 385q-2 20 -2 35q0 56 30 87t84 31
q55 0 124 -52q46 -35 66.5 -45t45.5 -10q31 0 45.5 17t18.5 57l2 28h46q2 -20 2 -35q0 -56 -30 -87t-84 -31q-55 0 -124 52q-46 35 -66.5 45t-45.5 10q-31 0 -45.5 -17t-18.5 -57l-2 -28h-46z" />
    <glyph glyph-name="notequal" unicode="&#x2260;" 
d="M134 112l57 102h-117v50h145l96 171h-241v50h269l57 102h57l-57 -102h112v-50h-140l-96 -171h236v-50h-264l-57 -102h-57z" />
    <glyph glyph-name="lessequal" unicode="&#x2264;" 
d="M82 392v50l422 195v-55l-365 -164l365 -164v-57zM74 49v50h438v-50h-438z" />
    <glyph glyph-name="greaterequal" unicode="&#x2265;" 
d="M504 442v-50l-422 -195v55l365 164l-365 164v57zM74 49v50h438v-50h-438z" />
    <glyph glyph-name="lozenge" unicode="&#x25ca;" 
d="M263 0l-211 346l211 347h60l211 -347l-211 -346h-60zM475 346l-182 298l-182 -298l182 -297z" />
    <glyph glyph-name="uni27E8" unicode="&#x27e8;" horiz-adv-x="295" 
d="M212 -144l-162 449l162 449h57l-161 -449l161 -449h-57z" />
    <glyph glyph-name="uni27E9" unicode="&#x27e9;" horiz-adv-x="295" 
d="M83 754l162 -449l-162 -449h-57l161 449l-161 449h57z" />
    <glyph glyph-name="twosevenths" unicode="&#xf507;" horiz-adv-x="940" 
d="M274 0l335 693h57l-335 -693h-57zM655 0l168 338h-224v46h278v-42l-168 -342h-54zM83 658q55 43 120 43q53 0 85.5 -29.5t32.5 -77.5q0 -32 -17.5 -62.5t-57 -71.5t-112.5 -105h204v-46h-266v43q84 78 123.5 120t54.5 68.5t15 51.5q0 29 -17.5 45t-49.5 16
q-51 0 -115 -42v47z" />
    <glyph glyph-name="threesevenths" unicode="&#xf508;" horiz-adv-x="940" 
d="M268 0l335 693h57l-335 -693h-57zM655 0l168 338h-224v46h278v-42l-168 -342h-54zM190 301q-66 0 -115 25v42q59 -22 117 -22q47 0 72 19t25 54q0 69 -92 69q-39 0 -68 -3v34l130 129h-182v45h242v-42l-119 -120h17q59 0 92.5 -30t33.5 -82q0 -54 -41.5 -86t-111.5 -32z
" />
    <glyph glyph-name="foursevenths" unicode="&#xf509;" horiz-adv-x="940" 
d="M266 0l335 693h57l-335 -693h-57zM655 0l168 338h-224v46h278v-42l-168 -342h-54zM250 309v82h-198v42l197 266h52v-264h61v-44h-61v-82h-51zM106 435h144v195z" />
    <glyph glyph-name="fivesevenths" unicode="&#xf50a;" horiz-adv-x="940" 
d="M259 0l335 693h57l-335 -693h-57zM655 0l168 338h-224v46h278v-42l-168 -342h-54zM194 301q-65 0 -113 24v42q60 -21 115 -21q47 0 72 19t25 54q0 43 -23.5 60.5t-79.5 17.5q-41 0 -90 -7v34l11 169h212v-45h-166l-7 -113q29 6 59 6q65 0 101.5 -32t36.5 -90
q0 -53 -41.5 -85.5t-111.5 -32.5z" />
    <glyph glyph-name="sixsevenths" unicode="&#xf50b;" horiz-adv-x="940" 
d="M260 0l335 693h57l-335 -693h-57zM655 0l168 338h-224v46h278v-42l-168 -342h-54zM235 656q-58 0 -87.5 -35.5t-32.5 -109.5q57 33 107 33q58 0 93.5 -32t35.5 -86q0 -56 -37.5 -90.5t-97.5 -34.5q-74 0 -113 49t-39 140q0 101 44 156t124 55q49 0 89 -20v-42
q-48 17 -86 17zM217 499q-55 0 -101 -31q5 -122 100 -122q39 0 61 21t22 59q0 35 -21 54t-61 19z" />
    <glyph glyph-name="twoninths" unicode="&#xf50d;" horiz-adv-x="940" 
d="M286 0l335 693h57l-335 -693h-57zM606 61q57 -24 100 -24q55 0 83.5 32.5t32.5 101.5q-48 -30 -103 -30q-59 0 -93.5 33t-34.5 89q0 55 39 92t99 37q70 0 107.5 -49t37.5 -140q0 -102 -41.5 -156.5t-119.5 -54.5q-60 0 -107 27v42zM728 185q45 0 95 28v10q0 60 -25 92
t-72 32q-38 0 -60.5 -23t-22.5 -61t22 -58t63 -20zM83 658q55 43 120 43q53 0 85.5 -29.5t32.5 -77.5q0 -32 -17.5 -62.5t-57 -71.5t-112.5 -105h204v-46h-266v43q84 78 123.5 120t54.5 68.5t15 51.5q0 29 -17.5 45t-49.5 16q-51 0 -115 -42v47z" />
    <glyph glyph-name="fourninths" unicode="&#xf50e;" horiz-adv-x="940" 
d="M282 0l335 693h57l-335 -693h-57zM606 61q57 -24 100 -24q55 0 83.5 32.5t32.5 101.5q-48 -30 -103 -30q-59 0 -93.5 33t-34.5 89q0 55 39 92t99 37q70 0 107.5 -49t37.5 -140q0 -102 -41.5 -156.5t-119.5 -54.5q-60 0 -107 27v42zM728 185q45 0 95 28v10q0 60 -25 92
t-72 32q-38 0 -60.5 -23t-22.5 -61t22 -58t63 -20zM250 309v82h-198v42l197 266h52v-264h61v-44h-61v-82h-51zM106 435h144v195z" />
    <glyph glyph-name="fiveninths" unicode="&#xf50f;" horiz-adv-x="940" 
d="M277 0l335 693h57l-335 -693h-57zM606 61q57 -24 100 -24q55 0 83.5 32.5t32.5 101.5q-48 -30 -103 -30q-59 0 -93.5 33t-34.5 89q0 55 39 92t99 37q70 0 107.5 -49t37.5 -140q0 -102 -41.5 -156.5t-119.5 -54.5q-60 0 -107 27v42zM728 185q45 0 95 28v10q0 60 -25 92
t-72 32q-38 0 -60.5 -23t-22.5 -61t22 -58t63 -20zM194 301q-65 0 -113 24v42q60 -21 115 -21q47 0 72 19t25 54q0 43 -23.5 60.5t-79.5 17.5q-41 0 -90 -7v34l11 169h212v-45h-166l-7 -113q29 6 59 6q65 0 101.5 -32t36.5 -90q0 -53 -41.5 -85.5t-111.5 -32.5z" />
    <glyph glyph-name="sevenninths" unicode="&#xf510;" horiz-adv-x="940" 
d="M240 0l335 693h57l-335 -693h-57zM606 61q57 -24 100 -24q55 0 83.5 32.5t32.5 101.5q-48 -30 -103 -30q-59 0 -93.5 33t-34.5 89q0 55 39 92t99 37q70 0 107.5 -49t37.5 -140q0 -102 -41.5 -156.5t-119.5 -54.5q-60 0 -107 27v42zM728 185q45 0 95 28v10q0 60 -25 92
t-72 32q-38 0 -60.5 -23t-22.5 -61t22 -58t63 -20zM125 309l168 338h-224v46h278v-42l-168 -342h-54z" />
    <glyph glyph-name="eightninths" unicode="&#xf511;" horiz-adv-x="940" 
d="M280 0l335 693h57l-335 -693h-57zM606 61q57 -24 100 -24q55 0 83.5 32.5t32.5 101.5q-48 -30 -103 -30q-59 0 -93.5 33t-34.5 89q0 55 39 92t99 37q70 0 107.5 -49t37.5 -140q0 -102 -41.5 -156.5t-119.5 -54.5q-60 0 -107 27v42zM728 185q45 0 95 28v10q0 60 -25 92
t-72 32q-38 0 -60.5 -23t-22.5 -61t22 -58t63 -20zM333 595q0 -27 -17.5 -51t-49.5 -41q83 -36 83 -95q0 -48 -40 -77.5t-106 -29.5q-65 0 -103.5 28.5t-38.5 77.5q0 33 19.5 60t55.5 44q-60 32 -60 83q0 48 35.5 77.5t93.5 29.5q57 0 92.5 -29.5t35.5 -76.5zM177 492
q-31 -15 -48 -36t-17 -45q0 -31 24.5 -49t68.5 -18q43 0 68 17.5t25 46.5q0 20 -17 34.5t-61 32.5zM127 596q0 -22 14.5 -37t47.5 -28l38 -15q26 14 40.5 34.5t14.5 42.5q0 30 -21 47.5t-56 17.5t-56.5 -17t-21.5 -45z" />
    <glyph glyph-name="uniFEFF" unicode="&#xfeff;" horiz-adv-x="0" 
 />
    <glyph glyph-name="uniFFFD" unicode="&#xfffd;" horiz-adv-x="1000" 
d="M29 340l471 471l471 -471l-471 -471zM609 456q0 -39 -27 -70t-86 -59l-47 -22l9 -136h78v103q85 38 125 85t40 108q0 74 -47.5 115t-132.5 41q-43 0 -85.5 -12t-79.5 -34v-74q80 42 150 42q103 0 103 -87zM500 -6q25 0 40.5 16t15.5 41t-15.5 41t-40.5 16t-40.5 -16
t-15.5 -41t15.5 -41t40.5 -16z" />
    <glyph glyph-name="zero.pnum" horiz-adv-x="602" 
d="M301 39q94 0 139.5 75t45.5 231t-45.5 232t-139.5 76t-139.5 -76t-45.5 -232t45.5 -231t139.5 -75zM301 -15q-120 0 -182.5 91.5t-62.5 268.5t62.5 269.5t182.5 92.5t182.5 -92.5t62.5 -269.5t-62.5 -268.5t-182.5 -91.5z" />
    <glyph glyph-name="one.pnum" horiz-adv-x="421" 
d="M238 0v631l-205 -87v50l205 99h58v-693h-58z" />
    <glyph glyph-name="two.pnum" horiz-adv-x="523" 
d="M64 634q89 73 195 73q88 0 141 -49.5t53 -130.5q0 -60 -30.5 -118t-101.5 -139.5t-206 -216.5h368v-53h-438v51q155 160 225.5 242.5t96 133t25.5 96.5q0 60 -37 94.5t-100 34.5q-88 0 -191 -74v56z" />
    <glyph glyph-name="three.pnum" horiz-adv-x="514" 
d="M203 386q24 3 52 3q95 0 152.5 -54t57.5 -143q0 -94 -67.5 -150.5t-180.5 -56.5q-93 0 -184 40v50q63 -20 104 -28t83 -8q88 0 136.5 40t48.5 113q0 147 -179 147q-52 0 -96 -4v44l238 261h-325v53h394v-52z" />
    <glyph glyph-name="four.pnum" horiz-adv-x="574" 
d="M376 0v159h-343v51l341 483h60v-484h105v-50h-105v-159h-58zM376 209v402l-283 -402h283z" />
    <glyph glyph-name="five.pnum" horiz-adv-x="525" 
d="M53 74q106 -35 183 -35q89 0 137.5 41t48.5 115q0 88 -44.5 125.5t-147.5 37.5q-50 0 -147 -10v45l20 300h341v-53h-289l-15 -238q58 10 109 10q112 0 172.5 -56.5t60.5 -160.5q0 -61 -30.5 -108.5t-87 -74.5t-132.5 -27q-98 0 -179 39v50z" />
    <glyph glyph-name="six.pnum" horiz-adv-x="571" 
d="M336 653q-108 0 -163.5 -77t-57.5 -228q40 30 91.5 47.5t101.5 17.5q96 0 155 -57.5t59 -149.5q0 -101 -59 -161t-159 -60q-247 0 -247 342q0 181 71 280.5t201 99.5q80 0 146 -30v-51q-78 27 -139 27zM302 359q-47 0 -97 -16t-90 -44q1 -126 50 -193t139 -67
q75 0 117.5 44t42.5 124q0 72 -42.5 112t-119.5 40z" />
    <glyph glyph-name="seven.pnum" horiz-adv-x="514" 
d="M119 0l292 640h-388v53h448v-52l-292 -641h-60z" />
    <glyph glyph-name="eight.pnum" horiz-adv-x="570" 
d="M493 524q0 -58 -32 -104.5t-91 -76.5q79 -34 115 -74.5t36 -96.5q0 -84 -66 -135.5t-173 -51.5q-106 0 -168.5 50.5t-62.5 135.5q0 125 144 192q-117 53 -117 159q0 83 57.5 134t150.5 51q60 0 106.5 -22.5t73.5 -64t27 -96.5zM242 343q-133 -66 -133 -165
q0 -67 46.5 -104t130.5 -37q83 0 130 36t47 100q0 45 -31 75t-114 64zM135 525q0 -46 30 -78.5t95 -58.5l65 -26q111 62 111 158q0 64 -39.5 100.5t-110.5 36.5t-111 -35t-40 -97z" />
    <glyph glyph-name="nine.pnum" horiz-adv-x="563" 
d="M76 75q37 -17 77.5 -26.5t75.5 -9.5q108 0 162 68.5t58 212.5q-37 -28 -88 -45t-100 -17q-99 0 -155.5 59t-56.5 163q0 65 26.5 116.5t76 81t114.5 29.5q118 0 180 -85.5t62 -247.5q0 -193 -67.5 -291t-200.5 -98q-46 0 -90.5 10.5t-73.5 28.5v51zM267 312q46 0 95.5 15
t87.5 40v23q-2 130 -49 196.5t-136 66.5q-72 0 -115 -46.5t-43 -126.5q0 -82 41 -125t119 -43z" />
    <glyph glyph-name="florin.crcy" 
d="M303 -82q0 -63 -35 -99.5t-96 -36.5q-21 0 -43.5 4t-36.5 10v46q38 -9 71 -9q83 0 83 79v541h-98v40l98 9v115q0 67 35 102t100 35q24 0 49.5 -4.5t43.5 -11.5v-47q-50 11 -86 11q-45 0 -65 -18.5t-20 -60.5v-120h166v-50h-166v-535z" />
    <glyph glyph-name="hyphen.case" horiz-adv-x="379" 
d="M50 326v53h279v-53h-279z" />
    <glyph glyph-name="endash.case" horiz-adv-x="500" 
d="M0 328v50h500v-50h-500z" />
    <glyph glyph-name="emdash.case" horiz-adv-x="1000" 
d="M0 328v50h1000v-50h-1000z" />
    <glyph glyph-name="parenleft.case" horiz-adv-x="277" 
d="M196 -113q-64 97 -98 213t-34 236q0 119 34 235t98 214h57q-61 -94 -94 -210.5t-33 -238.5t33 -238.5t94 -210.5h-57z" />
    <glyph glyph-name="parenright.case" horiz-adv-x="277" 
d="M81 785q64 -97 98 -213t34 -236q0 -119 -34 -235t-98 -214h-57q61 94 94 210.5t33 238.5t-33 238.5t-94 210.5h57z" />
    <glyph glyph-name="slash.case" horiz-adv-x="433" 
d="M18 -113l339 898h58l-339 -898h-58z" />
    <glyph glyph-name="backslash.case" horiz-adv-x="433" 
d="M357 -113l-339 898h58l339 -898h-58z" />
    <glyph glyph-name="bracketleft.case" horiz-adv-x="334" 
d="M88 -113v898h222v-53h-163v-792h163v-53h-222z" />
    <glyph glyph-name="bracketright.case" horiz-adv-x="334" 
d="M24 -113v53h163v792h-163v53h222v-898h-222z" />
    <glyph glyph-name="braceleft.case" horiz-adv-x="369" 
d="M345 -108q-31 -13 -75 -13q-66 0 -102 39t-36 110v206q0 43 -18 60.5t-62 17.5h-20v48h20q44 0 62 17.5t18 60.5v206q0 71 36 110t102 39q44 0 75 -13v-47q-40 8 -69 8q-44 0 -64.5 -22t-20.5 -71v-201q0 -47 -17.5 -72.5t-58.5 -38.5q41 -13 58.5 -38.5t17.5 -72.5v-201
q0 -49 20.5 -71t64.5 -22q29 0 69 8v-47z" />
    <glyph glyph-name="braceright.case" horiz-adv-x="369" 
d="M24 780q31 13 75 13q66 0 102 -39t36 -110v-206q0 -43 18 -60.5t62 -17.5h20v-48h-20q-44 0 -62 -17.5t-18 -60.5v-206q0 -71 -36 -110t-102 -39q-44 0 -75 13v47q40 -8 69 -8q44 0 64.5 22t20.5 71v201q0 48 17.5 73.5t57.5 37.5q-40 12 -57.5 37.5t-17.5 73.5v201
q0 49 -20.5 71t-64.5 22q-29 0 -69 -8v47z" />
    <glyph glyph-name="bullet.case" horiz-adv-x="334" 
d="M167 233q-50 0 -84.5 34t-34.5 85t34.5 85t84.5 34t84.5 -34t34.5 -85t-34.5 -85t-84.5 -34z" />
    <glyph glyph-name="guilsinglleft.case" horiz-adv-x="300" 
d="M186 144l-136 208l136 208h58l-130 -208l130 -208h-58z" />
    <glyph glyph-name="guilsinglright.case" horiz-adv-x="300" 
d="M114 560l136 -208l-136 -208h-58l130 208l-130 208h58z" />
    <glyph glyph-name="guillemotleft.case" horiz-adv-x="454" 
d="M186 144l-136 208l136 208h58l-130 -208l130 -208h-58zM340 144l-136 208l136 208h58l-130 -208l130 -208h-58z" />
    <glyph glyph-name="guillemotright.case" horiz-adv-x="454" 
d="M114 560l136 -208l-136 -208h-58l130 208l-130 208h58zM268 560l136 -208l-136 -208h-58l130 208l-130 208h58z" />
    <glyph glyph-name="at.case" horiz-adv-x="941" 
d="M417 -73q84 0 166 27v-47q-85 -32 -168 -32q-111 0 -192.5 45.5t-126 132.5t-44.5 207q0 141 59 256.5t167.5 184.5t245.5 69q106 0 188.5 -42.5t129.5 -124t47 -190.5q0 -87 -28.5 -161.5t-80 -120.5t-114.5 -46q-79 0 -94 68q-70 -70 -158 -70q-68 0 -108.5 48
t-40.5 128q0 78 30 146t84 111t118 43q38 0 69.5 -16t52.5 -45l17 46h40l-51 -311q-4 -30 -4 -41q0 -32 11.5 -45.5t37.5 -13.5q44 0 81.5 35.5t60.5 100.5t23 145q0 90 -37 159t-107.5 107t-166.5 38q-116 0 -210.5 -56.5t-150 -161t-55.5 -239.5q0 -159 80.5 -246.5
t228.5 -87.5zM421 135q39 0 74 15.5t74 50.5q0 11 3 32l35 217q-40 57 -109 57q-47 0 -87.5 -31t-65 -86.5t-24.5 -124.5q0 -62 26 -96t74 -34z" />
    <glyph glyph-name="periodcentered.case" horiz-adv-x="214" 
d="M107 307q-20 0 -32.5 13t-12.5 33q0 21 12.5 34t32.5 13t32.5 -13t12.5 -34q0 -20 -12.5 -33t-32.5 -13z" />
    <glyph glyph-name="periodcentered.locl_CAT" horiz-adv-x="214" 
d="M107 317q-20 0 -31.5 12t-11.5 32t11.5 32t31.5 12t31.5 -12t11.5 -32t-11.5 -32t-31.5 -12z" />
    <glyph glyph-name="periodcentered.locl_CAT.cap" horiz-adv-x="214" 
d="M107 326q-20 0 -31.5 12t-11.5 32t11.5 32t31.5 12t31.5 -12t11.5 -32t-11.5 -32t-31.5 -12z" />
    <glyph glyph-name="uni0327.cap" horiz-adv-x="0" 
d="M-14 -66q39 0 62.5 -18.5t23.5 -49.5q0 -37 -29 -74t-83 -66l-32 27q42 29 64.5 56t22.5 48q0 30 -42 30q-19 0 -40 -3v42q27 8 53 8z" />
    <glyph glyph-name="uni0326.cap" horiz-adv-x="0" 
d="M-59 -270l34 202h23q20 0 29 -5.5t9 -17.5q0 -9 -12 -47l-42 -132h-41z" />
    <glyph glyph-name="uni0328.cap" horiz-adv-x="0" 
d="M0 0q-42 -32 -64.5 -66t-22.5 -64q0 -21 13.5 -31t43.5 -10q19 0 42 5v-42q-26 -10 -57 -10q-47 0 -72.5 21t-25.5 60q0 40 26.5 79t72.5 68z" />
    <glyph glyph-name="uni0328.round" horiz-adv-x="0" 
d="M0 7q-45 -20 -74 -58t-29 -76q0 -24 14 -35t45 -11q19 0 42 5v-40q-26 -10 -57 -10q-47 0 -72.5 21t-25.5 61q0 52 41.5 99.5t115.5 76.5v-33z" />
    <glyph glyph-name="uni0328.round.cap" horiz-adv-x="0" 
d="M0 6q-46 -20 -75 -58t-29 -75q0 -24 14 -34t43 -10q19 0 42 5v-42q-26 -10 -57 -10q-47 0 -72.5 21t-25.5 61q0 51 41.5 97.5t118.5 78.5v-34z" />
    <glyph glyph-name="iogonek.dotless" horiz-adv-x="221" 
d="M153 -208q-26 -10 -57 -10q-47 0 -72.5 21t-25.5 60q0 36 22 72t62 65v503h57v-503q-42 -32 -64.5 -66t-22.5 -64q0 -43 59 -43q20 0 42 5v-40z" />
    <glyph glyph-name="acutecomb.cap" horiz-adv-x="0" 
d="M-29 769l92 117h88l-122 -117h-58z" />
    <glyph glyph-name="uni030B.cap" horiz-adv-x="0" 
d="M-20 886h88l-122 -117h-58zM147 886h88l-122 -117h-58z" />
    <glyph glyph-name="gravecomb.cap" horiz-adv-x="0" 
d="M-29 769l-122 117h88l92 -117h-58z" />
    <glyph glyph-name="uni0302.cap" horiz-adv-x="0" 
d="M96 769l-96 87l-96 -87h-71l136 129h62l136 -129h-71z" />
    <glyph glyph-name="tildecomb.cap" horiz-adv-x="0" 
d="M72 820q17 0 26 10.5t11 35.5l1 19h43q3 -10 3 -24q0 -42 -23 -65t-63 -23q-43 0 -79 35q-19 18 -33 25.5t-29 7.5q-17 0 -26 -10.5t-11 -35.5l-1 -19h-43q-3 11 -3 24q0 42 23 65t63 23q43 0 79 -35q19 -18 33 -25.5t29 -7.5z" />
    <glyph glyph-name="uni030C.cap" horiz-adv-x="0" 
d="M-30 769l-137 129h78l89 -96l89 96h78l-137 -129h-60z" />
    <glyph glyph-name="uni0315.short" horiz-adv-x="0" 
d="M-20 580v160q16 7 32 7q20 0 33 -10l-25 -157h-40z" />
    <glyph glyph-name="uni0304.cap" horiz-adv-x="0" 
d="M-153 805v51h306v-51h-306z" />
    <glyph glyph-name="uni0308.cap" horiz-adv-x="0" 
d="M-99 785q-20 0 -32 12.5t-12 32.5t12 32.5t32 12.5t32 -12.5t12 -32.5t-12 -32.5t-32 -12.5zM99 785q-20 0 -32 12.5t-12 32.5t12 32.5t32 12.5t32 -12.5t12 -32.5t-12 -32.5t-32 -12.5z" />
    <glyph glyph-name="uni0306.cap" horiz-adv-x="0" 
d="M0 767q-61 0 -97.5 29.5t-36.5 75.5q0 5 0.5 9.5t2.5 8.5h47l1 -9q6 -64 83 -64t83 64l1 9h47q2 -4 2.5 -8.5t0.5 -9.5q0 -46 -36.5 -75.5t-97.5 -29.5z" />
    <glyph glyph-name="uni0307.cap" horiz-adv-x="0" 
d="M0 785q-20 0 -32 12t-12 33t12 33t32 12t32 -12t12 -33t-12 -33t-32 -12z" />
    <glyph glyph-name="uni030A.cap" horiz-adv-x="0" 
d="M0 740q-45 0 -73 25t-28 66t28 66t73 25t73 -25t28 -66t-28 -66t-73 -25zM0 780q25 0 39 13.5t14 37.5t-14 37.5t-39 13.5t-39 -13.5t-14 -37.5t14 -37.5t39 -13.5z" />
    <glyph glyph-name="uni030A0301" horiz-adv-x="0" 
d="M0 584q-45 0 -73 25t-28 66t28 66t73 25t73 -25t28 -66t-28 -66t-73 -25zM0 624q25 0 39 13.5t14 37.5t-14 37.5t-39 13.5t-39 -13.5t-14 -37.5t14 -37.5t39 -13.5zM-35 802l92 117h88l-122 -117h-58z" />
    <glyph glyph-name="uni0431.locl_MKDSRB" horiz-adv-x="549" 
d="M52 219q0 83 40 142t126 105l12 6l-45 29q-39 24 -56.5 52.5t-17.5 66.5q0 52 35.5 81t103.5 33l187 11v-50l-187 -11q-42 -2 -61 -18t-19 -48q0 -25 11.5 -42.5t37.5 -34.5l142 -88q56 -35 84.5 -66.5t40 -70.5t11.5 -97q0 -107 -60 -170.5t-163 -63.5t-162.5 62.5
t-59.5 171.5zM111 219q0 -88 42 -135t121 -47q81 0 122.5 46t41.5 136q0 73 -19 109.5t-76 72.5l-73 45l-14 -8q-82 -49 -113.5 -96.5t-31.5 -122.5z" />
    <glyph glyph-name="uni0432.locl_BGR" horiz-adv-x="544" 
d="M462 572q0 -66 -26.5 -111t-77.5 -66q65 -16 99.5 -65t34.5 -126q0 -103 -53.5 -161t-148.5 -58q-116 0 -170 84.5t-54 268.5v48q0 177 60 272.5t170 95.5q78 0 122 -48t44 -134zM122 364v-29q0 -107 18 -172.5t55.5 -95.5t97.5 -30q68 0 105.5 44.5t37.5 122.5t-40 119
t-117 41h-157zM406 563q0 69 -28.5 104t-84.5 35q-81 0 -124 -73.5t-47 -216.5h134q150 0 150 151z" />
    <glyph glyph-name="uni0433.locl_BGR" horiz-adv-x="439" 
d="M101 123q0 -41 33 -64t92 -23q81 0 168 32v-47q-72 -36 -164 -36q-88 0 -136 36t-48 103q0 49 28 82t89 55l85 31q53 20 73.5 41t20.5 54q0 39 -29 59.5t-84 20.5q-69 0 -156 -26v47q31 14 72 22t81 8q79 0 125 -35t46 -94q0 -95 -121 -140l-91 -33q-45 -16 -64.5 -37.5
t-19.5 -55.5z" />
    <glyph glyph-name="uni0434.locl_BGR" horiz-adv-x="571" 
d="M432 74q-37 -31 -82 -49t-86 -18q-96 0 -154 68.5t-58 181.5q0 121 57.5 191t156.5 70q94 0 167 -67l6 52h50v-480q0 -118 -60 -179.5t-174 -61.5q-95 0 -163 38v47q84 -33 160 -33q93 0 136.5 46t43.5 145v49zM277 59q75 0 155 64v278q-41 34 -79 49.5t-81 15.5
q-80 0 -120.5 -52t-40.5 -154q0 -98 42.5 -149.5t123.5 -51.5z" />
    <glyph glyph-name="uni0436.locl_BGR" horiz-adv-x="695" 
d="M8 0l259 257l-242 246h73l222 -233v470h55v-470l222 233h73l-243 -246l260 -257h-76l-236 239v-239h-55v239l-236 -239h-76z" />
    <glyph glyph-name="uni0437.locl_BGR" horiz-adv-x="444" 
d="M174 -215q-39 0 -81 9t-75 24v46q86 -27 158 -27q79 0 121 40t42 114q0 72 -39.5 110.5t-114.5 38.5h-77v50h54q77 0 114 34t37 106q0 64 -36 99.5t-98 35.5q-54 0 -143 -25v47q31 14 72.5 22.5t78.5 8.5q83 0 134 -49.5t51 -129.5q0 -63 -27 -105.5t-79 -62.5
q64 -15 98 -61.5t34 -118.5q0 -94 -60.5 -150t-163.5 -56z" />
    <glyph glyph-name="uni0438.locl_BGR" horiz-adv-x="562" 
d="M430 0l-6 55q-95 -70 -197 -70q-72 0 -110.5 39t-38.5 114v365h57v-341q0 -66 25 -95.5t79 -29.5q49 0 92 15t92 49v402h57v-503h-50z" />
    <glyph glyph-name="uni043A.locl_BGR" horiz-adv-x="485" 
d="M82 0v740h57v-461l249 224h78l-267 -238l284 -265h-82l-262 246v-246h-57z" />
    <glyph glyph-name="uni043F.locl_BGR" horiz-adv-x="576" 
d="M439 0v342q0 65 -25 94.5t-80 29.5q-100 0 -195 -64v-402h-57v503h50l6 -58q49 35 103 54t105 19q73 0 111.5 -38.5t38.5 -113.5v-366h-57z" />
    <glyph glyph-name="uni0442.locl_BGR" horiz-adv-x="881" 
d="M744 0v342q0 65 -23 94.5t-73 29.5q-95 0 -181 -63q3 -24 3 -47v-356h-57v342q0 65 -23 94.5t-73 29.5q-93 0 -178 -61v-405h-57v503h50l6 -55q45 34 94.5 52t96.5 18q94 0 126 -77q47 37 100 57t105 20q69 0 105 -39t36 -113v-366h-57z" />
    <glyph glyph-name="uni0446.locl_BGR" horiz-adv-x="565" 
d="M493 -164v162q-26 0 -43.5 15.5t-23.5 42.5q-98 -71 -199 -71q-72 0 -110.5 39t-38.5 114v365h57v-341q0 -66 25 -95.5t79 -29.5q49 0 92 15t92 49v402h57v-416q0 -22 8.5 -31t30.5 -9q13 0 26 3v-214h-52z" />
    <glyph glyph-name="uni0448.locl_BGR" horiz-adv-x="857" 
d="M725 0l-6 54q-40 -32 -85.5 -50.5t-83.5 -18.5q-101 0 -135 71q-92 -71 -188 -71q-73 0 -111 39.5t-38 113.5v365h57v-341q0 -65 24.5 -95t79.5 -30q44 0 82.5 13.5t80.5 42.5q-4 19 -4 45v365h57v-350q0 -60 25.5 -88t81.5 -28q74 0 156 62v404h57v-503h-50z" />
    <glyph glyph-name="uni0449.locl_BGR" horiz-adv-x="860" 
d="M788 -164v162q-26 0 -43.5 15.5t-23.5 42.5q-40 -33 -86 -52t-85 -19q-101 0 -135 71q-92 -71 -188 -71q-73 0 -111 39.5t-38 113.5v365h57v-341q0 -65 24.5 -95t79.5 -30q44 0 82.5 13.5t80.5 42.5q-4 19 -4 45v365h57v-350q0 -60 25.5 -88t81.5 -28q74 0 156 62v404h57
v-416q0 -22 8.5 -31t30.5 -9q13 0 26 3v-214h-52z" />
    <glyph glyph-name="uni044A.locl_BGR" horiz-adv-x="584" 
d="M369 -15q-93 0 -145 56.5t-52 158.5v253h-154v50h211v-222q72 48 148 48q50 0 90 -21t63.5 -59t23.5 -88q0 -75 -53 -125.5t-132 -50.5zM361 279q-65 0 -132 -38v-52q0 -73 36.5 -113.5t103.5 -40.5q56 0 91 34.5t35 91.5q0 55 -35.5 86.5t-98.5 31.5z" />
    <glyph glyph-name="uni044C.locl_BGR" horiz-adv-x="488" 
d="M273 -15q-93 0 -145 56.5t-52 158.5v303h57v-222q72 48 148 48q50 0 90 -21t63.5 -59t23.5 -88q0 -75 -53 -125.5t-132 -50.5zM265 279q-65 0 -132 -38v-52q0 -73 36.5 -113.5t103.5 -40.5q56 0 91 34.5t35 91.5q0 55 -35.5 86.5t-98.5 31.5z" />
    <glyph glyph-name="uni044E.locl_BGR" horiz-adv-x="769" 
d="M501 -15q-64 0 -111 28.5t-73.5 84t-29.5 135.5h-148v-233h-57v740h57v-457h149q7 113 62.5 174t150.5 61q102 0 159 -70t57 -196t-57 -196.5t-159 -70.5zM501 37q157 0 157 215q0 214 -157 214t-157 -214q0 -215 157 -215z" />
    <glyph glyph-name="uni0306.cyrl" horiz-adv-x="0" 
d="M0 600q-68 0 -108.5 34.5t-40.5 93.5q0 19 3 29h48l2 -28q6 -83 96 -83t96 83l2 28h48q3 -10 3 -29q0 -59 -40.5 -93.5t-108.5 -34.5z" />
    <glyph glyph-name="uni0306.cyrl.cap" horiz-adv-x="0" 
d="M0 767q-66 0 -107.5 33t-41.5 86q0 18 3 28h49l2 -26q3 -36 27.5 -55t67.5 -19t67.5 19t27.5 55l2 26h49q3 -10 3 -28q0 -53 -41.5 -86t-107.5 -33z" />
    <glyph glyph-name="uni0439.locl_BGR" horiz-adv-x="562" 
d="M430 0l-6 55q-95 -70 -197 -70q-72 0 -110.5 39t-38.5 114v365h57v-341q0 -66 25 -95.5t79 -29.5q49 0 92 15t92 49v402h57v-503h-50zM279 600q-68 0 -108.5 34.5t-40.5 93.5q0 19 3 29h48l2 -28q6 -83 96 -83t96 83l2 28h48q3 -10 3 -29q0 -59 -40.5 -93.5t-108.5 -34.5
z" />
    <glyph glyph-name="acutecomb.grek" horiz-adv-x="0" 
d="M42 766h74l-94 -164h-44z" />
    <glyph glyph-name="acutecomb.grek.cap" horiz-adv-x="0" 
d="M-23 529l64 164h76l-94 -164h-46z" />
    </font>
</defs>
</svg>
